<svg width="97" height="185" xmlns="http://www.w3.org/2000/svg"><g fill="none"><path d="M29.635 136.328L27.28 43.694h50.242V185H55.54l.785-32.186-.785-26.691h-4.71l-1.57 26.691L50.83 185H29.635v-48.672z" fill="#fff"/><path d="M27.28 51.49v-7.85h50.242v7.85H27.28z" fill="#828282"/><path d="M46.906 47.564c-3.14 2.512-9.682 3.664-12.56 3.925 14.13.262 41.449.628 37.68 0-3.767-.628-7.85-2.878-9.42-3.925-3.925-1.047-12.56-2.512-15.7 0zM41.41 78.18V61.695h25.122V78.18H41.41z" fill="#C4C4C4"/><path d="M41.41 61.695V78.18h25.122V61.695H41.41z" stroke-width=".3" stroke="#000"/><path d="M50.83 184.946H29.636s5.72-8.038 10.99-7.85c5.026.177 10.206 7.85 10.206 7.85zm25.907.003H55.54s5.72-8.038 10.99-7.85c5.025.177 10.206 7.85 10.206 7.85z" fill="#474747"/><path d="M77.522 97.814V51.491s-10.049 47.426-12.56 56.522l12.56-10.199zm-48.672 2.884l-1.57-49.207s9.42 47.212 12.56 56.522l-10.99-7.315z" fill="#E0561B"/><path d="M29.635 140.984v-9.42l21.196-5.496v3.925l-21.196 10.99zm25.906-10.991v-3.925l21.98 5.495v9.42l-21.98-10.99z" fill="#313131"/><path d="M82.43 110.08c5.599-6.934 13.933-15.393 13.933-30.329 0-12.56-3.14-17.27-7.065-23.42-4.08-2.597-8.098-4.269-11.776-4.841-1.57 0-3.78-.087-5.487 0v16.486s9.276 0 9.596 1.57c.32 1.57 2.171 14.954 0 17.42-2.171 2.466-9.596 10.016-9.596 10.016s-1.64 1.535-3.933 3.918l13.345 10.347c.396-.456.729-.85.984-1.167z" fill="#EDEDED"/><path d="M68.102 100.867l13.345 10.189c-2.777 2.773-4.71 4.81-7.065 7.161-6.28 3.925-6.75 8.104-13.346 0-2.555-3.14 2.356-11.08 7.066-17.35z" fill="#5D5D5D"/><path d="M32.775 69.546l-1.57-18.056h-15.7c-5.552 0 0-30.616 0-30.616H.589S-1.767 48.35 2.944 63.266c1.24 3.925 29.831 6.28 29.831 6.28z" fill="#E7E7E7"/><path d="M2.944 4.388C-.981 9.785.589 20.873.589 20.873h14.915s2.55-13.937-1.57-18.055C9.815-1.302 6.87-1.01 2.944 4.388z" fill="#5D5D5D"/><path d="M33.56 29.563c-.628-16.328 13.346-19.364 20.411-18.84 6.804-.524 20.411 2.512 20.411 18.84 0 5.225-1.393 9.036-3.511 11.776-4.5 5.823-12.273 6.814-16.9 6.28-6.542.785-19.783-1.727-20.41-18.056z" fill="#fff"/><path d="M68.102 38.93H39.84c0-4.92.785-12.561 2.355-18.313 1.57-3.669 8.72-5.239 12.56-5.239 3.843 0 9.421 1.57 10.991 5.24 1.57 5.75 2.356 13.391 2.356 18.311z" fill="#313131"/></g></svg>