<svg width="50" height="93" xmlns="http://www.w3.org/2000/svg"><g fill="none"><path d="M12.917 66.696l-1.25-49.167h26.666v75H26.667l.416-17.083-.416-14.167h-2.5l-.834 14.167.834 17.083h-11.25V66.696z" fill="#262626"/><path d="M11.667 21.667V17.5h26.666v4.167H11.667z" fill="#828282"/><path d="M22.083 19.583c-1.666 1.334-5.139 1.945-6.666 2.084 7.5.138 22 .333 20 0-2-.334-4.167-1.528-5-2.084-2.084-.555-6.667-1.333-8.334 0z" fill="#C4C4C4"/><path d="M19.167 35.833v-8.75H32.5v8.75H19.167z" fill="#8C8C8C"/><path d="M19.167 27.083v8.75H32.5v-8.75H19.167z" stroke-width=".3" stroke="#000"/><path d="M24.167 92.5h-11.25s3.035-4.266 5.833-4.167c2.667.095 5.417 4.167 5.417 4.167zm13.75.002h-11.25s3.035-4.266 5.833-4.167c2.667.095 5.417 4.167 5.417 4.167z" fill="#474747"/><path d="M38.333 51.376v-29.71c-10 39.167-6.666 30.417-8.333 36.25l8.333-6.54zM12.5 52.5l-.833-30.833c12 38.716 8 30.067 10 35.833l-9.167-5z" fill="#E0561B"/><path d="M.148 36.816c-1.58-12.685 9.904-15.404 15.28-15.131v11.041l-5.942.41v7.36l5.093 5.316s.87.815 2.088 2.08L9.54 53.333a21.49 21.49 0 0 1-.479-.569c-2.97-3.68-7.64-5.725-8.913-15.948z" fill="#292929"/><path d="M16.667 47.875l-7.084 5.408c1.475 1.471 3.334 3.744 4.584 4.991 2.083 1.726 4.583 3.393 7.5 0 1.927-2.24-2.5-7.071-5-10.4z" fill="#5D5D5D"/><path d="M49.852 36.816c1.58-12.685-9.904-15.404-15.28-15.131v11.041l5.942.41v7.36l-5.093 5.316s-.87.815-2.088 2.08l7.084 5.492c.21-.243.386-.452.522-.62 2.97-3.68 7.64-5.725 8.913-15.948z" fill="#292929"/><path d="M33.333 47.875l7.084 5.408c-1.475 1.471-2.5 2.552-3.75 3.8-3.334 2.084-3.583 4.301-7.084 0-1.356-1.666 1.25-5.88 3.75-9.208z" fill="#5D5D5D"/><path d="M15 10.029c-.333-8.667 7.083-10.278 10.833-10 3.611-.278 10.834 1.333 10.834 10 0 2.773-.74 4.796-1.864 6.25-2.389 3.09-6.514 3.616-8.97 3.333-3.472.417-10.5-.916-10.833-9.583z" fill="#252525"/><path d="M33.333 15h-15c0-2.611.417-6.667 1.25-9.72.834-1.947 4.628-2.78 6.667-2.78 2.039 0 5 .833 5.833 2.78.834 3.053 1.25 7.109 1.25 9.72z" fill="#3E3E3E"/><path d="M12.917 69.167v-5l11.25-2.917v2.083l-11.25 5.834zm13.75-5.834V61.25l11.666 2.917v5l-11.666-5.834z" fill="#313131"/></g></svg>