<svg width="62" height="119" xmlns="http://www.w3.org/2000/svg"><g fill="none"><path d="M19.5 87.035l-1.5-59h32v90H36l.5-20.5-.5-17h-3l-1 17 1 20.5H19.5v-31z" fill="#fff"/><path d="M18 33v-5h32v5H18z" fill="#828282"/><path d="M30.5 30.5c-2 1.6-6.167 2.333-8 2.5 9 .167 26.4.4 24 0-2.4-.4-5-1.833-6-2.5-2.5-.667-8-1.6-10 0zM27 50V39.5h16V50H27z" fill="#C4C4C4"/><path d="M27 39.5V50h16V39.5H27z" stroke-width=".3" stroke="#000"/><path d="M33 118H19.5s3.643-5.119 7-5c3.2.114 6.5 5 6.5 5zm16.5.002H36s3.643-5.119 7-5c3.2.114 6.5 5 6.5 5z" fill="#474747"/><path d="M50 62.504V33s-6.4 30.207-8 36l8-6.496zm-31 1.837L18 33s6 30.07 8 36l-7-4.659z" fill="#E0561B"/><path d="M19.5 90v-6L33 80.5V83l-13.5 7zM36 83v-2.5L50 84v6l-14-7z" fill="#313131"/><path d="M53.126 70.317C56.692 65.901 62 60.513 62 51c0-8-2-11-4.5-14.916-2.598-1.654-5.158-2.72-7.5-3.084-1 0-2.408-.055-3.495 0v10.5s5.908 0 6.112 1c.204 1 1.383 9.525 0 11.096-1.383 1.57-6.112 6.379-6.112 6.379S45.46 62.952 44 64.47l8.5 6.59c.252-.29.464-.541.626-.743z" fill="#EDEDED"/><path d="M44 64.45l8.5 6.49c-1.77 1.765-3 3.062-4.5 4.56-4 2.5-4.3 5.161-8.5 0-1.628-2 1.5-7.057 4.5-11.05z" fill="#5D5D5D"/><path d="M21.5 44.5l-1-11.5h-10c-3.535 0 0-19.5 0-19.5H1S-.5 31 2.5 40.5c.79 2.5 19 4 19 4z" fill="#E7E7E7"/><path d="M2.5 3C0 6.438 1 13.5 1 13.5h9.5s1.623-8.877-1-11.5C6.877-.623 5-.438 2.5 3z" fill="#5D5D5D"/><path d="M22 19.035c-.4-10.4 8.5-12.334 13-12 4.333-.334 13 1.6 13 12 0 3.327-.887 5.754-2.236 7.5-2.867 3.709-7.817 4.34-10.764 4-4.167.5-12.6-1.1-13-11.5z" fill="#fff"/><path d="M44 25H26c0-3.134.5-8 1.5-11.663C28.5 11 33.053 10 35.5 10s6 1 7 3.337C43.5 17 44 21.867 44 25z" fill="#313131"/></g></svg>