<svg width="100" height="185" xmlns="http://www.w3.org/2000/svg"><g fill="none"><path d="M25.825 133.35l-2.499-98.303h53.317V185H53.317l.833-34.156-.833-28.325h-4.999l-1.666 28.325L48.318 185H25.825v-51.65z" fill="#fff"/><path d="M23.326 43.32v-8.33h53.317v8.33H23.326z" fill="#828282"/><path d="M44.153 39.154c-3.332 2.666-10.274 3.888-13.329 4.166 14.995.277 43.986.666 39.987 0-3.998-.667-8.33-3.055-9.996-4.166-4.166-1.11-13.33-2.666-16.662 0zm-5.831 32.49V54.15H64.98v17.494H38.32z" fill="#C4C4C4"/><path d="M38.322 54.15v17.494H64.98V54.15H38.32z" stroke-width=".3" stroke="#000"/><path d="M48.318 184.942H25.825s6.07-8.529 11.663-8.33c5.333.189 10.83 8.33 10.83 8.33zm27.492.004H53.317s6.07-8.529 11.663-8.33c5.332.189 10.83 8.33 10.83 8.33z" fill="#474747"/><path d="M76.643 102.72v-59.4c-19.994 78.309-13.33 60.814-16.662 72.477l16.662-13.078zm-51.651 2.247L23.326 43.32c23.993 77.409 15.995 60.115 19.994 71.644l-18.328-9.997z" fill="#E0561B"/><path d="M.296 73.608c-3.16-25.361 19.801-30.797 30.55-30.252v22.076l-11.88.817v14.718l10.183 10.629s1.741 1.628 4.174 4.158l-14.25 10.88a46.324 46.324 0 0 1-.956-1.139C12.177 98.137 2.842 94.05.296 73.608z" fill="#EDEDED"/><path d="M33.323 95.72L19.16 106.531c2.948 2.943 6.665 7.485 9.164 9.98 4.166 3.45 9.164 6.783 14.996 0 3.853-4.48-4.999-14.139-9.997-20.793z" fill="#5D5D5D"/><path d="M99.673 73.608c3.159-25.361-19.801-30.797-30.55-30.252v22.076l11.88.817v14.718L70.82 91.596s-1.741 1.628-4.174 4.158l14.162 10.98c.42-.484.773-.903 1.044-1.238 5.94-7.36 15.275-11.447 17.821-31.888z" fill="#EDEDED"/><path d="M66.646 95.72l14.162 10.812c-2.947 2.943-4.998 5.104-7.497 7.599-6.665 4.165-7.164 8.6-14.163 0-2.711-3.332 2.5-11.758 7.498-18.412z" fill="#5D5D5D"/><path d="M29.99 20.051C29.325 2.724 44.154-.498 51.65.058c7.22-.556 21.66 2.666 21.66 19.993 0 5.545-1.478 9.589-3.726 12.497-4.776 6.18-13.024 7.23-17.933 6.664-6.943.833-20.994-1.833-21.66-19.16z" fill="#fff"/><path d="M66.646 29.99H36.655c0-5.22.833-13.329 2.5-19.432 1.665-3.893 9.252-5.56 13.328-5.56 4.077 0 9.997 1.667 11.663 5.56 1.667 6.103 2.5 14.212 2.5 19.433zm-40.821 108.3v-9.996l22.493-5.832v4.165L25.825 138.29zm27.492-11.663v-4.165l23.326 5.832v9.996l-23.326-11.663z" fill="#313131"/></g></svg>