<svg width="97" height="185" viewBox="0 0 97 185" version="1.1" xmlns="http://www.w3.org/2000/svg" xmlns:xlink="http://www.w3.org/1999/xlink">
<g id="Canvas" fill="none">
<g id="Astronaut-waving">
<g id="Vector 2">
<path d="M 2.3551 92.6339L 0 0L 50.2421 0L 50.2421 141.306L 37.6816 141.306L 28.2612 141.306L 29.0462 109.12L 28.2612 82.4284L 23.551 82.4284L 21.9809 109.12L 23.551 141.306L 10.9905 141.306L 2.3551 141.306L 2.3551 92.6339Z" transform="translate(27.2798 43.6941)" fill="white"/>
</g>
<g id="Vector">
<path d="M 0 7.85033L 0 0L 50.2421 0L 50.2421 7.85033L 0 7.85033Z" transform="translate(27.2798 43.6393)" fill="#828282"/>
</g>
<g id="Vector_2">
<path d="M 12.5605 1.38706C 9.42039 3.89917 2.87845 5.05055 0 5.31223C 14.1306 5.57396 41.4497 5.94038 37.6816 5.31223C 33.9134 4.68407 29.8312 2.43372 28.2612 1.38706C 24.336 0.340353 15.7007 -1.12504 12.5605 1.38706Z" transform="translate(34.3452 46.177)" fill="#C4C4C4"/>
</g>
<g id="Vector_3">
<path d="M 0 16.4857L 0 0L 25.121 0L 25.121 16.4857L 0 16.4857Z" transform="translate(41.4106 61.6947)" fill="#C4C4C4"/>
<path d="M 0 0L 0 16.4857L 25.121 16.4857L 25.121 0L 0 0Z" stroke-width="0.3" transform="translate(41.4106 61.6947)" stroke="black"/>
</g>
<g id="Vector_4">
<path d="M 21.1959 7.85354L 0 7.85354C 0 7.85354 5.71927 -0.183711 10.9905 0.00321059C 16.0155 0.181403 21.1959 7.85354 21.1959 7.85354Z" transform="translate(29.635 177.092)" fill="#474747"/>
</g>
<g id="Vector_5">
<path d="M 21.1959 7.85354L 0 7.85354C 0 7.85354 5.71927 -0.183711 10.9905 0.00321059C 16.0155 0.181403 21.1959 7.85354 21.1959 7.85354Z" transform="translate(55.541 177.095)" fill="#474747"/>
</g>
<g id="Vector_6">
<path d="M 12.5605 46.3235L 12.5605 0C 12.5605 0 2.5121 47.4268 0 56.5224L 12.5605 46.3235Z" transform="translate(64.9614 51.4907)" fill="#E0561B"/>
</g>
<g id="Vector_7">
<path d="M 10.9904 49.2077L 12.5605 0C 12.5605 0 3.14019 47.2128 0 56.5224L 10.9904 49.2077Z" transform="translate(39.8403 51.4907) scale(-1 1)" fill="#E0561B"/>
</g>
<g id="Vector_8">
<path d="M 0 14.9156L 0 5.49523L 21.1959 0L 21.1959 3.92516L 0 14.9156Z" transform="translate(29.635 126.068)" fill="#313131"/>
</g>
<g id="Vector_9">
<path d="M 0 3.92516L 0 0L 21.9809 5.49523L 21.9809 14.9156L 0 3.92516Z" transform="translate(55.541 126.068)" fill="#313131"/>
</g>
<g id="Group">
<g id="Vector 2.2">
<path d="M 13.9321 58.6288C 8.33418 51.6945 0 43.236 0 28.2997C 0 15.7392 3.1401 11.029 7.06529 4.88019C 11.144 2.28297 15.1632 0.610873 18.8408 0.0384867C 20.4108 0.0383317 22.6214 -0.048057 24.3281 0.0384867L 24.3281 16.5242C 24.3281 16.5242 15.0516 16.5242 14.7318 18.0943C 14.4119 19.6643 12.5605 33.0486 14.7318 35.5147C 16.903 37.9808 24.3281 45.5308 24.3281 45.5308C 24.3281 45.5308 25.9685 47.0651 28.2611 49.4489L 14.9156 59.7958C 14.5201 59.3393 14.1872 58.9449 13.9321 58.6288Z" transform="translate(96.3628 51.4515) scale(-1 1)" fill="#EDEDED"/>
</g>
<g id="Vector_10">
<path d="M 13.3456 0L 0 10.189C 2.77756 12.9621 4.7102 14.9987 7.06529 17.3501C 13.3456 21.2752 13.8162 25.4535 20.4108 17.3501C 22.9663 14.2099 18.0557 6.27018 13.3456 0Z" transform="translate(81.4473 100.867) scale(-1 1)" fill="#5D5D5D"/>
</g>
</g>
<g id="Group_2">
<g id="Vector 2_2">
<path d="M 32.7751 48.672L 31.2051 30.6163L 15.5046 30.6163C 9.95344 30.6163 15.5046 0 15.5046 0L 0.588987 0C 0.588987 0 -1.76661 27.4761 2.94387 42.3918C 4.18347 46.3169 32.7751 48.672 32.7751 48.672Z" transform="translate(0 20.8738)" fill="#E7E7E7"/>
</g>
<g id="Vector 3">
<path d="M 2.66525 4.38783C -1.25999 9.785 0.310175 20.8731 0.310175 20.8731L 15.2258 20.8731C 15.2258 20.8731 17.7745 6.93648 13.6557 2.81765C 9.53682 -1.30119 6.59048 -1.00934 2.66525 4.38783Z" transform="translate(0.278564 0)" fill="#5D5D5D"/>
</g>
</g>
<g id="Vector_11">
<path d="M 0.0204781 18.8951C -0.607548 2.56645 13.366 -0.469014 20.4313 0.0543414C 27.2349 -0.468984 40.8422 2.56652 40.8422 18.8951C 40.8422 24.1202 39.4488 27.9305 37.331 30.6707C 32.8304 36.4939 25.0578 37.4848 20.4313 36.951C 13.8894 37.736 0.648504 35.2238 0.0204781 18.8951Z" transform="translate(33.5398 10.6682)" fill="white"/>
</g>
<g id="Ellipse">
<path d="M 28.2612 23.551C 28.2612 23.551 24.454 23.551 14.9156 23.551C 5.37727 23.551 0 23.551 0 23.551C 0 18.631 0.785033 10.9905 2.35512 5.23919C 3.92516 1.57007 11.074 0 14.9156 0C 18.7572 0 24.336 1.57007 25.9061 5.23919C 27.4761 10.9905 28.2612 18.631 28.2612 23.551Z" transform="translate(39.8403 15.3782)" fill="#313131"/>
</g>
</g>
</g>
</svg>

