<svg width="100" height="185" viewBox="0 0 100 185" version="1.1" xmlns="http://www.w3.org/2000/svg" xmlns:xlink="http://www.w3.org/1999/xlink">
<g id="Canvas" fill="none">
<g id="Astronaut">
<g id="Vector 2">
<path d="M 2.49922 98.3026L 0 0L 53.3167 0L 53.3167 149.953L 39.9875 149.953L 29.9906 149.953L 30.8237 115.797L 29.9906 87.4727L 24.9922 87.4727L 23.326 115.797L 24.9922 149.953L 11.663 149.953L 2.49922 149.953L 2.49922 98.3026Z" transform="translate(23.3262 35.0468)" fill="white"/>
</g>
<g id="Vector">
<path d="M 0 8.33073L 0 0L 53.3167 0L 53.3167 8.33073L 0 8.33073Z" transform="translate(23.3262 34.9891)" fill="#828282"/>
</g>
<g id="Vector_2">
<path d="M 13.3292 1.47194C 9.99688 4.13778 3.0546 5.35962 0 5.63731C 14.9953 5.91506 43.9863 6.30391 39.9875 5.63731C 35.9888 4.97072 31.6568 2.58265 29.9906 1.47194C 25.8253 0.361181 16.6615 -1.19389 13.3292 1.47194Z" transform="translate(30.824 37.6823)" fill="#C4C4C4"/>
</g>
<g id="Vector_3">
<path d="M 0 17.4945L 0 0L 26.6583 0L 26.6583 17.4945L 0 17.4945Z" transform="translate(38.3215 54.1498)" fill="#C4C4C4"/>
<path d="M 0 0L 0 17.4945L 26.6583 17.4945L 26.6583 0L 0 0Z" stroke-width="0.3" transform="translate(38.3215 54.1498)" stroke="black"/>
</g>
<g id="Vector_4">
<path d="M 22.493 8.33414L 0 8.33414C 0 8.33414 6.06926 -0.194953 11.663 0.00340706C 16.9956 0.192504 22.493 8.33414 22.493 8.33414Z" transform="translate(25.8254 176.608)" fill="#474747"/>
</g>
<g id="Vector_5">
<path d="M 22.493 8.33414L 0 8.33414C 0 8.33414 6.06926 -0.194953 11.663 0.00340706C 16.9956 0.192504 22.493 8.33414 22.493 8.33414Z" transform="translate(53.3169 176.612)" fill="#474747"/>
</g>
<g id="Vector_6">
<path d="M 16.6615 59.3996L 16.6615 0C -3.33229 78.3089 3.33229 60.8143 0 72.4774L 16.6615 59.3996Z" transform="translate(59.9812 43.3198)" fill="#E0561B"/>
</g>
<g id="Vector_7">
<path d="M 18.3276 61.6474L 19.9938 0C -3.99875 77.4088 3.99875 60.1153 0 71.6443L 18.3276 61.6474Z" transform="translate(43.3201 43.3198) scale(-1 1)" fill="#E0561B"/>
</g>
<g id="Group">
<g id="Vector 2.2">
<path d="M 0.295616 30.2884C -2.86322 4.92683 20.0971 -0.509051 30.8465 0.0360336L 30.8465 22.1121L 18.9656 22.9297L 18.9656 37.6472L 29.1492 48.2762C 29.1492 48.2762 30.89 49.9044 33.3229 52.4341L 19.0737 63.3136C 18.692 62.8716 18.3688 62.4877 18.117 62.1757C 12.1765 54.8171 2.84157 50.7292 0.295616 30.2884Z" transform="translate(0 43.3198)" fill="#EDEDED"/>
</g>
<g id="Vector_8">
<path d="M 14.1622 0L 0 10.8126C 2.94753 13.7554 6.66459 18.2982 9.1638 20.7934C 13.3292 24.2433 18.3276 27.5756 24.1591 20.7934C 28.0121 16.3122 19.1607 6.65389 14.1622 0Z" transform="translate(19.1604 95.7191)" fill="#5D5D5D"/>
</g>
</g>
<g id="Group_2">
<g id="Vector 2.2_2">
<path d="M 0.295616 30.2884C -2.86322 4.92683 20.0971 -0.509051 30.8465 0.0360336L 30.8465 22.1121L 18.9656 22.9297L 18.9656 37.6472L 29.1492 48.2762C 29.1492 48.2762 30.89 49.9044 33.3229 52.4341L 19.1607 63.4142C 18.741 62.9297 18.3878 62.5111 18.117 62.1757C 12.1765 54.8171 2.84157 50.7292 0.295616 30.2884Z" transform="translate(99.9688 43.3198) scale(-1 1)" fill="#EDEDED"/>
</g>
<g id="Vector_9">
<path d="M 14.1622 0L 0 10.8126C 2.94753 13.7554 4.99844 15.9166 7.49766 18.4118C 14.1622 22.5772 14.6617 27.0111 21.6599 18.4118C 24.3717 15.0795 19.1607 6.65389 14.1622 0Z" transform="translate(80.8083 95.7191) scale(-1 1)" fill="#5D5D5D"/>
</g>
</g>
<g id="Vector_10">
<path d="M 0.0217313 20.0514C -0.644727 2.7235 14.184 -0.497715 21.6816 0.0576669C 28.9016 -0.497683 43.3415 2.72358 43.3415 20.0514C 43.3415 25.5962 41.8629 29.6397 39.6155 32.5476C 34.8395 38.7272 26.5913 39.7786 21.6816 39.2122C 14.7394 40.0452 0.68819 37.3793 0.0217313 20.0514Z" transform="translate(29.969 0)" fill="white"/>
</g>
<g id="Ellipse">
<path d="M 29.9906 24.9922C 29.9906 24.9922 25.9504 24.9922 15.8284 24.9922C 5.70633 24.9922 0 24.9922 0 24.9922C 0 19.7712 0.833073 11.663 2.49924 5.5598C 4.16537 1.66615 11.7517 0 15.8284 0C 19.9051 0 25.8253 1.66615 27.4914 5.5598C 29.1576 11.663 29.9906 19.7712 29.9906 24.9922Z" transform="translate(36.655 4.99844)" fill="#313131"/>
</g>
<g id="Vector_11">
<path d="M 0 15.8284L 0 5.83151L 22.493 0L 22.493 4.16537L 0 15.8284Z" transform="translate(25.8254 122.462)" fill="#313131"/>
</g>
<g id="Vector_12">
<path d="M 0 4.16537L 0 0L 23.326 5.83151L 23.326 15.8284L 0 4.16537Z" transform="translate(53.3169 122.462)" fill="#313131"/>
</g>
</g>
</g>
</svg>

