<svg width="62" height="119" viewBox="0 0 62 119" version="1.1" xmlns="http://www.w3.org/2000/svg" xmlns:xlink="http://www.w3.org/1999/xlink">
<g id="Canvas" fill="none">
<g id="Astronaut-waving">
<g id="Vector 2">
<path d="M 1.5 59L 0 0L 32 0L 32 90L 24 90L 18 90L 18.5 69.5L 18 52.5L 15 52.5L 14 69.5L 15 90L 7 90L 1.5 90L 1.5 59Z" transform="translate(18 28.0347)" fill="white"/>
</g>
<g id="Vector">
<path d="M 0 5L 0 0L 32 0L 32 5L 0 5Z" transform="translate(18 28)" fill="#828282"/>
</g>
<g id="Vector_2">
<path d="M 8 0.883443C 6 2.48344 1.83333 3.21678 0 3.38344C 9 3.55014 26.4 3.78352 24 3.38344C 21.6 2.98336 19 1.55008 18 0.883443C 15.5 0.216776 10 -0.716557 8 0.883443Z" transform="translate(22.5 29.6165)" fill="#C4C4C4"/>
</g>
<g id="Vector_3">
<path d="M 0 10.5L 0 0L 16 0L 16 10.5L 0 10.5Z" transform="translate(27 39.5)" fill="#C4C4C4"/>
<path d="M 0 0L 0 10.5L 16 10.5L 16 0L 0 0Z" stroke-width="0.3" transform="translate(27 39.5)" stroke="black"/>
</g>
<g id="Vector_4">
<path d="M 13.5 5.00204L 0 5.00204C 0 5.00204 3.64269 -0.117009 7 0.00204488C 10.2005 0.115539 13.5 5.00204 13.5 5.00204Z" transform="translate(19.5 112.998)" fill="#474747"/>
</g>
<g id="Vector_5">
<path d="M 13.5 5.00204L 0 5.00204C 0 5.00204 3.64269 -0.117009 7 0.00204488C 10.2005 0.115539 13.5 5.00204 13.5 5.00204Z" transform="translate(36 113)" fill="#474747"/>
</g>
<g id="Vector_6">
<path d="M 8 29.5042L 8 0C 8 0 1.6 30.2069 0 36L 8 29.5042Z" transform="translate(42 33)" fill="#E0561B"/>
</g>
<g id="Vector_7">
<path d="M 7 31.3412L 8 0C 8 0 2.00004 30.0706 0 36L 7 31.3412Z" transform="translate(26 33) scale(-1 1)" fill="#E0561B"/>
</g>
<g id="Vector_8">
<path d="M 0 9.5L 0 3.5L 13.5 0L 13.5 2.5L 0 9.5Z" transform="translate(19.5 80.5)" fill="#313131"/>
</g>
<g id="Vector_9">
<path d="M 0 2.5L 0 0L 14 3.5L 14 9.5L 0 2.5Z" transform="translate(36 80.5)" fill="#313131"/>
</g>
<g id="Group">
<g id="Vector 2.2">
<path d="M 8.87356 37.3416C 5.30817 32.925 0 27.5377 0 18.0245C 0 10.0245 1.99998 7.02453 4.5 3.10827C 7.09776 1.45406 9.65771 0.389075 12 0.0245128C 13 0.0244141 14.408 -0.0306083 15.495 0.0245128L 15.495 10.5245C 15.495 10.5245 9.58663 10.5245 9.3829 11.5245C 9.17916 12.5245 8 21.0492 9.3829 22.6199C 10.7658 24.1906 15.495 28.9993 15.495 28.9993C 15.495 28.9993 16.5397 29.9765 18 31.4948L 9.49997 38.0849C 9.24811 37.7941 9.03608 37.5429 8.87356 37.3416Z" transform="translate(62 32.9756) scale(-1 1)" fill="#EDEDED"/>
</g>
<g id="Vector_10">
<path d="M 8.5 0L 0 6.48956C 1.76907 8.2558 3 9.55295 4.5 11.0505C 8.5 13.5505 8.79979 16.2117 13 11.0505C 14.6276 9.05054 11.5 3.99358 8.5 0Z" transform="translate(52.5 64.4495) scale(-1 1)" fill="#5D5D5D"/>
</g>
</g>
<g id="Group_2">
<g id="Vector 2_2">
<path d="M 20.875 31L 19.875 19.5L 9.87514 19.5C 6.33951 19.5 9.87514 0 9.87514 0L 0.375135 0C 0.375135 0 -1.12518 17.5 1.875 27C 2.66452 29.5 20.875 31 20.875 31Z" transform="translate(0.625 13.5)" fill="#E7E7E7"/>
</g>
<g id="Vector 3">
<path d="M 1.69754 2.79468C -0.802505 6.23222 0.197555 13.2944 0.197555 13.2944L 9.69755 13.2944C 9.69755 13.2944 11.3209 4.41796 8.69751 1.79461C 6.07415 -0.828748 4.19759 -0.642868 1.69754 2.79468Z" transform="translate(0.80246 0.205322)" fill="#5D5D5D"/>
</g>
</g>
<g id="Vector_11">
<path d="M 0.0130428 12.0346C -0.386957 1.63461 8.51304 -0.298722 13.013 0.0346109C 17.3464 -0.298703 26.013 1.63466 26.013 12.0346C 26.013 15.3625 25.1256 17.7894 23.7767 19.5347C 20.9102 23.2436 15.9597 23.8746 13.013 23.5347C 8.84638 24.0346 0.413043 22.4346 0.0130428 12.0346Z" transform="translate(21.987 7)" fill="white"/>
</g>
<g id="Ellipse">
<path d="M 18 15C 18 15 15.5751 15 9.5 15C 3.42487 15 0 15 0 15C 0 11.8664 0.5 7 1.50001 3.33692C 2.5 1 7.05324 0 9.5 0C 11.9468 0 15.5 1 16.5 3.33692C 17.5 7 18 11.8664 18 15Z" transform="translate(26 10)" fill="#313131"/>
</g>
</g>
</g>
</svg>

