<svg width="50" height="93" viewBox="0 0 50 93" version="1.1" xmlns="http://www.w3.org/2000/svg" xmlns:xlink="http://www.w3.org/1999/xlink">
<g id="Canvas" fill="none">
<g id="Astronaut">
<g id="Vector 2">
<path d="M 1.25 49.1667L 0 0L 26.6667 0L 26.6667 75L 20 75L 15 75L 15.4167 57.9167L 15 43.75L 12.5 43.75L 11.6667 57.9167L 12.5 75L 5.83333 75L 1.25 75L 1.25 49.1667Z" transform="translate(11.6667 17.5289)" fill="#262626"/>
</g>
<g id="Vector">
<path d="M 0 4.16667L 0 0L 26.6667 0L 26.6667 4.16667L 0 4.16667Z" transform="translate(11.6667 17.5)" fill="#828282"/>
</g>
<g id="Vector_2">
<path d="M 6.66667 0.736202C 5 2.06954 1.52778 2.68065 0 2.81954C 7.5 2.95845 22 3.15294 20 2.81954C 18 2.48613 15.8333 1.29173 15 0.736202C 12.9167 0.180647 8.33333 -0.597131 6.66667 0.736202Z" transform="translate(15.4167 18.847)" fill="#C4C4C4"/>
</g>
<g id="Vector_3">
<path d="M 0 8.75L 0 0L 13.3333 0L 13.3333 8.75L 0 8.75Z" transform="translate(19.1667 27.0833)" fill="#8C8C8C"/>
<path d="M 0 0L 0 8.75L 13.3333 8.75L 13.3333 0L 0 0Z" stroke-width="0.3" transform="translate(19.1667 27.0833)" stroke="black"/>
</g>
<g id="Vector_4">
<path d="M 11.25 4.16837L 0 4.16837C 0 4.16837 3.03558 -0.0975071 5.83333 0.00170406C 8.50044 0.0962822 11.25 4.16837 11.25 4.16837Z" transform="translate(12.9167 88.3317)" fill="#474747"/>
</g>
<g id="Vector_5">
<path d="M 11.25 4.16837L 0 4.16837C 0 4.16837 3.03558 -0.0975071 5.83333 0.00170406C 8.50044 0.0962822 11.25 4.16837 11.25 4.16837Z" transform="translate(26.6667 88.3333)" fill="#474747"/>
</g>
<g id="Vector_6">
<path d="M 8.33333 29.7091L 8.33333 0C -1.66667 39.1667 1.66667 30.4167 0 36.25L 8.33333 29.7091Z" transform="translate(30 21.6667)" fill="#E0561B"/>
</g>
<g id="Vector_7">
<path d="M 9.16667 30.8333L 10 0C -2 38.7165 2 30.067 0 35.8333L 9.16667 30.8333Z" transform="translate(21.6667 21.6667) scale(-1 1)" fill="#E0561B"/>
</g>
<g id="Group">
<g id="Vector 2.2">
<path d="M 0.147854 15.1489C -1.43206 2.46418 10.0517 -0.254605 15.4281 0.0180224L 15.4281 11.0595L 9.48577 11.4684L 9.48577 18.8295L 14.5792 24.1456C 14.5792 24.1456 15.4498 24.96 16.6667 26.2252L 9.5398 31.6667C 9.34894 31.4456 9.18729 31.2536 9.06132 31.0976C 6.09017 27.4171 1.42123 25.3725 0.147854 15.1489Z" transform="translate(0 21.6667)" fill="#292929"/>
</g>
<g id="Vector_8">
<path d="M 7.08333 0L 0 5.40797C 1.47423 6.87983 3.33333 9.15195 4.58333 10.3999C 6.66667 12.1254 9.16667 13.7921 12.0833 10.3999C 14.0104 8.15867 9.58333 3.32798 7.08333 0Z" transform="translate(9.58333 47.8746)" fill="#5D5D5D"/>
</g>
</g>
<g id="Group_2">
<g id="Vector 2.2_2">
<path d="M 0.147854 15.1489C -1.43206 2.46418 10.0517 -0.254605 15.4281 0.0180224L 15.4281 11.0595L 9.48577 11.4684L 9.48577 18.8295L 14.5792 24.1456C 14.5792 24.1456 15.4498 24.96 16.6667 26.2252L 9.58333 31.717C 9.37344 31.4747 9.19676 31.2653 9.06132 31.0976C 6.09017 27.4171 1.42123 25.3725 0.147854 15.1489Z" transform="translate(50 21.6667) scale(-1 1)" fill="#292929"/>
</g>
<g id="Vector_9">
<path d="M 7.08333 0L 0 5.40797C 1.47423 6.87983 2.5 7.96079 3.75 9.20878C 7.08333 11.2921 7.33316 13.5098 10.8333 9.20878C 12.1897 7.54211 9.58333 3.32798 7.08333 0Z" transform="translate(40.4167 47.8746) scale(-1 1)" fill="#5D5D5D"/>
</g>
</g>
<g id="Vector_10">
<path d="M 0.010869 10.0288C -0.322464 1.36218 7.0942 -0.248935 10.8442 0.0288425C 14.4553 -0.248919 21.6775 1.36221 21.6775 10.0288C 21.6775 12.8021 20.938 14.8245 19.8139 16.2789C 17.4252 19.3696 13.2998 19.8955 10.8442 19.6122C 7.37198 20.0289 0.344202 18.6955 0.010869 10.0288Z" transform="translate(14.9891 0)" fill="#252525"/>
</g>
<g id="Ellipse">
<path d="M 15 12.5C 15 12.5 12.9793 12.5 7.91667 12.5C 2.85406 12.5 0 12.5 0 12.5C 0 9.88867 0.416667 5.83333 1.25001 2.78077C 2.08333 0.833333 5.8777 0 7.91667 0C 9.95564 0 12.9167 0.833333 13.75 2.78077C 14.5833 5.83333 15 9.88867 15 12.5Z" transform="translate(18.3333 2.5)" fill="#3E3E3E"/>
</g>
<g id="Vector_11">
<path d="M 0 7.91667L 0 2.91667L 11.25 0L 11.25 2.08333L 0 7.91667Z" transform="translate(12.9167 61.25)" fill="#313131"/>
</g>
<g id="Vector_12">
<path d="M 0 2.08333L 0 0L 11.6667 2.91667L 11.6667 7.91667L 0 2.08333Z" transform="translate(26.6667 61.25)" fill="#313131"/>
</g>
</g>
</g>
</svg>

