<svg width="60" height="113" xmlns="http://www.w3.org/2000/svg" xmlns:xlink="http://www.w3.org/1999/xlink"><use xlink:href="#path0_fill" transform="translate(14 22.03)" fill="#FFF"/><use xlink:href="#path1_fill" transform="translate(14 22)" fill="#828282"/><use xlink:href="#path2_fill" transform="translate(18.5 23.62)" fill="#C4C4C4"/><g transform="translate(23 33.5)"><use xlink:href="#path3_fill" fill="#C4C4C4"/><use xlink:href="#path4_stroke"/></g><use xlink:href="#path5_fill" transform="translate(15.5 107)" fill="#474747"/><use xlink:href="#path5_fill" transform="translate(32 107)" fill="#474747"/><use xlink:href="#path6_fill" transform="translate(36 27)" fill="#E0561B"/><use xlink:href="#path7_fill" transform="matrix(-1 0 0 1 26 27)" fill="#E0561B"/><use xlink:href="#path8_fill" transform="translate(0 27)" fill="#EDEDED"/><use xlink:href="#path9_fill" transform="translate(11.5 58.45)" fill="#C4C4C4"/><use xlink:href="#path10_fill" transform="matrix(-1 0 0 1 60 27)" fill="#EDEDED"/><use xlink:href="#path11_fill" transform="matrix(-1 0 0 1 48.5 58.45)" fill="#C4C4C4"/><g transform="translate(17.987 1)"><use xlink:href="#path12_fill" fill="#FFF"/><use xlink:href="#path13_stroke"/></g><use xlink:href="#path14_fill" transform="translate(21.372 3.53)" fill="#313131"/><defs><path id="path0_fill" d="M1.5 59L0 0h32v90H18l.5-20.5-.5-17h-3l-1 17L15 90H1.5V59z"/><path id="path1_fill" d="M0 5V0h32v5H0z"/><path id="path2_fill" d="M8 .883c-2 1.6-6.167 2.334-8 2.5 9 .167 26.4.4 24 0-2.4-.4-5-1.833-6-2.5-2.5-.666-8-1.6-10 0z"/><path id="path3_fill" d="M0 10.5V0h16v10.5H0z"/><path id="path4_stroke" d="M0 0v-.15h-.15V0H0zm0 10.5h-.15v.15H0v-.15zm16 0v.15h.15v-.15H16zM16 0h.15v-.15H16V0zM-.15 0v10.5h.3V0h-.3zM0 10.65h16v-.3H0v.3zm16.15-.15V0h-.3v10.5h.3zM16-.15H0v.3h16v-.3z"/><path id="path5_fill" d="M13.5 5.002H0s3.643-5.119 7-5c3.2.114 6.5 5 6.5 5z"/><path id="path6_fill" d="M10 35.65V0C-2 47 2 36.5 0 43.5l10-7.85z"/><path id="path7_fill" d="M11 37l1-37C-2.4 46.46 2.4 36.08 0 43l11-6z"/><path id="path8_fill" d="M.177 18.179C-1.718 2.957 12.062-.306 18.514.022v13.25l-7.131.49v8.833l6.112 6.38s1.045.977 2.505 2.495L11.448 38c-.23-.265-.423-.496-.574-.683C7.308 32.901 1.705 30.447.177 18.18z"/><path id="path9_fill" d="M8.5 0L0 6.49c1.77 1.766 4 4.492 5.5 5.99 2.5 2.07 5.5 4.07 9 0 2.313-2.69-3-8.486-6-12.48z"/><path id="path10_fill" d="M.177 18.179C-1.718 2.957 12.062-.306 18.514.022v13.25l-7.131.49v8.833l6.112 6.38s1.045.977 2.505 2.495l-8.5 6.59c-.252-.29-.464-.542-.626-.743C7.308 32.901 1.705 30.447.177 18.18z"/><path id="path11_fill" d="M8.5 0L0 6.49c1.77 1.766 3 3.063 4.5 4.56 4 2.5 4.3 5.162 8.5 0 1.628-2-1.5-7.056-4.5-11.05z"/><path id="path12_fill" d="M.013 12.035c-.4-10.4 8.5-12.334 13-12 4.333-.334 13 1.6 13 12 0 3.328-.887 5.754-2.236 7.5-2.867 3.709-7.817 4.34-10.764 4-4.167.5-12.6-1.1-13-11.5z"/><path id="path13_stroke" d="M13.013.035l-.037.498.038.003.037-.003-.038-.498zm0 23.5l.057-.497-.058-.007-.059.007.06.497zm10.764-4l.395.305-.395-.305zM13.05-.464c-2.323-.172-5.79.236-8.643 2.052-2.89 1.839-5.1 5.092-4.894 10.466l1-.039C.319 6.99 2.36 4.075 4.943 2.431 7.566.764 10.8.372 12.977.533l.074-.997zM-.487 12.054C-.28 17.41 2.01 20.569 4.84 22.299c2.798 1.71 6.068 1.992 8.233 1.732l-.12-.993c-2.002.24-5.032-.028-7.592-1.593-2.527-1.544-4.654-4.387-4.848-9.43l-1 .039zm27-.02c0-5.364-2.249-8.609-5.105-10.445C18.585-.226 15.22-.637 12.976-.464l.076.997c2.09-.16 5.223.23 7.817 1.897 2.56 1.647 4.645 4.57 4.645 9.605h1zM12.956 24.032c3.027.35 8.195-.282 11.216-4.19l-.79-.612c-2.713 3.509-7.445 4.14-10.312 3.809l-.114.993zm11.216-4.19c1.427-1.846 2.341-4.385 2.341-7.806h-1c0 3.235-.86 5.55-2.132 7.194l.791.611z"/><path id="path14_fill" d="M18.128 14.965s-2.425 2.5-8.5 2.5-9.5-2.5-9.5-2.5c0-3.133-.778-7.862 1.5-11.163C3.165 1.576 7.181 0 9.628 0s5.658 1.576 7 3.802c1.991 3.301 1.5 8.03 1.5 11.163z"/></defs></svg>