<svg width="176" height="140" xmlns="http://www.w3.org/2000/svg"><g data-name="Canvas"><g data-name="Book"><g data-name="Canvas"><g data-name="Group 7" fill="none"><g data-name="Vector 2" fill="#fff"><path d="M12.646 105.246V6.813C45.47-7.567 73.666 8.239 83.66 17.94v99.29c-19.57-20.543-55.497-16.549-71.015-11.984zm78.904 11.983v-99.29c27.775-22.596 57.338-16.833 68.648-11.126v98.433c-33.456-10.956-59.705 3.424-68.648 11.983z" data-name="Vector"/><path d="M6.333 15.372H.81v110.417c47.974-17.119 78.379 1.426 87.585 12.839 27.143-27.39 69.173-19.972 86.795-12.839V15.372h-6.094l-1.007 101.857c-35.981-13.695-68.122 2.853-79.694 12.84-23.356-23.282-64.44-18.26-82.062-12.84V15.372z" data-name="Vector"/><path d="M12.646 6.813l-.264-.976-.546.24v.736h.81zm0 98.433h-.81v1.298l.992-.292-.182-1.006zm71.014 11.983l-.515.797 1.325 1.39v-2.187h-.81zm0-99.29h.81v-.51l-.32-.31-.49.82zm7.89 0l-.435-.869-.374.304v.566h.81zm0 99.29h-.809v2.066l1.296-1.24-.486-.826zm68.648-11.983l-.202 1 1.012.331v-1.331h-.81zm0-98.433h.81V6.11l-.512-.258-.298.96zM.81 15.372V14.34H0v1.032h.81zm5.523 0h.81V14.34h-.81v1.032zm0 101.857h-.81v1.311l1-.308-.19-1.003zm82.062 12.84l-.5.813.465.463.489-.421-.454-.855zm79.694-12.84l-.232.99 1.028.39.013-1.367-.809-.013zm1.007-101.857V14.34h-.8l-.01 1.019.81.013zm6.094 0h.81V14.34h-.81v1.032zm0 110.417l-.245.983 1.055.427v-1.41h-.81zm-86.795 12.839l-.565.74.51.632.557-.563-.502-.809zM.81 125.789H0v1.361l1.028-.367-.218-.994zM11.836 6.813v98.433h1.62V6.813h-1.62zm.992 99.439c7.72-2.272 20.467-4.397 33.759-3.399 13.3.993 26.969 5.106 36.558 15.173l1.03-1.593c-9.979-10.476-24.058-14.637-37.494-15.641-13.444-1-26.42 1.156-34.218 3.449l.365 2.011zm71.642 10.977v-99.29h-1.62v99.29h1.62zm-.32-100.11C73.993 7.259 45.519-8.68 12.383 5.837l.527 1.951C45.423-6.455 73.34 9.219 83.17 18.761l.982-1.642zm6.591.82v99.29h1.62v-99.29h-1.62zm1.296 100.116c8.764-8.389 34.763-22.68 67.959-11.809l.404-2c-33.715-11.04-60.214 3.428-69.336 12.158l.973 1.651zm68.971-12.809V6.813h-1.619v98.433h1.619zm-.512-99.393C149.007.056 119.16-5.747 91.116 17.07l.87 1.74C119.492-3.567 148.77 2.156 159.9 7.772l.596-1.919zM.81 16.404h5.523V14.34H.81v2.064zm4.713-1.032v101.857h1.62V15.372h-1.62zm1 102.86c8.772-2.699 23.334-5.293 38.65-4.316 15.323.973 31.236 5.516 42.723 16.966l.998-1.626c-11.87-11.832-28.177-16.419-43.64-17.401-15.47-.978-30.26 1.65-39.11 4.371l.38 2.006zm82.326 12.692c11.424-9.859 43.315-26.292 79.008-12.705l.463-1.978c-36.268-13.805-68.659 2.86-80.38 12.973l.909 1.71zm80.049-13.682l1.008-101.857-1.62-.026-1.007 101.857 1.619.026zm.198-100.838h6.094V14.34h-6.094v2.064zm5.284-1.032v110.417H176V15.372h-1.62zm1.055 109.433c-8.857-3.583-23.906-7.249-40.099-6.574-16.199.682-33.686 5.705-47.444 19.588l1.005 1.618c13.386-13.507 30.485-18.47 46.492-19.143 16.014-.68 30.791 2.929 39.556 6.478l.49-1.967zm-86.476 13.084c-9.45-11.716-40.17-30.293-88.368-13.094l.437 1.988c47.75-17.04 77.84 1.475 86.802 12.585l1.13-1.479zm-87.34-12.1V15.372H0v110.417h1.62z" data-name="Vector"/></g><g data-name="Group 6"><g data-name="Vector 3"><path d="M18.889 31.738c6.014-6.679 25.766-16.494 55.56.167l.65-1.89c-30.241-16.912-50.692-7.143-57.275.167l1.065 1.556z" fill="#5D5D5D" data-name="Vector"/></g><g data-name="Vector 3.1"><path d="M18.91 48.913c6.011-7.172 25.742-17.708 55.518.18l.69-1.867c-30.258-18.177-50.73-7.676-57.315.18l1.106 1.507z" fill="#5D5D5D" data-name="Vector"/></g><g data-name="Vector 3.2"><path d="M18.91 75.744c6.011-7.171 25.742-17.708 55.518.18l.69-1.867c-30.258-18.177-50.73-7.676-57.315.18l1.106 1.507z" fill="#5D5D5D" data-name="Vector"/></g><g data-name="Vector 4"><path d="M99.267 33.177c7.968-7.22 29.55-19.046 51.887-8.474l.564-1.934c-23.013-10.893-45.161 1.27-53.39 8.726l.939 1.682z" fill="#5D5D5D" data-name="Vector"/></g><g data-name="Vector 4.1"><path d="M99.267 51.064c7.968-7.22 29.55-19.046 51.887-8.473l.564-1.935c-23.013-10.893-45.161 1.27-53.39 8.726l.939 1.682z" fill="#5D5D5D" data-name="Vector"/></g><g data-name="Vector 4.2"><path d="M99.267 80.647c7.968-7.22 29.55-19.046 51.887-8.473l.564-1.935c-23.013-10.893-45.161 1.27-53.39 8.726l.939 1.682z" fill="#5D5D5D" data-name="Vector"/></g></g></g></g></g></g></svg>