<svg width="326" height="204" xmlns="http://www.w3.org/2000/svg" xmlns:xlink="http://www.w3.org/1999/xlink"><use xlink:href="#path0_fill" transform="translate(23.42 1.501)" fill="#FFF"/><use xlink:href="#path1_fill" transform="translate(169.58 2.419)" fill="#FFF"/><use xlink:href="#path2_fill" transform="translate(1.5 22.344)" fill="#FFF"/><use xlink:href="#path3_fill" fill="#FFF"/><g fill="#313131"><use xlink:href="#path4_fill" transform="translate(33.01 30.03)"/><use xlink:href="#path5_fill" transform="translate(32.98 54.03)"/><use xlink:href="#path5_fill" transform="translate(32.98 93.03)"/><use xlink:href="#path6_fill" transform="translate(182.13 26.79)"/><use xlink:href="#path6_fill" transform="translate(182.13 52.79)"/><use xlink:href="#path6_fill" transform="translate(182.13 95.79)"/></g><defs><path id="path0_fill" d="M0 151.478V8.401C60.8-12.5 113.026 10.475 131.539 24.575v144.321C95.292 139.037 28.744 144.843 0 151.478z"/><path id="path1_fill" d="M0 167.979V23.658C51.446-9.188 106.205-.811 127.154 7.484V150.56C65.185 134.636 16.564 155.538 0 167.979z"/><path id="path2_fill" d="M10.23 0H0v160.495c88.862-24.883 145.179 2.073 162.231 18.662 50.277-39.813 128.128-29.03 160.769-18.662V0h-11.288l-1.866 148.053c-66.646-19.906-126.179 4.147-147.615 18.663-43.262-33.841-119.36-26.542-152-18.663V0z"/><path id="path3_fill" d="M23.423 9.902l-.488-1.418-1.012.348v1.07h1.5zm0 143.077h-1.5v1.886l1.838-.424-.338-1.462zm131.539 17.418l-.954 1.158 2.454 2.021v-3.179h-1.5zm0-144.32h1.5v-.744l-.592-.45-.908 1.193zm14.615 0l-.807-1.265-.693.442v.822h1.5zm0 144.32h-1.5v3.003l2.401-1.803-.901-1.2zm127.154-17.418l-.374 1.453 1.874.481v-1.934h-1.5zm0-143.077h1.5v-1.02l-.948-.374-.552 1.394zM1.5 22.344v-1.5H0v1.5h1.5zm10.23 0h1.5v-1.5h-1.5v1.5zm0 148.053h-1.5v1.905l1.853-.447-.352-1.458zm152.001 18.663l-.924 1.181.86.673.905-.612-.841-1.242zm147.615-18.663l-.429 1.438 1.904.568.025-1.987-1.5-.019zm1.866-148.053v-1.5h-1.481l-.019 1.48 1.5.02zm11.288 0h1.5v-1.5h-1.5v1.5zm0 160.495l-.454 1.429 1.954.621v-2.05h-1.5zm-160.769 18.662l-1.046 1.075.944.919 1.033-.818-.931-1.176zM1.5 182.839H0v1.978l1.904-.534-.404-1.444zM21.923 9.902V152.98h3V9.902h-3zm1.838 144.539c14.3-3.303 37.91-6.391 62.53-4.941 24.635 1.444 49.954 7.422 67.717 22.055l1.907-2.315c-18.483-15.227-44.562-21.276-69.448-22.735-24.902-1.453-48.938 1.68-63.381 5.013l.675 2.923zm132.701 15.956V26.077h-3v144.32h3zm-.592-145.514C137.053 10.55 84.311-12.616 22.935 8.483l.976 2.838C84.135-9.383 135.844 13.4 154.053 27.27l1.817-2.387zm12.207 1.193v144.321h3V26.077h-3zm2.401 145.521c16.233-12.193 64.39-32.967 125.879-17.165l.747-2.906c-62.449-16.048-111.533 4.982-128.428 17.672l1.802 2.399zm127.753-18.618V9.902h-3V152.98h3zm-.948-144.471C276.002.082 220.717-8.353 168.77 24.812l1.614 2.528C221.33-5.184 275.562 3.134 296.179 11.297l1.104-2.79zM1.5 23.844h10.23v-3H1.5v3zm8.73-1.5v148.053h3V22.344h-3zm1.853 149.511c16.248-3.924 43.22-7.694 71.59-6.274 28.383 1.414 57.858 8.017 79.134 24.66l1.848-2.363c-21.986-17.198-52.191-23.866-80.832-25.293-28.654-1.421-56.052 2.399-72.444 6.354l.704 2.916zm152.489 18.447c21.161-14.33 80.232-38.215 146.345-18.467l.858-2.875c-67.179-20.066-127.175 4.157-148.885 18.857l1.682 2.485zm148.274-19.886l1.866-148.053-3-.038-1.866 148.053 3 .038zm.366-146.572H324.5v-3h-11.288v3zm9.788-1.5v160.495h3V22.344h-3zm1.954 159.065c-16.406-5.208-44.281-10.537-74.275-9.556-30.005.991-62.396 8.293-87.879 28.472l1.862 2.352c24.794-19.633 56.466-26.847 86.116-27.826 29.661-.988 57.033 4.258 73.268 9.417l.908-2.859zm-160.177 19.017c-17.504-17.029-74.405-44.031-163.681-19.032l.808 2.889c88.448-24.767 144.182 2.145 160.781 18.293l2.092-2.15zM3 182.839V22.344H0v160.495h3z"/><path id="path4_fill" d="M1.97 16.102c11.142-9.708 47.728-23.975 102.912.243l1.206-2.747C50.073-10.984 12.193 3.216 0 13.841l1.97 2.261z"/><path id="path5_fill" d="M2.05 17.067c11.136-10.424 47.682-25.74 102.835.261l1.28-2.713C50.118-11.807 12.198 3.458 0 14.876l2.05 2.19z"/><path id="path6_fill" d="M1.739 21.434C16.497 10.939 56.474-6.25 97.847 9.118l1.045-2.813C56.265-9.527 15.242 8.151 0 18.99l1.739 2.445z"/></defs></svg>