<svg width="75" height="75" xmlns="http://www.w3.org/2000/svg"><g data-name="Canvas"><g data-name="Cog"><g data-name="Canvas" fill="none"><g data-name="Cog"><g data-name="Group"><g data-name="Ellipse"><path d="M66 37.162c0 15.86-12.686 28.716-28.334 28.716S9.333 53.022 9.333 37.162c0-15.86 12.685-28.716 28.333-28.716C53.314 8.446 66 21.303 66 37.162z" fill="#fff" data-name="Vector"/></g><g data-name="Rectangle"><path d="M0 32.392a3 3 0 0 1 3-3h69a3 3 0 0 1 3 3v9.203a3 3 0 0 1-3 3H3a3 3 0 0 1-3-3v-9.203z" fill="#fff" data-name="Vector"/></g><g data-name="Rectangle"><path d="M7.787 60.629a3.049 3.049 0 0 1 0-4.271l48.819-49.48a2.952 2.952 0 0 1 4.214 0l6.393 6.48a3.05 3.05 0 0 1 0 4.27l-48.82 49.48a2.952 2.952 0 0 1-4.213 0l-6.393-6.48z" fill="#fff" data-name="Vector"/></g><g data-name="Rectangle"><path d="M33 75a3 3 0 0 1-3-3V3a3 3 0 0 1 3-3h9a3 3 0 0 1 3 3v69a3 3 0 0 1-3 3h-9z" fill="#fff" data-name="Vector"/></g><g data-name="Rectangle"><path d="M60.82 67.107a2.952 2.952 0 0 1-4.214 0L7.787 17.63a3.049 3.049 0 0 1 0-4.271l6.393-6.48a2.952 2.952 0 0 1 4.214 0l48.819 49.48a3.049 3.049 0 0 1 0 4.27l-6.393 6.48z" fill="#fff" data-name="Vector"/></g></g><g data-name="Ellipse"><path d="M52.333 36.824c0 8.397-6.716 15.203-15 15.203-8.284 0-15-6.806-15-15.203 0-8.396 6.716-15.202 15-15.202 8.284 0 15 6.806 15 15.202z" fill="#000" data-name="Vector"/></g></g></g></g></g></svg>