<svg width="185" height="185" xmlns="http://www.w3.org/2000/svg"><g data-name="Canvas"><g data-name="Cog"><g data-name="Canvas" fill="none"><g data-name="Cog"><g data-name="Group"><g data-name="Ellipse"><path d="M162.8 91.667c0 39.12-31.292 70.834-69.89 70.834s-69.888-31.715-69.888-70.834c0-39.12 31.29-70.834 69.888-70.834 38.599 0 69.89 31.714 69.89 70.834z" fill="#fff" data-name="Vector"/></g><g data-name="Rectangle"><path d="M0 79.9a7.4 7.4 0 0 1 7.4-7.4h170.2a7.4 7.4 0 0 1 7.4 7.4v22.7a7.4 7.4 0 0 1-7.4 7.4H7.4a7.4 7.4 0 0 1-7.4-7.4V79.9z" fill="#fff" data-name="Vector"/></g><g data-name="Rectangle"><path d="M19.208 149.55c-2.87-2.909-2.87-7.625 0-10.535l120.42-122.047a7.281 7.281 0 0 1 10.394 0l15.769 15.982c2.87 2.909 2.87 7.626 0 10.535L45.37 165.532a7.281 7.281 0 0 1-10.395 0L19.208 149.55z" fill="#fff" data-name="Vector"/></g><g data-name="Rectangle"><path d="M81.4 185a7.4 7.4 0 0 1-7.4-7.4V7.4A7.4 7.4 0 0 1 81.4 0h22.2a7.4 7.4 0 0 1 7.4 7.4v170.2a7.4 7.4 0 0 1-7.4 7.4H81.4z" fill="#fff" data-name="Vector"/></g><g data-name="Rectangle"><path d="M150.022 165.531a7.281 7.281 0 0 1-10.394 0L19.208 43.484c-2.87-2.909-2.87-7.626 0-10.535l15.768-15.981a7.281 7.281 0 0 1 10.395 0l120.42 122.047c2.87 2.91 2.87 7.626 0 10.535l-15.769 15.981z" fill="#fff" data-name="Vector"/></g></g><g data-name="Ellipse"><path d="M129.088 90.833c0 20.71-16.565 37.5-37 37.5-20.434 0-37-16.79-37-37.5s16.566-37.5 37-37.5c20.435 0 37 16.79 37 37.5z" fill="#4C4C4C" data-name="Vector"/></g></g></g></g></g></svg>