<svg width="75" height="75" xmlns="http://www.w3.org/2000/svg" xmlns:xlink="http://www.w3.org/1999/xlink"><use xlink:href="#path0_fill" transform="translate(9.333 8.446)" fill="#FFF"/><use xlink:href="#path1_fill" transform="translate(0 29.392)" fill="#FFF"/><use xlink:href="#path2_fill" transform="scale(.99327 1.00669) rotate(-45 72.997 22.15)" fill="#FFF"/><use xlink:href="#path3_fill" transform="rotate(-90 52.5 22.5)" fill="#FFF"/><use xlink:href="#path2_fill" transform="scale(-.99327 -1.00669) rotate(45 53.473 -105.745)" fill="#FFF"/><use xlink:href="#path4_fill" transform="translate(22.333 21.622)" fill="#333"/><defs><path id="path0_fill" d="M56.667 28.716c0 15.86-12.686 28.716-28.334 28.716S0 44.576 0 28.716C0 12.856 12.685 0 28.333 0c15.648 0 28.334 12.857 28.334 28.716z"/><path id="path1_fill" d="M0 3a3 3 0 0 1 3-3h69a3 3 0 0 1 3 3v9.203a3 3 0 0 1-3 3H3a3 3 0 0 1-3-3V3z"/><path id="path2_fill" d="M0 3a3 3 0 0 1 3-3h69.508a3 3 0 0 1 3 3v9.102a3 3 0 0 1-3 3H3a3 3 0 0 1-3-3V3z"/><path id="path3_fill" d="M0 3a3 3 0 0 1 3-3h69a3 3 0 0 1 3 3v9a3 3 0 0 1-3 3H3a3 3 0 0 1-3-3V3z"/><path id="path4_fill" d="M30 15.203c0 8.396-6.716 15.202-15 15.202-8.284 0-15-6.806-15-15.202C0 6.806 6.716 0 15 0c8.284 0 15 6.806 15 15.203z"/></defs></svg>