<svg width="188" height="44" xmlns="http://www.w3.org/2000/svg" xmlns:xlink="http://www.w3.org/1999/xlink"><use xlink:href="#path0_fill" transform="translate(.11 18.018)" fill="#003A1B"/><use xlink:href="#path1_fill" transform="translate(5.9 34.315)" fill="#045D3C"/><use xlink:href="#path2_fill" fill="#045D3C"/><use xlink:href="#path3_fill" transform="translate(.83 5.538)" fill="#299949"/><use xlink:href="#path4_fill" transform="translate(9.33 17.35)" fill="#97C93C"/><use xlink:href="#path5_fill" transform="translate(21.66 30.847)" fill="#C4D72D"/><use xlink:href="#path6_fill" transform="translate(55 5)"/><defs><path id="path0_fill" d="M14.886 4.375C6.572 3.85 2.963 1.24 2.197 0 .667 1.422-.1 4.266.01 5.469c0 2.406 2.188 4.975 6.453 6.125 12.579 3.39 24.189-.772 31.173-5.031-1.094-.766-12.36-1.532-22.75-2.188z"/><path id="path1_fill" d="M14.45 2.188C7.975 2.188 2.09.802.013 0c-.11 2.188.51 3.318.875 3.719 9.625 6.672 28.875-.93 28.438-1.203-.875-.547-6.782-.328-14.876-.328z"/><path id="path2_fill" d="M.117 23.487c-.101-1.716.844-3.635 2.297-5.631 2.05-2.818 6.13-6.437 10.718-9.573 2.769-1.891 5.63-3.63 7.915-5.019C23.921 1.518 25.882.326 25.601.08c-3.97-.687-16.367 3.063-22.094 10.5C.878 13.995-.412 18.36.117 23.487z"/><path id="path3_fill" d="M5.21 28.23c1.27-8.88 22.294-21 31.591-27.453-9.406-4.813-38.172 14-36.75 21.547.113 3.878 3.205 7.787 5.906 10.172-.893-1.215-.956-2.799-.747-4.266z"/><path id="path4_fill" d="M.304 21.668c-3.828-9.297 29.641-26.36 34.344-20.453.875.984-23.953 13.453-26.687 20.453-2.188 5.6 7.62 4.594 12.797 3.39C8.945 28.997.85 23.856.304 21.669z"/><path id="path5_fill" d="M7 9.375c-2.362 2.1-.036 2.187 1.422 1.968-6.65 2.1-8.386.292-8.422-.875.623-3.425 6.882-7.147 12.25-9.078 4.06-1.46 7.657-1.738 7.657-.984 0 1.75-9.954 6.344-12.907 8.969z"/><path id="path6_fill" d="M9.253 25.34H1.22V11.267h.818v13.379h7.104l.061-.012.244-.012a9.016 9.016 0 0 0 3.272-.867c2.36-1.196 3.54-3.292 3.54-6.287 0-2.01-.533-3.605-1.6-4.785-1.057-1.18-2.518-1.937-4.382-2.27l-.818-.11-.231-.012h-7.91v-.696h7.934l.28.012.904.122c2.116.366 3.752 1.204 4.907 2.515 1.156 1.31 1.734 3.051 1.734 5.224s-.594 3.919-1.783 5.237c-1.188 1.31-2.807 2.145-4.858 2.502l-.903.123-.281.012zm23.73.062l-7.287-14.575-7.288 14.575-.708-.366 7.996-15.992 7.995 15.992-.708.366zm-3.222-3.82h-8.142v-.697h8.142v.696zm12.658 3.05h.013l.268-.011a8.861 8.861 0 0 0 3.125-.806c2.458-1.156 3.687-3.271 3.687-6.348 0-2.01-.533-3.605-1.6-4.785-1.066-1.18-2.53-1.937-4.394-2.27l-.818-.11-.403-.012-.22.012a8.533 8.533 0 0 0-2.526.574c-2.857 1.082-4.285 3.28-4.285 6.591 0 3.011 1.217 5.111 3.65 6.3a8.5 8.5 0 0 0 3.162.854l.33.012h.011zm-.134.709l-.28-.012-.892-.123a9.386 9.386 0 0 1-2.722-.89c-2.628-1.335-3.943-3.618-3.943-6.849 0-2.173.594-3.914 1.782-5.224 1.189-1.319 2.816-2.157 4.883-2.515l.891-.122.489-.012.28.012.904.122c2.132.374 3.772 1.217 4.92 2.527 1.155 1.31 1.733 3.048 1.733 5.212 0 2.173-.594 3.919-1.783 5.237-1.18 1.31-2.803 2.145-4.87 2.502l-.916.123-.476.012zm16.7-.098V9.691h.817v15.552h-.818zm15.063 0V9.691h.818v15.552h-.818zM59.094 17.81v-.684h15.662v.684H59.094zm26.196 6.824h.013l.268-.012a8.861 8.861 0 0 0 3.125-.806c2.458-1.156 3.687-3.271 3.687-6.348 0-2.01-.533-3.605-1.6-4.785-1.065-1.18-2.53-1.937-4.394-2.27l-.818-.11-.403-.012-.22.012a8.533 8.533 0 0 0-2.526.574c-2.857 1.082-4.285 3.28-4.285 6.591 0 3.011 1.217 5.111 3.65 6.3a8.499 8.499 0 0 0 3.162.854l.33.012h.011zm-.134.708l-.28-.012-.892-.123a9.385 9.385 0 0 1-2.722-.89c-2.628-1.335-3.943-3.618-3.943-6.849 0-2.173.594-3.914 1.783-5.224 1.188-1.319 2.815-2.157 4.882-2.515l.892-.122.488-.012.28.012.904.122c2.132.374 3.772 1.217 4.92 2.527 1.155 1.31 1.733 3.048 1.733 5.212 0 2.173-.594 3.919-1.782 5.237-1.18 1.31-2.804 2.145-4.871 2.502l-.916.123-.476.012zm23.609.06l-7.276-14.574-7.312 14.587-.671-.39 7.983-15.98 7.996 15.992-.72.366zm5.639 0l-7.275-14.574-1.624 3.259-.732-.317 2.356-4.725 7.996 15.992-.721.366zm18.311-.06h-15.772V9.594h15.772v.696h-14.954v14.355h14.954v.696zm0-7.532h-13.782v-.684h13.782v.684z"/></defs></svg>