<svg width="202" height="202" xmlns="http://www.w3.org/2000/svg" xmlns:xlink="http://www.w3.org/1999/xlink"><use xlink:href="#path0_fill" transform="translate(.953 83)" fill="#003A1B"/><use xlink:href="#path1_fill" transform="translate(27.442 157.5)" fill="#045D3C"/><use xlink:href="#path2_fill" transform="translate(.466 .634)" fill="#045D3C"/><use xlink:href="#path3_fill" transform="translate(4.267 25.948)" fill="#299949"/><use xlink:href="#path4_fill" transform="translate(43.109 79.947)" fill="#97C93C"/><use xlink:href="#path5_fill" transform="translate(99.5 141.645)" fill="#C4D72D"/><defs><path id="path0_fill" d="M68.047 20c-38-2.4-54.5-14.333-58-20-7 6.5-10.5 19.5-10 25 0 11 10 22.743 29.5 28 57.5 15.5 110.575-3.53 142.5-23-5-3.5-56.5-7-104-10z"/><path id="path1_fill" d="M66.058 10c-29.6 0-56.5-6.333-66-10-.5 10 2.334 15.167 4 17 44 30.5 132-4.25 130-5.5-4-2.5-31-1.5-68-1.5z"/><path id="path2_fill" d="M.534 107.366c-.462-7.843 3.86-16.617 10.5-25.74 9.373-12.88 28.026-29.427 49-43.76 12.655-8.648 25.735-16.596 36.18-22.944C109.35 6.94 118.32 1.491 117.035.366c-18.148-3.14-74.823 14-101 48-12.02 15.611-17.917 35.563-15.5 59z"/><path id="path3_fill" d="M23.818 129.052c5.803-40.6 101.915-96 144.415-125.5-43-22-174.5 64-168 98.5.517 17.729 14.652 35.595 27 46.5-4.083-5.556-4.373-12.795-3.415-19.5z"/><path id="path4_fill" d="M1.391 99.053c-17.5-42.5 135.5-120.5 157-93.5 4 4.5-109.5 61.5-122 93.5-10 25.6 34.833 21 58.5 15.5-54 18-91-5.5-93.5-15.5z"/><path id="path5_fill" d="M32 42.855c-10.8 9.6-.167 10 6.5 9-30.4 9.6-38.333 1.333-38.5-4 2.847-15.66 31.459-32.675 56-41.5 18.556-6.673 35-7.945 35-4.5 0 8-45.5 29-59 41z"/></defs></svg>