<svg width="188" height="185" xmlns="http://www.w3.org/2000/svg"><g fill="none"><path d="M9.68 134.358h177.533l-.009 6.201h-1.963c-3.843 14.822-1.956 30.023.404 39.274h1.568V185H9.681c-12.908 0-12.908-50.642 0-50.642z" fill="#7D2D00"/><path d="M12.84 141.593L187 140.559c-4.702 15.503-1.354 32.04.527 39.274H12.84c-12.29 0-13.235-38.24 0-38.24z" fill="#DBDBDB"/><path d="M12.058 140.831l174.939-.272c-.415 2.067-1.152 6.201-2.096 10.335H4.328c1.889-8.268 7.73-10.063 7.73-10.063z" fill="#CCC"/><path d="M4.328 82.784V43.408h4.721l.945 39.376c1.888 15.4 45.327 15.4 47.216 0l.944-39.376h4.722v39.376c-4.722 25.735-53.827 26.77-58.548 0z" fill="#171717"/><path d="M57.21 43.408c0 23.973 4.721 43.408-23.608 43.408-28.33 0-23.608-19.435-23.608-43.408C9.994 19.434 4.328 0 33.602 0S57.21 19.434 57.21 43.408z" fill="#E5E5E5"/><path fill="#000" d="M11.882 24.805h43.44v4.134h-43.44z"/><path transform="translate(11.882 24.805)" fill="url(#paint0_linear)" d="M0 0h43.439v4.134H0z"/><path fill="#000" d="M11.882 41.34h43.44v4.135h-43.44z"/><path transform="translate(11.882 41.34)" fill="url(#paint1_linear)" d="M0 0h43.439v4.134H0z"/><path fill="#000" d="M11.882 49.609h43.44v4.134h-43.44z"/><path transform="translate(11.882 49.609)" fill="url(#paint2_linear)" d="M0 0h43.439v4.134H0z"/><path fill="#000" d="M11.882 57.877h43.44v4.134h-43.44z"/><path transform="translate(11.882 57.877)" fill="url(#paint3_linear)" d="M0 0h43.439v4.134H0z"/><path fill="#000" d="M17.549 66.145h3.777V76.48h-3.777z"/><path transform="translate(17.549 66.145)" fill="url(#paint4_linear)" d="M0 0h3.777v10.335H0z"/><path fill="#000" d="M25.103 66.145h3.777v14.47h-3.777z"/><path transform="translate(25.103 66.145)" fill="url(#paint5_linear)" d="M0 0h3.777v14.469H0z"/><path fill="#000" d="M32.657 66.145h3.777v14.47h-3.777z"/><path transform="translate(32.657 66.145)" fill="url(#paint6_linear)" d="M0 0h3.777v14.469H0z"/><path fill="#000" d="M40.212 66.145h3.777v14.47h-3.777z"/><path transform="translate(40.212 66.145)" fill="url(#paint7_linear)" d="M0 0h3.777v14.469H0z"/><path fill="#000" d="M47.766 66.145h3.777V76.48h-3.777z"/><path transform="translate(47.766 66.145)" fill="url(#paint8_linear)" d="M0 0h3.777v10.335H0z"/><path fill="#000" d="M17.549 10.335h3.777V20.67h-3.777z"/><path transform="translate(17.549 10.335)" fill="url(#paint9_linear)" d="M0 0h3.777v10.335H0z"/><path fill="#000" d="M25.103 6.201h3.777v14.47h-3.777z"/><path transform="translate(25.103 6.201)" fill="url(#paint10_linear)" d="M0 0h3.777v14.469H0z"/><path fill="#000" d="M32.657 6.201h3.777v14.47h-3.777z"/><path transform="translate(32.657 6.201)" fill="url(#paint11_linear)" d="M0 0h3.777v14.469H0z"/><path fill="#000" d="M40.212 6.201h3.777v14.47h-3.777z"/><path transform="translate(40.212 6.201)" fill="url(#paint12_linear)" d="M0 0h3.777v14.469H0z"/><path fill="#000" d="M47.766 10.335h3.777V20.67h-3.777z"/><path transform="translate(47.766 10.335)" fill="url(#paint13_linear)" d="M0 0h3.777v10.335H0z"/><path fill="#000" d="M11.882 33.073h43.44v4.134h-43.44z"/><path transform="translate(11.882 33.073)" fill="url(#paint14_linear)" d="M0 0h43.439v4.134H0z"/><path d="M25.103 113.687V98.184H42.1v15.503h-1.889v10.335h22.664v10.336H4.328v-10.336h22.664v-10.335h-1.89z" fill="#171717"/><path d="M94.982 64.078h-1.888v-2.067h-3.777l-6.61-6.201s-2.834 5.168-6.61 6.201c-3.778 1.034-16.999-2.067-28.33 0l-1.89-1.033v-3.1l3.778-6.202s2.346-1.828 3.777-3.1c1.28-1.139 7.675-2.068 8.5-2.068 6.61 0 6.375-3.1 12.275-3.1.945 0 2.82 1.033 2.833 1.033.015 0 1.238.48 1.89 1.034l2.832 2.067.944 1.033.945 2.067v3.101l2.833 2.067 1.888 2.067 1.889 2.067h2.833V55.81l1.888-3.1v11.368z" fill="#18733E"/><path d="M49.105 20.67h-1.889v-2.067h-3.777l-6.61-6.2s-2.834 5.167-6.61 6.2c-3.778 1.034-16.999-2.067-28.33 0L0 17.57v-3.1l3.777-6.202s2.346-1.828 3.778-3.1C8.835 4.029 15.229 3.1 16.053 3.1 22.663 3.1 22.43 0 28.33 0c.944 0 2.818 1.034 2.833 1.034.014 0 1.237.479 1.888 1.033l2.833 2.067.944 1.034.945 2.067v3.1l2.833 2.067 1.888 2.067 1.889 2.067h2.833v-4.134l1.889-3.1V20.67z" transform="translate(45.878 43.408)" fill="url(#paint15_linear)"/><path d="M60.987 89.916c-1.51-23.15 23.293-27.56 35.884-26.871 27.197 0 32.107 16.536 32.107 26.871 0 15.503-13.22 44.442-32.107 44.442-23.608 0-33.995-15.503-35.884-44.442z" fill="#BF0D0D"/><ellipse cx="9.111" cy="5.003" rx="9.111" ry="5.003" transform="matrix(.76003 -.64989 .581 .8139 70.43 80.054)" fill="#E84141"/><path d="M96.871 134.358c16.998-27.906 7.555-58.911 0-71.313 25.686 0 33.051 13.435 32.107 25.838 0 26.871-20.775 47.542-32.107 45.475z" fill="#940909"/></g><defs><linearGradient id="paint0_linear" x2="1" gradientUnits="userSpaceOnUse" gradientTransform="matrix(0 4.13408 -43.4387 0 43.439 0)"><stop offset=".365" stop-color="#1C1C1C"/><stop offset=".691" stop-color="#fff" stop-opacity="0"/></linearGradient><linearGradient id="paint1_linear" x2="1" gradientUnits="userSpaceOnUse" gradientTransform="matrix(0 4.13408 -43.4387 0 43.439 0)"><stop offset=".365" stop-color="#1C1C1C"/><stop offset=".691" stop-color="#fff" stop-opacity="0"/></linearGradient><linearGradient id="paint2_linear" x2="1" gradientUnits="userSpaceOnUse" gradientTransform="matrix(0 4.13408 -43.4387 0 43.439 0)"><stop offset=".365" stop-color="#1C1C1C"/><stop offset=".691" stop-color="#fff" stop-opacity="0"/></linearGradient><linearGradient id="paint3_linear" x2="1" gradientUnits="userSpaceOnUse" gradientTransform="matrix(0 4.13408 -43.4387 0 43.439 0)"><stop offset=".365" stop-color="#1C1C1C"/><stop offset=".691" stop-color="#fff" stop-opacity="0"/></linearGradient><linearGradient id="paint4_linear" x2="1" gradientUnits="userSpaceOnUse" gradientTransform="matrix(0 10.3352 -3.77728 0 3.777 0)"><stop/><stop offset="1" stop-color="#fff" stop-opacity="0"/></linearGradient><linearGradient id="paint5_linear" x2="1" gradientUnits="userSpaceOnUse" gradientTransform="matrix(0 14.4693 -3.77728 0 3.777 0)"><stop/><stop offset="1" stop-color="#fff" stop-opacity="0"/></linearGradient><linearGradient id="paint6_linear" x2="1" gradientUnits="userSpaceOnUse" gradientTransform="matrix(0 14.4693 -3.77728 0 3.777 0)"><stop/><stop offset="1" stop-color="#fff" stop-opacity="0"/></linearGradient><linearGradient id="paint7_linear" x2="1" gradientUnits="userSpaceOnUse" gradientTransform="matrix(0 14.4693 -3.77728 0 3.777 0)"><stop/><stop offset="1" stop-color="#fff" stop-opacity="0"/></linearGradient><linearGradient id="paint8_linear" x2="1" gradientUnits="userSpaceOnUse" gradientTransform="matrix(0 10.3352 -3.77728 0 3.777 0)"><stop/><stop offset="1" stop-color="#fff" stop-opacity="0"/></linearGradient><linearGradient id="paint9_linear" x2="1" gradientUnits="userSpaceOnUse" gradientTransform="matrix(0 10.3352 -3.77728 0 3.777 0)"><stop offset=".293" stop-color="#242424"/><stop offset=".845" stop-color="#fff" stop-opacity="0"/></linearGradient><linearGradient id="paint10_linear" x2="1" gradientUnits="userSpaceOnUse" gradientTransform="matrix(0 14.4693 -3.77728 0 3.777 0)"><stop offset=".293" stop-color="#242424"/><stop offset=".845" stop-color="#fff" stop-opacity="0"/></linearGradient><linearGradient id="paint11_linear" x2="1" gradientUnits="userSpaceOnUse" gradientTransform="matrix(0 14.4693 -3.77728 0 3.777 0)"><stop offset=".293" stop-color="#242424"/><stop offset=".845" stop-color="#fff" stop-opacity="0"/></linearGradient><linearGradient id="paint12_linear" x2="1" gradientUnits="userSpaceOnUse" gradientTransform="matrix(0 14.4693 -3.77728 0 3.777 0)"><stop offset=".293" stop-color="#242424"/><stop offset=".845" stop-color="#fff" stop-opacity="0"/></linearGradient><linearGradient id="paint13_linear" x2="1" gradientUnits="userSpaceOnUse" gradientTransform="matrix(0 10.3352 -3.77728 0 3.777 0)"><stop offset=".293" stop-color="#242424"/><stop offset=".845" stop-color="#fff" stop-opacity="0"/></linearGradient><linearGradient id="paint14_linear" x2="1" gradientUnits="userSpaceOnUse" gradientTransform="matrix(0 4.13408 -43.4387 0 43.439 0)"><stop offset=".365" stop-color="#1C1C1C"/><stop offset=".691" stop-color="#fff" stop-opacity="0"/></linearGradient><linearGradient id="paint15_linear" x2="1" gradientUnits="userSpaceOnUse" gradientTransform="matrix(0 20.6704 -49.1046 0 49.105 0)"><stop stop-color="#46EB8C"/><stop offset="1" stop-color="#fff" stop-opacity="0"/></linearGradient></defs></svg>