<svg width="297" height="293" xmlns="http://www.w3.org/2000/svg"><g fill="none"><path d="M15.332 212.793h281.172l-.013 9.821h-3.109c-6.086 23.475-3.099 47.55.639 62.201h2.483V293H15.332c-20.443 0-20.443-80.207 0-80.207z" fill="#7D2D00"/><path d="M20.337 224.252l275.83-1.637c-7.448 24.553-2.146 50.743.833 62.201H20.338c-19.466 0-20.962-60.564 0-60.564z" fill="#DBDBDB"/><path d="M19.096 223.046l277.066-.431c-.658 3.274-1.824 9.821-3.32 16.369H6.854c2.991-13.095 12.242-15.938 12.242-15.938z" fill="#CCC"/><path d="M6.854 131.112V68.749h7.478l1.496 62.363c2.991 24.39 71.789 24.39 74.78 0l1.495-62.363h7.478v62.363c-7.478 40.76-85.249 42.397-92.727 0z" fill="#000"/><path d="M0 62.363V0h7.478l1.496 62.363c2.99 24.391 71.788 24.391 74.78 0L85.248 0h7.478v62.363c-7.478 40.76-85.249 42.397-92.727 0z" transform="translate(6.854 68.749)" fill="url(#paint0_linear)"/><path d="M90.608 68.749c0 37.968 7.478 68.748-37.39 68.748s-37.39-30.78-37.39-68.748C15.828 30.779 6.854 0 53.218 0c46.363 0 37.39 30.78 37.39 68.749z" fill="#E6E6E6"/><path fill="#000" d="M18.82 39.285h68.796v6.547H18.82z"/><path transform="translate(18.82 39.285)" fill="url(#paint1_linear)" d="M0 0h68.797v6.547H0z"/><path fill="#000" d="M18.82 65.475h68.796v6.547H18.82z"/><path transform="translate(18.82 65.475)" fill="url(#paint2_linear)" d="M0 0h68.797v6.547H0z"/><path fill="#000" d="M18.82 78.57h68.796v6.547H18.82z"/><path transform="translate(18.82 78.57)" fill="url(#paint3_linear)" d="M0 0h68.797v6.547H0z"/><path fill="#000" d="M18.82 91.665h68.796v6.547H18.82z"/><path transform="translate(18.82 91.665)" fill="url(#paint4_linear)" d="M0 0h68.797v6.547H0z"/><path fill="#000" d="M27.793 104.76h5.982v16.369h-5.982z"/><path transform="translate(27.793 104.76)" fill="url(#paint5_linear)" d="M0 0h5.982v16.369H0z"/><path fill="#000" d="M39.757 104.76h5.982v22.916h-5.982z"/><path transform="translate(39.757 104.76)" fill="url(#paint6_linear)" d="M0 0h5.982v22.916H0z"/><path fill="#000" d="M51.722 104.76h5.982v22.916h-5.982z"/><path transform="translate(51.722 104.76)" fill="url(#paint7_linear)" d="M0 0h5.982v22.916H0z"/><path fill="#000" d="M63.687 104.76h5.982v22.916h-5.982z"/><path transform="translate(63.687 104.76)" fill="url(#paint8_linear)" d="M0 0h5.982v22.916H0z"/><path fill="#000" d="M75.652 104.76h5.982v16.369h-5.982z"/><path transform="translate(75.652 104.76)" fill="url(#paint9_linear)" d="M0 0h5.982v16.369H0z"/><path fill="#000" d="M27.793 16.369h5.982v16.369h-5.982z"/><path transform="translate(27.793 16.369)" fill="url(#paint10_linear)" d="M0 0h5.982v16.369H0z"/><path fill="#000" d="M39.757 9.821h5.982v22.916h-5.982z"/><path transform="translate(39.757 9.821)" fill="url(#paint11_linear)" d="M0 0h5.982v22.916H0z"/><path fill="#000" d="M51.722 9.821h5.982v22.916h-5.982z"/><path transform="translate(51.722 9.821)" fill="url(#paint12_linear)" d="M0 0h5.982v22.916H0z"/><path fill="#000" d="M63.687 9.821h5.982v22.916h-5.982z"/><path transform="translate(63.687 9.821)" fill="url(#paint13_linear)" d="M0 0h5.982v22.916H0z"/><path fill="#000" d="M75.652 16.369h5.982v16.369h-5.982z"/><path transform="translate(75.652 16.369)" fill="url(#paint14_linear)" d="M0 0h5.982v16.369H0z"/><path fill="#000" d="M18.82 52.38h68.796v6.547H18.82z"/><path transform="translate(18.82 52.38)" fill="url(#paint15_linear)" d="M0 0h68.797v6.547H0z"/><path d="M39.757 180.056v-24.553h26.921v24.553h-2.99v16.369H99.58v16.368H6.854v-16.368H42.75v-16.369h-2.992z" fill="#000"/><path d="M32.903 24.553V0h26.92v24.553h-2.99v16.369h35.894V57.29H0V40.92h35.894V24.554h-2.99z" transform="translate(6.854 155.503)" fill="url(#paint16_linear)"/><path d="M150.432 101.486h-2.991v-3.274h-5.983l-10.47-9.82s-4.486 8.183-10.468 9.82c-5.983 1.637-26.921-3.274-44.868 0l-2.991-1.637v-4.91l5.982-9.821s3.716-2.896 5.982-4.911c2.028-1.803 12.155-3.274 13.46-3.274 10.47 0 10.098-4.91 19.444-4.91 1.495 0 4.464 1.636 4.486 1.636.023 0 1.96.76 2.992 1.637l4.486 3.274 1.496 1.637 1.496 3.274v4.91l4.486 3.274 2.992 3.274 2.99 3.273h4.488v-6.547l2.99-4.91v18.005z" fill="#18733E"/><path d="M77.771 32.737H74.78v-3.273h-5.983l-10.469-9.822s-4.486 8.185-10.469 9.822c-5.982 1.637-26.92-3.274-44.868 0L0 27.827v-4.91l5.982-9.822s3.716-2.895 5.983-4.91c2.027-1.803 12.154-3.274 13.46-3.274C35.895 4.91 35.523 0 44.868 0c1.495 0 4.464 1.637 4.487 1.637.022 0 1.96.76 2.99 1.637l4.488 3.273 1.495 1.637 1.496 3.274v4.91l4.487 3.274 2.99 3.274 2.992 3.274h4.487v-6.548l2.991-4.91v18.005z" transform="translate(72.66 68.749)" fill="url(#paint17_linear)"/><path d="M96.59 142.408c-2.393-36.666 36.892-43.65 56.833-42.559 43.073 0 50.85 26.19 50.85 42.559 0 24.553-20.938 70.386-50.85 70.386-37.39 0-53.841-24.554-56.833-70.386z" fill="#BF0D0D"/><ellipse cx="14.429" cy="7.924" rx="14.429" ry="7.924" transform="matrix(.76003 -.64989 .581 .8139 111.546 126.788)" fill="#E84141"/><path d="M153.423 212.793c26.92-44.195 11.965-93.301 0-112.944 40.68 0 52.346 21.28 50.85 40.922 0 42.559-32.903 75.296-50.85 72.022z" fill="#940909"/></g><defs><linearGradient id="paint0_linear" x2="1" gradientUnits="userSpaceOnUse" gradientTransform="matrix(0 93.5498 -92.727 0 92.727 0)"><stop stop-color="#7A7A7A"/><stop offset="1" stop-color="#fff" stop-opacity="0"/></linearGradient><linearGradient id="paint1_linear" x2="1" gradientUnits="userSpaceOnUse" gradientTransform="matrix(0 6.54749 -68.7975 0 68.797 0)"><stop offset=".365" stop-color="#1C1C1C"/><stop offset=".691" stop-color="#fff" stop-opacity="0"/></linearGradient><linearGradient id="paint2_linear" x2="1" gradientUnits="userSpaceOnUse" gradientTransform="matrix(0 6.54749 -68.7975 0 68.797 0)"><stop offset=".365" stop-color="#1C1C1C"/><stop offset=".691" stop-color="#fff" stop-opacity="0"/></linearGradient><linearGradient id="paint3_linear" x2="1" gradientUnits="userSpaceOnUse" gradientTransform="matrix(0 6.54749 -68.7975 0 68.797 0)"><stop offset=".365" stop-color="#1C1C1C"/><stop offset=".691" stop-color="#fff" stop-opacity="0"/></linearGradient><linearGradient id="paint4_linear" x2="1" gradientUnits="userSpaceOnUse" gradientTransform="matrix(0 6.54749 -68.7975 0 68.797 0)"><stop offset=".365" stop-color="#1C1C1C"/><stop offset=".691" stop-color="#fff" stop-opacity="0"/></linearGradient><linearGradient id="paint5_linear" x2="1" gradientUnits="userSpaceOnUse" gradientTransform="matrix(0 16.3687 -5.98239 0 5.982 0)"><stop/><stop offset="1" stop-color="#fff" stop-opacity="0"/></linearGradient><linearGradient id="paint6_linear" x2="1" gradientUnits="userSpaceOnUse" gradientTransform="matrix(0 22.9162 -5.98239 0 5.982 0)"><stop/><stop offset="1" stop-color="#fff" stop-opacity="0"/></linearGradient><linearGradient id="paint7_linear" x2="1" gradientUnits="userSpaceOnUse" gradientTransform="matrix(0 22.9162 -5.98239 0 5.982 0)"><stop/><stop offset="1" stop-color="#fff" stop-opacity="0"/></linearGradient><linearGradient id="paint8_linear" x2="1" gradientUnits="userSpaceOnUse" gradientTransform="matrix(0 22.9162 -5.98239 0 5.982 0)"><stop/><stop offset="1" stop-color="#fff" stop-opacity="0"/></linearGradient><linearGradient id="paint9_linear" x2="1" gradientUnits="userSpaceOnUse" gradientTransform="matrix(0 16.3687 -5.98239 0 5.982 0)"><stop/><stop offset="1" stop-color="#fff" stop-opacity="0"/></linearGradient><linearGradient id="paint10_linear" x2="1" gradientUnits="userSpaceOnUse" gradientTransform="matrix(0 16.3687 -5.98239 0 5.982 0)"><stop offset=".293" stop-color="#242424"/><stop offset=".845" stop-color="#fff" stop-opacity="0"/></linearGradient><linearGradient id="paint11_linear" x2="1" gradientUnits="userSpaceOnUse" gradientTransform="matrix(0 22.9162 -5.98239 0 5.982 0)"><stop offset=".293" stop-color="#242424"/><stop offset=".845" stop-color="#fff" stop-opacity="0"/></linearGradient><linearGradient id="paint12_linear" x2="1" gradientUnits="userSpaceOnUse" gradientTransform="matrix(0 22.9162 -5.98239 0 5.982 0)"><stop offset=".293" stop-color="#242424"/><stop offset=".845" stop-color="#fff" stop-opacity="0"/></linearGradient><linearGradient id="paint13_linear" x2="1" gradientUnits="userSpaceOnUse" gradientTransform="matrix(0 22.9162 -5.98239 0 5.982 0)"><stop offset=".293" stop-color="#242424"/><stop offset=".845" stop-color="#fff" stop-opacity="0"/></linearGradient><linearGradient id="paint14_linear" x2="1" gradientUnits="userSpaceOnUse" gradientTransform="matrix(0 16.3687 -5.98239 0 5.982 0)"><stop offset=".293" stop-color="#242424"/><stop offset=".845" stop-color="#fff" stop-opacity="0"/></linearGradient><linearGradient id="paint15_linear" x2="1" gradientUnits="userSpaceOnUse" gradientTransform="matrix(0 6.54749 -68.7975 0 68.797 0)"><stop offset=".365" stop-color="#1C1C1C"/><stop offset=".691" stop-color="#fff" stop-opacity="0"/></linearGradient><linearGradient id="paint16_linear" x2="1" gradientUnits="userSpaceOnUse" gradientTransform="matrix(0 57.2905 -92.727 0 92.727 0)"><stop/><stop offset="1" stop-color="#fff" stop-opacity="0"/></linearGradient><linearGradient id="paint17_linear" x2="1" gradientUnits="userSpaceOnUse" gradientTransform="matrix(0 32.7374 -77.771 0 77.771 0)"><stop stop-color="#46EB8C"/><stop offset="1" stop-color="#fff" stop-opacity="0"/></linearGradient></defs></svg>