<svg width="83" height="168" xmlns="http://www.w3.org/2000/svg"><g fill="none"><path d="M0 103.512V54.277h6.694l1.338 49.235c2.678 19.257 64.258 19.257 66.936 0l1.338-49.235H83v49.235c-6.694 32.18-76.306 33.473-83 0z" fill="#000"/><path d="M74.968 54.277c0 29.976 6.693 54.277-33.468 54.277S8.032 84.254 8.032 54.277 0 0 41.5 0s33.468 24.3 33.468 54.277z" fill="#E6E6E6"/><path fill="#000" d="M10.71 31.015h61.58v5.17H10.71zm0 20.677h61.58v5.17H10.71zm0 10.338h61.58v5.17H10.71zm0 10.34h61.58v5.168H10.71zm8.032 10.338h5.355V95.63h-5.355z"/><path transform="translate(18.742 82.708)" fill="url(#paint0_linear)" d="M0 0h5.355v12.923H0z"/><path fill="#000" d="M29.452 82.708h5.355V100.8h-5.355z"/><path transform="translate(29.452 82.708)" fill="url(#paint1_linear)" d="M0 0h5.355v18.092H0z"/><path fill="#000" d="M40.161 82.708h5.355V100.8h-5.355z"/><path transform="translate(40.161 82.708)" fill="url(#paint2_linear)" d="M0 0h5.355v18.092H0z"/><path fill="#000" d="M50.87 82.708h5.356V100.8H50.87z"/><path transform="translate(50.87 82.708)" fill="url(#paint3_linear)" d="M0 0h5.355v18.092H0z"/><path fill="#000" d="M61.58 82.708h5.356V95.63H61.58z"/><path transform="translate(61.58 82.708)" fill="url(#paint4_linear)" d="M0 0h5.355v12.923H0z"/><path fill="#000" d="M18.742 12.923h5.355v12.923h-5.355z"/><path transform="translate(18.742 12.923)" fill="url(#paint5_linear)" d="M0 0h5.355v12.923H0z"/><path fill="#000" d="M29.452 7.754h5.355v18.092h-5.355z"/><path transform="translate(29.452 7.754)" fill="url(#paint6_linear)" d="M0 0h5.355v18.092H0z"/><path fill="#000" d="M40.161 7.754h5.355v18.092h-5.355z"/><path transform="translate(40.161 7.754)" fill="url(#paint7_linear)" d="M0 0h5.355v18.092H0z"/><path fill="#000" d="M50.87 7.754h5.356v18.092H50.87z"/><path transform="translate(50.87 7.754)" fill="url(#paint8_linear)" d="M0 0h5.355v18.092H0z"/><path fill="#000" d="M61.58 12.923h5.356v12.923H61.58z"/><path transform="translate(61.58 12.923)" fill="url(#paint9_linear)" d="M0 0h5.355v12.923H0z"/><path fill="#000" d="M10.71 41.354h61.58v5.169H10.71zm18.742 100.8v-19.385h24.096v19.385h-2.677v12.923H83V168H0v-12.923h32.129v-12.923h-2.677z"/><path d="M29.452 19.385V0h24.096v19.385h-2.677v12.923H83V45.23H0V32.308h32.129V19.385h-2.677z" transform="translate(0 122.769)" fill="url(#paint10_linear)"/></g><defs><linearGradient id="paint0_linear" x2="1" gradientUnits="userSpaceOnUse" gradientTransform="matrix(0 12.9231 -5.35484 0 5.355 0)"><stop/><stop offset="1" stop-color="#fff" stop-opacity="0"/></linearGradient><linearGradient id="paint1_linear" x2="1" gradientUnits="userSpaceOnUse" gradientTransform="matrix(0 18.0923 -5.35484 0 5.355 0)"><stop/><stop offset="1" stop-color="#fff" stop-opacity="0"/></linearGradient><linearGradient id="paint2_linear" x2="1" gradientUnits="userSpaceOnUse" gradientTransform="matrix(0 18.0923 -5.35484 0 5.355 0)"><stop/><stop offset="1" stop-color="#fff" stop-opacity="0"/></linearGradient><linearGradient id="paint3_linear" x2="1" gradientUnits="userSpaceOnUse" gradientTransform="matrix(0 18.0923 -5.35484 0 5.355 0)"><stop/><stop offset="1" stop-color="#fff" stop-opacity="0"/></linearGradient><linearGradient id="paint4_linear" x2="1" gradientUnits="userSpaceOnUse" gradientTransform="matrix(0 12.9231 -5.35484 0 5.355 0)"><stop/><stop offset="1" stop-color="#fff" stop-opacity="0"/></linearGradient><linearGradient id="paint5_linear" x2="1" gradientUnits="userSpaceOnUse" gradientTransform="matrix(0 12.9231 -5.35484 0 5.355 0)"><stop offset=".293" stop-color="#242424"/><stop offset=".845" stop-color="#fff" stop-opacity="0"/></linearGradient><linearGradient id="paint6_linear" x2="1" gradientUnits="userSpaceOnUse" gradientTransform="matrix(0 18.0923 -5.35484 0 5.355 0)"><stop offset=".293" stop-color="#242424"/><stop offset=".845" stop-color="#fff" stop-opacity="0"/></linearGradient><linearGradient id="paint7_linear" x2="1" gradientUnits="userSpaceOnUse" gradientTransform="matrix(0 18.0923 -5.35484 0 5.355 0)"><stop offset=".293" stop-color="#242424"/><stop offset=".845" stop-color="#fff" stop-opacity="0"/></linearGradient><linearGradient id="paint8_linear" x2="1" gradientUnits="userSpaceOnUse" gradientTransform="matrix(0 18.0923 -5.35484 0 5.355 0)"><stop offset=".293" stop-color="#242424"/><stop offset=".845" stop-color="#fff" stop-opacity="0"/></linearGradient><linearGradient id="paint9_linear" x2="1" gradientUnits="userSpaceOnUse" gradientTransform="matrix(0 12.9231 -5.35484 0 5.355 0)"><stop offset=".293" stop-color="#242424"/><stop offset=".845" stop-color="#fff" stop-opacity="0"/></linearGradient><linearGradient id="paint10_linear" x2="1" gradientUnits="userSpaceOnUse" gradientTransform="matrix(0 45.2308 -83 0 83 0)"><stop/><stop offset="1" stop-color="#fff" stop-opacity="0"/></linearGradient></defs></svg>