<svg width="170" height="223" xmlns="http://www.w3.org/2000/svg" xmlns:xlink="http://www.w3.org/1999/xlink"><g transform="rotate(90 84.899 84.899)" fill="#FFF"><use xlink:href="#path0_fill"/><use xlink:href="#path1_fill"/><use xlink:href="#path2_fill"/></g><use xlink:href="#path3_fill" transform="rotate(90 -25.5 65.5)" fill="#FFF"/><defs><path id="path0_fill" d="M194 81.798l-15 15c-58.8-61.6-114.5-25.667-135 0l-14.5-15c69.2-72 138.5-30 164.5 0z"/><path id="path1_fill" d="M208 65.798c-80.4-81.6-162.167-34-193 0l-15-15c92.8-92 187.333-38.333 223 0l-15 15z"/><path id="path2_fill" d="M73.5 128.298c12.167-17.333 44.4-41.6 76 0l15-16c-16.541-21.333-60.86-51.2-105.811 0l14.81 16z"/><path id="path3_fill" d="M40 20c0 11.046-8.954 20-20 20S0 31.046 0 20 8.954 0 20 0s20 8.954 20 20z"/></defs></svg>