<svg width="170" height="223" xmlns="http://www.w3.org/2000/svg"><g data-name="Canvas"><g data-name="Group 5.1" fill="#313131"><g data-name="Vector 3"><path d="M88 194l-15-15c61.6-58.8 25.667-114.5 0-135l15-14.5C160 98.7 118 168 88 194z"/><path d="M104 208c81.6-80.4 34-162.167 0-193l15-15c92 92.8 38.333 187.333 0 223l-15-15zM41.5 73.5c17.333 12.167 41.6 44.4 0 76l16 15c21.333-16.541 51.2-60.86 0-105.811l-16 14.81z"/></g><circle cx="20" cy="20" r="20" transform="rotate(90 -25.5 65.5)" data-name="Ellipse"/></g></g></svg>