<svg width="1186" height="932" xmlns="http://www.w3.org/2000/svg"><g fill="none"><path fill="#fff" d="M23 62h1163v18H23z"/><path fill="#fff" d="M271 0h18v932h-18zM20.963 864.332l2.94 15.764 2.548.252c0 .504-.158 1.055-.476 1.652h-6.44l-.084-.98c.56-.243 1.251-.439 2.072-.588l-2.996-15.708-3.696 15.932H12.06l-5.096-15.988-2.268 15.428 2.38.224c0 .523-.158 1.083-.476 1.68H.16l-.084-.98a15.11 15.11 0 0 1 2.464-.672l2.464-16.24c-1.138-.168-2.044-.364-2.716-.588l.112-1.12h6.524l4.452 15.344h.112L16.96 862.4h6.244c.318.597.476 1.176.476 1.736-1.213.13-2.118.196-2.716.196zm12.9 22.876c.709 0 1.4-.681 2.071-2.044.691-1.363 1.083-2.417 1.176-3.164h-.672l-4.424-12.32-2.352-.224c0-.523.159-1.083.476-1.68h6.44l.084.98a9.93 9.93 0 0 1-1.988.616l2.436 7.644.644 2.464h.28l3.36-10.108-2.352-.616.084-.98h6.3c.318.597.476 1.157.476 1.68-.765.093-1.53.159-2.296.196a3132.85 3132.85 0 0 1-2.184 6.356 350.316 350.316 0 0 1-2.268 6.552c-.541 1.55-1.082 2.81-1.624 3.78-.541.97-1.082 1.615-1.624 1.932a3.192 3.192 0 0 1-1.764.504 7.906 7.906 0 0 1-3.248-.672l-.504-.252c.131-2.128.215-3.295.252-3.5.15-.056.691-.084 1.624-.084l.952 2.856c.168.056.383.084.644.084zm22.699-7.084c2.78 0 4.172-1.13 4.172-3.388 0-1.101-.682-2.035-2.044-2.8a18.949 18.949 0 0 0-2.044-1.008 46.486 46.486 0 0 1-2.212-1.036 16.38 16.38 0 0 1-2.044-1.204 5.386 5.386 0 0 1-1.484-1.624c-.374-.653-.56-1.39-.56-2.212 0-1.344.54-2.483 1.624-3.416 1.1-.952 2.604-1.428 4.508-1.428s3.91.579 6.02 1.736c0 1.064-.131 2.399-.392 4.004-.411.056-.952.084-1.624.084l-.84-3.248c-.224-.112-.672-.224-1.344-.336a10.412 10.412 0 0 0-1.736-.168c-1.083 0-1.923.233-2.52.7-.598.448-.896 1.083-.896 1.904 0 .803.345 1.53 1.036 2.184.709.635 1.558 1.185 2.548 1.652 1.008.448 2.006.915 2.996 1.4a7.936 7.936 0 0 1 2.548 1.904c.709.765 1.064 1.661 1.064 2.688 0 1.867-.626 3.313-1.876 4.34-1.251 1.008-2.884 1.512-4.9 1.512-1.102 0-2.296-.168-3.584-.504-1.27-.355-2.324-.803-3.164-1.344.037-1.25.177-2.697.42-4.34.41-.056.952-.084 1.624-.084l.588 3.36c.41.168 1.026.327 1.848.476.84.13 1.596.196 2.268.196zm22.742 6.02c-.989-.392-1.792-.672-2.408-.84-.597-.168-1.129-.252-1.596-.252-.448 0-1.166.112-2.156.336-.97.243-1.502.364-1.596.364a1.764 1.764 0 0 1-.672-1.288c2.035-1.008 3.594-1.512 4.676-1.512 1.027 0 2.492.373 4.396 1.12.766.317 1.475.55 2.128.7.672.168 1.83.27 3.472.308 0 .803-.345 1.652-1.036 2.548-.989-.056-2.072-.299-3.248-.728a70.56 70.56 0 0 1-1.96-.756zm-2.464-5.964c3.771 0 5.656-2.65 5.656-7.952 0-5.32-1.885-7.98-5.656-7.98-1.773 0-3.22.261-4.34.784-1.008 1.997-1.512 4.303-1.512 6.916 0 2.595.43 4.62 1.288 6.076.878 1.437 2.399 2.156 4.564 2.156zm-8.596-7.868c0-3.285.672-5.815 2.016-7.588 1.363-1.792 3.566-2.688 6.608-2.688 3.062 0 5.218.821 6.468 2.464 1.27 1.624 1.904 4.088 1.904 7.392 0 3.304-.681 5.88-2.044 7.728-1.344 1.83-3.5 2.744-6.468 2.744-2.949 0-5.105-.85-6.468-2.548-1.344-1.717-2.016-4.219-2.016-7.504zm35.775 5.292c.056.112.131.541.224 1.288.112.747.168 1.381.168 1.904 0 .504-.028.905-.084 1.204h-13.3l-.084-.98c.878-.317 1.671-.532 2.38-.644a2896.2 2896.2 0 0 0-.28-16.268c-.485-.075-1.306-.299-2.464-.672l.14-1.036h6.748c.318.523.476 1.073.476 1.652-1.008.037-1.736.065-2.184.084-.037 3.584-.074 6.85-.112 9.8a730.54 730.54 0 0 1-.056 6.188h6.132l.672-2.66c.934 0 1.475.047 1.624.14zm12.399-15.204c.504-.056.886-.084 1.148-.084.261 0 .69.047 1.288.14L111.182 882a5.857 5.857 0 0 1-1.092.112c-.336 0-.654-.019-.952-.056l7.28-19.656zm14.902 0c2.371 0 4.125.392 5.264 1.176 1.157.765 1.736 2.128 1.736 4.088s-.569 3.519-1.708 4.676c-1.139 1.139-2.977 1.708-5.516 1.708h-2.352l-.084 6.076 2.184.196c0 .523-.159 1.083-.476 1.68h-6.3l-.084-.952a13.57 13.57 0 0 1 2.408-.672c-.112-7.28-.205-12.693-.28-16.24-.504-.093-1.325-.317-2.464-.672l.14-1.064h7.532zm-.504 9.828c1.605-.019 2.828-.42 3.668-1.204.84-.803 1.26-1.857 1.26-3.164 0-1.307-.411-2.212-1.232-2.716-.821-.523-2.137-.784-3.948-.784-.336 0-.905.01-1.708.028l-.084 7.868 2.044-.028zm18.625 8.428c1.568 0 2.623-.485 3.164-1.456.56-.99.84-2.39.84-4.2 0-2.875-.634-4.676-1.904-5.404-.522-.299-1.26-.448-2.212-.448-.933 0-1.82.196-2.66.588-.746 1.437-1.12 3.108-1.12 5.012 0 1.83.243 3.239.728 4.228.56 1.12 1.615 1.68 3.164 1.68zM142.973 875c0-2.37.542-4.219 1.624-5.544 1.083-1.344 2.754-2.016 5.012-2.016 2.259 0 3.892.616 4.9 1.848 1.008 1.213 1.512 3.015 1.512 5.404 0 2.39-.541 4.265-1.624 5.628-1.064 1.363-2.688 2.044-4.872 2.044-2.184 0-3.826-.635-4.928-1.904-1.082-1.27-1.624-3.09-1.624-5.46zm20.471 5.208c.653.28 1.446.42 2.38.42.952 0 1.698-.177 2.24-.532.541-.355.812-.84.812-1.456s-.252-1.13-.756-1.54c-.504-.41-1.12-.775-1.848-1.092a56.8 56.8 0 0 1-2.184-1.008 5.767 5.767 0 0 1-1.848-1.4 2.976 2.976 0 0 1-.756-2.016c0-1.288.429-2.296 1.288-3.024.858-.747 2.044-1.12 3.556-1.12 1.53 0 2.968.345 4.312 1.036.018.187.028.69.028 1.512 0 .803-.084 1.493-.252 2.072-.448.15-.98.224-1.596.224l-.924-2.856c-.411-.205-.971-.308-1.68-.308-.691 0-1.242.187-1.652.56-.411.355-.616.812-.616 1.372 0 .541.252 1.017.756 1.428.522.41 1.148.784 1.876 1.12.728.317 1.456.663 2.184 1.036.728.355 1.344.83 1.848 1.428.522.579.784 1.25.784 2.016 0 1.344-.523 2.399-1.568 3.164-1.027.747-2.296 1.12-3.808 1.12-.822 0-1.699-.13-2.632-.392-.934-.28-1.718-.635-2.352-1.064 0-1.25.112-2.361.336-3.332.429-.075 1.008-.112 1.736-.112l.336 2.744zm15.488.056l-.224-10.556h-2.156l-.084-.98c.187-.13.728-.373 1.624-.728l2.296-3.584c.373.037.663.13.868.28l-.028 3.08c1.4 0 2.548.093 3.444.28 0 .504-.159 1.055-.476 1.652h-3.024c-.037 2.24-.075 5.637-.112 10.192 1.045.056 2.091.243 3.136.56l-.028.98c-.261.168-.933.364-2.016.588-1.064.224-1.941.336-2.632.336-.093-.15-.215-.467-.364-.952-.149-.504-.224-.887-.224-1.148zm18.134.028l2.492-.056c2.576 0 3.864 1.064 3.864 3.192 0 .99-.429 1.904-1.288 2.744a8.01 8.01 0 0 1-3.024 1.932c-1.176.43-2.277.644-3.304.644a8.72 8.72 0 0 1-2.828-.448 5.198 5.198 0 0 1-2.24-1.4c-.616-.653-.924-1.41-.924-2.268 0-.205.327-.747.98-1.624.672-.859 1.111-1.363 1.316-1.512-.168-.112-.494-.43-.98-.952-.485-.541-.756-.915-.812-1.12.467-.859 1.204-1.699 2.212-2.52-1.493-.896-2.24-2.37-2.24-4.424 0-1.643.523-2.893 1.568-3.752 1.046-.859 2.352-1.288 3.92-1.288s2.782.252 3.64.756a22.386 22.386 0 0 1 4.396-.448c.355 0 .532.215.532.644 0 .747-.14 1.26-.42 1.54l-3.22-.532c.672.859 1.008 1.885 1.008 3.08 0 1.867-.55 3.21-1.652 4.032-1.101.803-2.454 1.204-4.06 1.204-.504 0-1.101-.065-1.792-.196-.28.579-.634 1.204-1.064 1.876.336.597 1.643.896 3.92.896zm3.556 5.152c.187-.523.28-1.064.28-1.624 0-.541-.214-.98-.644-1.316-.429-.336-.98-.504-1.652-.504-2.669 0-4.302-.028-4.9-.084-.504.803-.858 1.475-1.064 2.016-.186.56-.28.877-.28.952 0 .728.346 1.27 1.036 1.624.691.355 1.484.532 2.38.532.915 0 1.83-.15 2.744-.448.934-.299 1.634-.681 2.1-1.148zm-1.428-12.852c0-2.315-1.064-3.472-3.192-3.472s-3.192 1.12-3.192 3.36c0 1.139.28 2.016.84 2.632.56.616 1.372.924 2.436.924 2.072 0 3.108-1.148 3.108-3.444zm18.344-2.8c-.094-.093-.299-.14-.616-.14-.318 0-.794.112-1.428.336a9.971 9.971 0 0 0-1.68.784c-.112 4.144-.187 7.252-.224 9.324l2.352.224c0 .523-.159 1.083-.476 1.68h-6.44l-.084-.98a16.803 16.803 0 0 1 2.52-.672c-.112-4.741-.206-8.25-.28-10.528-1.027-.056-1.848-.168-2.464-.336l.112-1.456c.989-.28 2.454-.42 4.396-.42.298.467.485 1.064.56 1.792 2.146-1.307 3.425-1.96 3.836-1.96.41 0 .886.084 1.428.252.541.15.942.317 1.204.504 0 1.867-.178 3.388-.532 4.564a3.39 3.39 0 0 1-.924.112c-.336 0-.57-.01-.7-.028l-.56-3.052zm14.174 10.64c.821 0 2.109-.392 3.864-1.176.355.485.541.915.56 1.288-.952.56-1.885.999-2.8 1.316-.915.317-1.568.476-1.96.476-2.165 0-3.817-.644-4.956-1.932-1.139-1.307-1.708-3.127-1.708-5.46s.551-4.163 1.652-5.488c1.12-1.344 2.791-2.016 5.012-2.016 1.717 0 3.024.616 3.92 1.848.915 1.232 1.372 2.884 1.372 4.956-.149.261-.271.439-.364.532l-9.016-.14c.019 1.885.345 3.323.98 4.312.653.99 1.801 1.484 3.444 1.484zm2.408-7.392c0-1.232-.224-2.184-.672-2.856-.448-.69-1.195-1.036-2.24-1.036-1.045 0-1.979.196-2.8.588a10.658 10.658 0 0 0-1.064 3.444c1.475-.019 3.733-.065 6.776-.14zM118.27 44.024c2.397 0 3.596-1.023 3.596-3.069 0-.868-.455-1.602-1.364-2.201-.662-.455-1.571-.94-2.729-1.457a61.79 61.79 0 0 1-2.573-1.271c-.558-.31-1.209-.744-1.953-1.302-1.426-1.095-2.139-2.46-2.139-4.092 0-1.633.63-2.986 1.891-4.061 1.282-1.095 3.007-1.643 5.177-1.643 2.17 0 4.485.692 6.944 2.077 0 1.488-.155 3.1-.465 4.836-.66.207-1.643.31-2.945.31l-.899-3.689a8.784 8.784 0 0 0-2.51-.341c-.91 0-1.613.196-2.109.589-.496.393-.744.982-.744 1.767 0 .765.383 1.457 1.147 2.077.786.6 1.726 1.157 2.821 1.674 1.096.496 1.85.847 2.263 1.054.414.207.94.517 1.581.93.641.413 1.127.806 1.457 1.178.848.992 1.271 2.098 1.271 3.317 0 2.15-.713 3.803-2.139 4.96-1.426 1.157-3.286 1.736-5.58 1.736-1.219 0-2.562-.207-4.03-.62-1.446-.434-2.676-.982-3.689-1.643.042-1.26.207-2.966.496-5.115.827-.165 1.82-.248 2.976-.248l.651 3.72a12.11 12.11 0 0 0 3.596.527zm19.227-2.387l-.031 2.387 2.418.279c0 .847-.238 1.746-.713 2.697h-7.719l-.279-1.705c1.281-.475 2.211-.785 2.79-.93l-.589-17.205c-.971-.103-1.788-.258-2.449-.465 0-.765.072-1.509.217-2.232 1.22-.33 3.307-.496 6.262-.496.393 0 .64.01.744.031 0 1.075-.134 2.015-.403 2.821-.124 4.96-.186 8.639-.186 11.036l3.689-3.658-1.922-.248c0-.847.238-1.746.713-2.697h7.719l.279 1.705c-1.281.475-2.211.785-2.79.93l-3.41 3.41 4.34 6.727 2.418.279c0 .847-.238 1.746-.713 2.697h-3.968l-4.588-7.192-1.829 1.829zm21.973-10.509c.393 0 .641.01.744.031a7.447 7.447 0 0 1-.527 2.821c-.082 4.464-.134 7.812-.155 10.044l2.418.279c0 .847-.237 1.746-.713 2.697h-7.719l-.279-1.705c1.282-.475 2.212-.785 2.79-.93l-.34-10.044c-1.22-.124-2.119-.279-2.698-.465 0-.517.073-1.26.217-2.232 1.22-.33 3.307-.496 6.262-.496zm0-5.859c.186.93.28 1.643.28 2.139 0 .475-.042 1.013-.125 1.612-.826.186-1.529.279-2.108.279-.558 0-1.24-.031-2.046-.093-.186-.93-.279-1.633-.279-2.108 0-.496.042-1.044.124-1.643.827-.186 1.52-.279 2.077-.279.58 0 1.271.031 2.077.093zm12.606-1.302c.392 0 .64.01.744.031 0 1.075-.135 2.015-.403 2.821l-.093 5.425c-.083 5.125-.145 9.052-.186 11.78l2.418.279c0 .847-.238 1.746-.713 2.697h-7.72l-.278-1.705c1.28-.475 2.21-.785 2.79-.93l-.59-17.205c-.97-.103-1.787-.258-2.448-.465 0-.765.072-1.509.217-2.232 1.219-.33 3.306-.496 6.262-.496zm12.552 0c.393 0 .64.01.744.031 0 1.075-.134 2.015-.403 2.821-.02 1.281-.051 3.09-.093 5.425-.082 5.125-.144 9.052-.186 11.78l2.418.279c0 .847-.237 1.746-.713 2.697h-7.72l-.278-1.705c1.282-.475 2.212-.785 2.79-.93l-.59-17.205c-.97-.103-1.786-.258-2.448-.465 0-.765.073-1.509.217-2.232 1.22-.33 3.307-.496 6.262-.496zm17.854 8.246l.03.961c0 1.612-.123 2.666-.371 3.162-.682.248-1.633.372-2.852.372l-.992-3.131c-.27-.103-.641-.155-1.116-.155-.475 0-.868.145-1.178.434a1.4 1.4 0 0 0-.434 1.023c0 .393.155.754.465 1.085.31.31.63.558.96.744.332.186.807.434 1.427.744.64.29 1.116.517 1.426.682.33.165.744.413 1.24.744.517.33.909.64 1.178.93.66.785.992 1.643.992 2.573 0 1.591-.61 2.821-1.83 3.689-1.198.868-2.675 1.302-4.432 1.302-.93 0-1.953-.165-3.07-.496-1.094-.33-2.024-.775-2.79-1.333 0-1.488.146-2.873.435-4.154.827-.103 1.498-.155 2.015-.155.517 0 .868.01 1.054.031l.372 3.007c.517.186 1.137.279 1.86.279.723 0 1.292-.145 1.705-.434.434-.29.65-.692.65-1.209 0-.537-.237-.982-.712-1.333s-1.126-.713-1.953-1.085a40.873 40.873 0 0 1-1.922-.961c-.455-.269-.94-.61-1.457-1.023-1.054-.806-1.581-1.798-1.581-2.976 0-1.467.506-2.604 1.519-3.41 1.033-.827 2.418-1.24 4.154-1.24 1.736 0 3.472.444 5.208 1.333zm14.264 12.121c.703 0 2.129-.486 4.278-1.457.455.661.796 1.426 1.023 2.294-1.136.703-2.252 1.25-3.348 1.643-1.074.372-1.84.558-2.294.558-2.5 0-4.402-.692-5.704-2.077-1.281-1.385-1.922-3.348-1.922-5.89 0-2.563.64-4.619 1.922-6.169 1.282-1.57 3.183-2.356 5.704-2.356 2.005 0 3.534.651 4.588 1.953 1.054 1.302 1.58 2.997 1.58 5.084 0 .434-.247.93-.743 1.488l-8.928-.155c.042 1.653.352 2.914.93 3.782.579.868 1.55 1.302 2.914 1.302zm-.62-10.881c-.785 0-1.52.155-2.201.465-.475.992-.775 1.912-.9 2.759 1.613-.062 3.442-.103 5.488-.124-.103-2.067-.9-3.1-2.387-3.1zm15.399 13.919l-.682-.031c-.124-.227-.29-.651-.496-1.271-.207-.62-.321-1.085-.341-1.395-.104-2.046-.217-5.59-.341-10.633h-2.17l.093-1.767a8.72 8.72 0 0 1 1.705-.899l2.51-3.968c.807.083 1.437.3 1.892.651l-.031 2.945c1.302.041 2.51.165 3.627.372 0 .827-.26 1.715-.775 2.666h-2.883c-.083 4.34-.135 7.595-.155 9.765.826.083 1.953.32 3.379.713l-.031 1.612c-.352.227-1.137.496-2.356.806-1.2.29-2.181.434-2.945.434zm-78.885 115.4l9.128.028a393.643 393.643 0 0 0-.168-6.748c-.69-.13-1.521-.355-2.492-.672l.084-.98h7c.317.597.476 1.157.476 1.68-.933.075-1.68.112-2.24.112l-.308 15.904 2.352.224c0 .523-.159 1.083-.476 1.68h-6.44l-.084-.98a17.498 17.498 0 0 1 2.576-.672l-.224-7.784h-9.24c-.037 3.36-.056 5.87-.056 7.532l2.352.224c0 .523-.159 1.083-.476 1.68h-6.44l-.084-.98a17.498 17.498 0 0 1 2.576-.672c-.187-7.243-.336-12.675-.448-16.296-.69-.13-1.521-.355-2.492-.672l.084-.98h7c.317.597.476 1.157.476 1.68-.933.075-1.68.112-2.24.112a508.226 508.226 0 0 0-.196 6.58zm28.144-6.636c-.093 3.136-.196 8.456-.308 15.96l2.352.224c0 .523-.16 1.083-.476 1.68h-6.44l-.084-.98c1.083-.392 1.94-.616 2.576-.672-.187-7.205-.336-12.61-.448-16.212h-4.088l-.672 2.856-1.624-.112a14.487 14.487 0 0 1-.42-3.472c0-.224.019-.56.056-1.008h16.128c.037.243.056.616.056 1.12 0 1.008-.131 2.11-.392 3.304-.411.112-.952.168-1.624.168l-.7-2.856h-3.892zm31.587.196l2.94 15.764 2.548.252c0 .504-.16 1.055-.476 1.652h-6.44l-.084-.98c.56-.243 1.25-.439 2.072-.588l-2.996-15.708-3.696 15.932h-2.772l-5.096-15.988-2.268 15.428 2.38.224c0 .523-.16 1.083-.476 1.68h-6.44l-.084-.98a15.083 15.083 0 0 1 2.464-.672l2.464-16.24c-1.14-.168-2.044-.364-2.716-.588l.112-1.12h6.524l4.452 15.344h.112l3.472-15.344h6.244c.317.597.476 1.176.476 1.736-1.214.13-2.12.196-2.716.196zm24.35 13.272c.057.112.13.541.225 1.288.112.747.168 1.381.168 1.904 0 .504-.028.905-.084 1.204h-13.3l-.084-.98c.877-.317 1.67-.532 2.38-.644-.112-7.355-.206-12.777-.28-16.268-.486-.075-1.307-.299-2.464-.672l.14-1.036h6.748c.317.523.476 1.073.476 1.652-1.008.037-1.736.065-2.184.084-.038 3.584-.075 6.85-.112 9.8-.02 2.93-.038 4.993-.056 6.188h6.132l.672-2.66c.933 0 1.474.047 1.624.14zm-44.813 104.76c-5.488 0-8.232-3.444-8.232-10.332 0-3.267.662-5.75 1.988-7.448 1.344-1.699 3.48-2.548 6.412-2.548 2.352 0 4.442.653 6.272 1.96 0 1.045-.131 2.37-.392 3.976-.262.056-.803.084-1.624.084l-.84-3.472c-1.326-.243-2.39-.364-3.192-.364-1.475 0-2.772.205-3.892.616l-.532.196a8.612 8.612 0 0 0-.42.84c-.168.355-.392 1.11-.672 2.268a16.054 16.054 0 0 0-.392 3.556c0 2.632.429 4.723 1.288 6.272.877 1.55 2.268 2.324 4.172 2.324 1.362 0 2.389-.14 3.08-.42.186-.093.457-.233.812-.42l.588-3.36 1.624.084c.28 1.923.42 3.481.42 4.676-.392.299-1.242.625-2.548.98a14.701 14.701 0 0 1-3.92.532zm18.838-2.24c2.782 0 4.172-1.13 4.172-3.388 0-1.101-.681-2.035-2.044-2.8a18.921 18.921 0 0 0-2.044-1.008 46.625 46.625 0 0 1-2.212-1.036 16.432 16.432 0 0 1-2.044-1.204 5.39 5.39 0 0 1-1.484-1.624c-.373-.653-.56-1.39-.56-2.212 0-1.344.542-2.483 1.624-3.416 1.102-.952 2.604-1.428 4.508-1.428s3.91.579 6.02 1.736c0 1.064-.13 2.399-.392 4.004-.41.056-.952.084-1.624.084l-.84-3.248c-.224-.112-.672-.224-1.344-.336a10.41 10.41 0 0 0-1.736-.168c-1.082 0-1.922.233-2.52.7-.597.448-.896 1.083-.896 1.904 0 .803.346 1.53 1.036 2.184.71.635 1.559 1.185 2.548 1.652 1.008.448 2.007.915 2.996 1.4a7.924 7.924 0 0 1 2.548 1.904c.71.765 1.064 1.661 1.064 2.688 0 1.867-.625 3.313-1.876 4.34-1.25 1.008-2.884 1.512-4.9 1.512-1.101 0-2.296-.168-3.584-.504-1.27-.355-2.324-.803-3.164-1.344.038-1.25.178-2.697.42-4.34.41-.056.952-.084 1.624-.084l.588 3.36c.41.168 1.027.327 1.848.476.84.13 1.596.196 2.268.196zm19.13 0c2.783 0 4.173-1.13 4.173-3.388 0-1.101-.681-2.035-2.044-2.8a18.921 18.921 0 0 0-2.044-1.008 46.625 46.625 0 0 1-2.212-1.036 16.432 16.432 0 0 1-2.044-1.204 5.39 5.39 0 0 1-1.484-1.624c-.373-.653-.56-1.39-.56-2.212 0-1.344.542-2.483 1.624-3.416 1.102-.952 2.604-1.428 4.508-1.428s3.91.579 6.02 1.736c0 1.064-.13 2.399-.392 4.004-.41.056-.952.084-1.624.084l-.84-3.248c-.224-.112-.672-.224-1.344-.336a10.41 10.41 0 0 0-1.736-.168c-1.082 0-1.922.233-2.52.7-.597.448-.896 1.083-.896 1.904 0 .803.346 1.53 1.036 2.184.71.635 1.559 1.185 2.548 1.652 1.008.448 2.007.915 2.996 1.4a7.924 7.924 0 0 1 2.548 1.904c.71.765 1.064 1.661 1.064 2.688 0 1.867-.625 3.313-1.876 4.34-1.25 1.008-2.884 1.512-4.9 1.512-1.101 0-2.296-.168-3.584-.504-1.27-.355-2.324-.803-3.164-1.344.038-1.25.178-2.697.42-4.34.41-.056.952-.084 1.624-.084l.588 3.36c.41.168 1.027.327 1.848.476.84.13 1.596.196 2.268.196zm-94.517 99.832c.504.187 1.167.28 1.988.28s1.465-.233 1.932-.7c.485-.485.728-1.344.728-2.576 0-1.25-.019-2.576-.056-3.976a303.62 303.62 0 0 0-.168-4.76c-.075-1.792-.13-3.183-.168-4.172-.56-.075-1.381-.299-2.464-.672l.084-.98h7c.317.597.476 1.157.476 1.68-.224.075-.97.112-2.24.112-.037 1.661-.084 4.023-.14 7.084-.037 3.061-.065 5.077-.084 6.048-.037 1.587-.42 2.828-1.148 3.724-.71.877-1.755 1.316-3.136 1.316-1.008 0-2.044-.14-3.108-.42-1.064-.28-1.783-.56-2.156-.84.019-1.419.168-2.95.448-4.592.299-.13.85-.196 1.652-.196l.56 3.64zm24.888 6.188c-.989-.392-1.792-.672-2.408-.84-.597-.168-1.129-.252-1.596-.252-.448 0-1.166.112-2.156.336-.97.243-1.502.364-1.596.364a1.764 1.764 0 0 1-.672-1.288c2.035-1.008 3.594-1.512 4.676-1.512 1.027 0 2.492.373 4.396 1.12.766.317 1.475.55 2.128.7.672.168 1.83.27 3.472.308 0 .803-.345 1.652-1.036 2.548-.989-.056-2.072-.299-3.248-.728a70.69 70.69 0 0 1-1.96-.756zm-2.464-5.964c3.771 0 5.656-2.65 5.656-7.952 0-5.32-1.885-7.98-5.656-7.98-1.773 0-3.22.261-4.34.784-1.008 1.997-1.512 4.303-1.512 6.916 0 2.595.43 4.62 1.288 6.076.878 1.437 2.399 2.156 4.564 2.156zm-8.596-7.868c0-3.285.672-5.815 2.016-7.588 1.363-1.792 3.566-2.688 6.608-2.688 3.062 0 5.218.821 6.468 2.464 1.27 1.624 1.904 4.088 1.904 7.392 0 3.304-.681 5.88-2.044 7.728-1.344 1.83-3.5 2.744-6.468 2.744-2.949 0-5.105-.85-6.468-2.548-1.344-1.717-2.016-4.219-2.016-7.504zm28.635 7.84c.542 0 1.148-.112 1.82-.336.672-.243 1.223-.532 1.652-.868-.074-3.976-.14-6.99-.196-9.044-1.157 0-2.016-.112-2.576-.336l.112-1.456c1.587-.28 2.828-.42 3.724-.42.915 0 1.494.019 1.736.056 0 .336-.056.784-.168 1.344-.093.56-.158.868-.196.924l-.336 9.996c.99.056 1.792.168 2.408.336l-.056 1.428a7.832 7.832 0 0 1-2.38.392c-.765 0-1.232-.01-1.4-.028-.354-.71-.56-1.363-.616-1.96-.914.69-1.764 1.223-2.548 1.596-.765.373-1.27.56-1.512.56-1.642 0-2.837-.439-3.584-1.316-.728-.896-1.092-2.203-1.092-3.92l.252-7.168c-1.082 0-2.081-.121-2.996-.364l.112-1.456c1.587-.28 2.819-.42 3.696-.42.878 0 1.438.019 1.68.056 0 .448-.056.943-.168 1.484-.112.541-.177.803-.196.784l.028 6.048c0 1.419.178 2.455.532 3.108.355.653 1.11.98 2.268.98zm19.62.28c.822 0 2.11-.392 3.865-1.176.354.485.54.915.56 1.288a15.7 15.7 0 0 1-2.8 1.316c-.915.317-1.568.476-1.96.476-2.166 0-3.818-.644-4.956-1.932-1.14-1.307-1.708-3.127-1.708-5.46s.55-4.163 1.652-5.488c1.12-1.344 2.79-2.016 5.012-2.016 1.717 0 3.024.616 3.92 1.848.914 1.232 1.372 2.884 1.372 4.956-.15.261-.271.439-.364.532l-9.016-.14c.018 1.885.345 3.323.98 4.312.653.99 1.8 1.484 3.444 1.484zm2.409-7.392c0-1.232-.224-2.184-.672-2.856-.448-.69-1.195-1.036-2.24-1.036-1.046 0-1.98.196-2.8.588a10.658 10.658 0 0 0-1.064 3.444c1.474-.019 3.733-.065 6.776-.14zm16.484-3.248c-.094-.093-.3-.14-.616-.14-.318 0-.794.112-1.428.336a9.971 9.971 0 0 0-1.68.784c-.112 4.144-.187 7.252-.224 9.324l2.352.224c0 .523-.16 1.083-.476 1.68h-6.44l-.084-.98a16.803 16.803 0 0 1 2.52-.672c-.112-4.741-.206-8.25-.28-10.528-1.027-.056-1.848-.168-2.464-.336l.112-1.456c.989-.28 2.454-.42 4.396-.42.298.467.485 1.064.56 1.792 2.146-1.307 3.425-1.96 3.836-1.96.41 0 .886.084 1.428.252.54.15.942.317 1.204.504 0 1.867-.178 3.388-.532 4.564a3.39 3.39 0 0 1-.924.112c-.336 0-.57-.01-.7-.028l-.56-3.052zm9.974 17.416c.709 0 1.4-.681 2.072-2.044.69-1.363 1.082-2.417 1.176-3.164h-.672l-4.424-12.32-2.352-.224c0-.523.158-1.083.476-1.68h6.44l.084.98a9.943 9.943 0 0 1-1.988.616l2.436 7.644.644 2.464h.28l3.36-10.108-2.352-.616.084-.98h6.3c.317.597.476 1.157.476 1.68-.766.093-1.531.159-2.296.196a5262.19 5262.19 0 0 1-2.184 6.356 350.316 350.316 0 0 1-2.268 6.552c-.542 1.55-1.083 2.81-1.624 3.78-.542.97-1.083 1.615-1.624 1.932a3.194 3.194 0 0 1-1.764.504 7.904 7.904 0 0 1-3.248-.672l-.504-.252c.13-2.128.214-3.295.252-3.5.149-.056.69-.084 1.624-.084l.952 2.856c.168.056.382.084.644.084zm-93.935 78.664l-.28 14.224 2.352.224c0 .523-.159 1.083-.476 1.68h-6.44l-.084-.98c1.008-.336 1.867-.56 2.576-.672a1554.83 1554.83 0 0 1-.196-7.504c-.075-3.79-.14-6.72-.196-8.792-.71-.112-1.55-.336-2.52-.672l.084-.98h5.544l10.22 16.324-.476-14.672c-.69-.13-1.521-.355-2.492-.672l.084-.98h7c.317.597.476 1.157.476 1.68-.933.075-1.68.112-2.24.112L145.03 474h-2.716l-9.94-16.128zm26.436 14.784c1.568 0 2.623-.485 3.164-1.456.56-.99.84-2.39.84-4.2 0-2.875-.634-4.676-1.904-5.404-.522-.299-1.26-.448-2.212-.448-.933 0-1.82.196-2.66.588-.746 1.437-1.12 3.108-1.12 5.012 0 1.83.243 3.239.728 4.228.56 1.12 1.615 1.68 3.164 1.68zM152.342 467c0-2.37.542-4.219 1.624-5.544 1.083-1.344 2.754-2.016 5.012-2.016 2.259 0 3.892.616 4.9 1.848 1.008 1.213 1.512 3.015 1.512 5.404 0 2.39-.541 4.265-1.624 5.628-1.064 1.363-2.688 2.044-4.872 2.044-2.184 0-3.826-.635-4.928-1.904-1.082-1.27-1.624-3.09-1.624-5.46zm27.779-5.964l-.084-5.6c-1.027-.056-1.848-.168-2.464-.336l.112-1.456c.952-.28 2.333-.42 4.144-.42.579 0 .989.019 1.232.056 0 .336-.056.784-.168 1.344-.093.541-.16.84-.196.896l-.252 16.548c.765.037 1.577.168 2.436.392l-.056.98c-1.288.597-2.427.896-3.416.896a3.08 3.08 0 0 1-.476-.028c-.15-.28-.336-.924-.56-1.932-2.147 1.213-3.65 1.867-4.508 1.96-1.792 0-3.136-.681-4.032-2.044-.896-1.363-1.344-3.108-1.344-5.236 0-2.147.448-3.948 1.344-5.404.915-1.475 2.259-2.212 4.032-2.212 1.38 0 2.8.532 4.256 1.596zm-3.78.308c-2.184 0-3.276 1.792-3.276 5.376 0 1.4.224 2.613.672 3.64.224.56.55 1.008.98 1.344.448.336.96.504 1.54.504.579 0 1.25-.13 2.016-.392.784-.261 1.456-.56 2.016-.896l-.168-7.98c-.504-.43-1.12-.803-1.848-1.12-.728-.317-1.372-.476-1.932-.476zm20.172 11.088c.82 0 2.109-.392 3.864-1.176.355.485.54.915.56 1.288-.952.56-1.885.999-2.8 1.316-.915.317-1.568.476-1.96.476-2.165 0-3.817-.644-4.956-1.932-1.14-1.307-1.708-3.127-1.708-5.46s.55-4.163 1.652-5.488c1.12-1.344 2.79-2.016 5.012-2.016 1.717 0 3.024.616 3.92 1.848.915 1.232 1.372 2.884 1.372 4.956-.15.261-.271.439-.364.532l-9.016-.14c.019 1.885.345 3.323.98 4.312.653.99 1.8 1.484 3.444 1.484zm2.408-7.392c0-1.232-.224-2.184-.672-2.856-.448-.69-1.195-1.036-2.24-1.036-1.045 0-1.98.196-2.8.588a10.658 10.658 0 0 0-1.064 3.444c1.475-.019 3.733-.065 6.776-.14zm9.68 6.916c.504.187 1.167.28 1.988.28.82 0 1.465-.233 1.932-.7.485-.485.728-1.344.728-2.576 0-1.25-.02-2.576-.056-3.976a303.62 303.62 0 0 0-.168-4.76c-.075-1.792-.131-3.183-.168-4.172-.56-.075-1.381-.299-2.464-.672l.084-.98h7c.317.597.476 1.157.476 1.68-.224.075-.971.112-2.24.112-.037 1.661-.084 4.023-.14 7.084-.037 3.061-.065 5.077-.084 6.048-.037 1.587-.42 2.828-1.148 3.724-.71.877-1.755 1.316-3.136 1.316-1.008 0-2.044-.14-3.108-.42-1.064-.28-1.783-.56-2.156-.84.019-1.419.168-2.95.448-4.592.299-.13.849-.196 1.652-.196l.56 3.64zm21.276.168c2.782 0 4.172-1.13 4.172-3.388 0-1.101-.681-2.035-2.044-2.8a18.921 18.921 0 0 0-2.044-1.008 46.625 46.625 0 0 1-2.212-1.036 16.432 16.432 0 0 1-2.044-1.204 5.39 5.39 0 0 1-1.484-1.624c-.373-.653-.56-1.39-.56-2.212 0-1.344.542-2.483 1.624-3.416 1.102-.952 2.604-1.428 4.508-1.428s3.91.579 6.02 1.736c0 1.064-.13 2.399-.392 4.004-.41.056-.952.084-1.624.084l-.84-3.248c-.224-.112-.672-.224-1.344-.336a10.41 10.41 0 0 0-1.736-.168c-1.082 0-1.922.233-2.52.7-.597.448-.896 1.083-.896 1.904 0 .803.346 1.53 1.036 2.184.71.635 1.559 1.185 2.548 1.652 1.008.448 2.007.915 2.996 1.4a7.924 7.924 0 0 1 2.548 1.904c.71.765 1.064 1.661 1.064 2.688 0 1.867-.625 3.313-1.876 4.34-1.25 1.008-2.884 1.512-4.9 1.512-1.101 0-2.296-.168-3.584-.504-1.27-.355-2.324-.803-3.164-1.344.038-1.25.178-2.697.42-4.34.41-.056.952-.084 1.624-.084l.588 3.36c.41.168 1.027.327 1.848.476.84.13 1.596.196 2.268.196zM187.253 554.4c2.37 0 4.126.392 5.264 1.176 1.158.765 1.736 2.128 1.736 4.088s-.57 3.519-1.708 4.676c-1.138 1.139-2.977 1.708-5.516 1.708h-2.352l-.084 6.076 2.184.196c0 .523-.158 1.083-.476 1.68H180l-.084-.952a13.57 13.57 0 0 1 2.408-.672c-.112-7.28-.205-12.693-.28-16.24-.504-.093-1.325-.317-2.464-.672l.14-1.064h7.532zm-.504 9.828c1.606-.019 2.828-.42 3.668-1.204.84-.803 1.26-1.857 1.26-3.164 0-1.307-.41-2.212-1.232-2.716-.821-.523-2.137-.784-3.948-.784-.336 0-.905.01-1.708.028l-.084 7.868 2.044-.028zm17.114-1.456l9.128.028a406.275 406.275 0 0 0-.168-6.748c-.691-.13-1.522-.355-2.492-.672l.084-.98h7c.317.597.476 1.157.476 1.68-.934.075-1.68.112-2.24.112l-.308 15.904 2.352.224c0 .523-.16 1.083-.476 1.68h-6.44l-.084-.98a17.489 17.489 0 0 1 2.576-.672l-.224-7.784h-9.24c-.038 3.36-.056 5.87-.056 7.532l2.352.224c0 .523-.16 1.083-.476 1.68h-6.44l-.084-.98a17.489 17.489 0 0 1 2.576-.672c-.187-7.243-.336-12.675-.448-16.296-.691-.13-1.522-.355-2.492-.672l.084-.98h7c.317.597.476 1.157.476 1.68-.934.075-1.68.112-2.24.112a497.394 497.394 0 0 0-.196 6.58zm26.492-8.372c2.37 0 4.125.392 5.264 1.176 1.157.765 1.736 2.128 1.736 4.088s-.57 3.519-1.708 4.676c-1.14 1.139-2.978 1.708-5.516 1.708h-2.352l-.084 6.076 2.184.196c0 .523-.16 1.083-.476 1.68h-6.3l-.084-.952a13.547 13.547 0 0 1 2.408-.672 3237.17 3237.17 0 0 0-.28-16.24c-.504-.093-1.326-.317-2.464-.672l.14-1.064h7.532zm-.504 9.828c1.605-.019 2.828-.42 3.668-1.204.84-.803 1.26-1.857 1.26-3.164 0-1.307-.411-2.212-1.232-2.716-.822-.523-2.138-.784-3.948-.784-.336 0-.906.01-1.708.028l-.084 7.868 2.044-.028zM92.426 671.06l3.696-15.008a23.488 23.488 0 0 1-2.52-.672l.084-.98h7c.317.597.476 1.157.476 1.68-1.027.056-1.923.112-2.688.168L93.602 674H90.97l-4.816-16.436L81.786 674h-2.912l-5.012-17.948a23.488 23.488 0 0 1-2.52-.672l.084-.98h7.28c.317.597.476 1.157.476 1.68-.915.056-1.755.112-2.52.168l3.556 14.812h.112c.597-2.576 1.4-5.684 2.408-9.324 1.027-3.64 1.708-6.076 2.044-7.308h3.024l4.508 16.632h.112zm19.492 1.596c1.568 0 2.623-.485 3.164-1.456.56-.99.84-2.39.84-4.2 0-2.875-.635-4.676-1.904-5.404-.523-.299-1.26-.448-2.212-.448-.933 0-1.82.196-2.66.588-.747 1.437-1.12 3.108-1.12 5.012 0 1.83.243 3.239.728 4.228.56 1.12 1.615 1.68 3.164 1.68zM105.45 667c0-2.37.541-4.219 1.624-5.544 1.083-1.344 2.753-2.016 5.012-2.016 2.259 0 3.892.616 4.9 1.848 1.008 1.213 1.512 3.015 1.512 5.404 0 2.39-.541 4.265-1.624 5.628-1.064 1.363-2.688 2.044-4.872 2.044-2.184 0-3.827-.635-4.928-1.904-1.083-1.27-1.624-3.09-1.624-5.46zm26.742-5.208c-.093-.093-.298-.14-.616-.14-.317 0-.793.112-1.428.336a9.971 9.971 0 0 0-1.68.784 1164.14 1164.14 0 0 0-.224 9.324l2.352.224c0 .523-.158 1.083-.476 1.68h-6.44l-.084-.98a16.848 16.848 0 0 1 2.52-.672c-.112-4.741-.205-8.25-.28-10.528-1.026-.056-1.848-.168-2.464-.336l.112-1.456c.99-.28 2.455-.42 4.396-.42.3.467.486 1.064.56 1.792 2.147-1.307 3.426-1.96 3.836-1.96.411 0 .887.084 1.428.252.542.15.943.317 1.204.504 0 1.867-.177 3.388-.532 4.564-.26.075-.569.112-.924.112-.336 0-.569-.01-.7-.028l-.56-3.052zm16.695-.756l-.084-5.6c-1.027-.056-1.848-.168-2.464-.336l.112-1.456c.952-.28 2.333-.42 4.144-.42.578 0 .989.019 1.232.056 0 .336-.056.784-.168 1.344-.094.541-.16.84-.196.896l-.252 16.548c.765.037 1.577.168 2.436.392l-.056.98c-1.288.597-2.427.896-3.416.896-.206 0-.364-.01-.476-.028-.15-.28-.336-.924-.56-1.932-2.147 1.213-3.65 1.867-4.508 1.96-1.792 0-3.136-.681-4.032-2.044-.896-1.363-1.344-3.108-1.344-5.236 0-2.147.448-3.948 1.344-5.404.914-1.475 2.258-2.212 4.032-2.212 1.38 0 2.8.532 4.256 1.596zm-3.78.308c-2.184 0-3.276 1.792-3.276 5.376 0 1.4.224 2.613.672 3.64.224.56.55 1.008.98 1.344.448.336.96.504 1.54.504.578 0 1.25-.13 2.016-.392.784-.261 1.456-.56 2.016-.896l-.168-7.98c-.504-.43-1.12-.803-1.848-1.12-.728-.317-1.372-.476-1.932-.476zm17.456 11.228l-.14 5.992 2.436.196c0 .523-.16 1.083-.476 1.68h-6.496l-.084-.98c.858-.28 1.698-.495 2.52-.644a3557.92 3557.92 0 0 0-.28-16.996c-.84-.019-1.662-.13-2.464-.336l.112-1.456c1.082-.28 2.594-.42 4.536-.42.168.299.326.85.476 1.652 2.389-1.213 3.9-1.82 4.536-1.82 1.736 0 3.024.681 3.864 2.044.84 1.344 1.26 3.099 1.26 5.264 0 2.147-.476 3.948-1.428 5.404-.934 1.456-2.296 2.184-4.088 2.184-.672 0-1.41-.168-2.212-.504a8.185 8.185 0 0 1-2.072-1.26zm4.172-11.032c-1.158 0-2.502.41-4.032 1.232a828.16 828.16 0 0 1-.112 7.812c.466.467 1.082.896 1.848 1.288.784.373 1.465.56 2.044.56 2.202 0 3.304-1.81 3.304-5.432 0-1.381-.16-2.464-.476-3.248-.318-.803-.682-1.372-1.092-1.708-.411-.336-.906-.504-1.484-.504zm19.323.252c-.094-.093-.3-.14-.616-.14-.318 0-.794.112-1.428.336a9.971 9.971 0 0 0-1.68.784c-.112 4.144-.187 7.252-.224 9.324l2.352.224c0 .523-.16 1.083-.476 1.68h-6.44l-.084-.98a16.803 16.803 0 0 1 2.52-.672c-.112-4.741-.206-8.25-.28-10.528-1.027-.056-1.848-.168-2.464-.336l.112-1.456c.989-.28 2.454-.42 4.396-.42.298.467.485 1.064.56 1.792 2.146-1.307 3.425-1.96 3.836-1.96.41 0 .886.084 1.428.252.54.15.942.317 1.204.504 0 1.867-.178 3.388-.532 4.564a3.39 3.39 0 0 1-.924.112c-.336 0-.57-.01-.7-.028l-.56-3.052zm14.174 10.64c.82 0 2.109-.392 3.864-1.176.354.485.54.915.56 1.288a15.7 15.7 0 0 1-2.8 1.316c-.915.317-1.568.476-1.96.476-2.166 0-3.818-.644-4.956-1.932-1.14-1.307-1.708-3.127-1.708-5.46s.55-4.163 1.652-5.488c1.12-1.344 2.79-2.016 5.012-2.016 1.717 0 3.024.616 3.92 1.848.914 1.232 1.372 2.884 1.372 4.956-.15.261-.271.439-.364.532l-9.016-.14c.018 1.885.345 3.323.98 4.312.653.99 1.8 1.484 3.444 1.484zm2.408-7.392c0-1.232-.224-2.184-.672-2.856-.448-.69-1.195-1.036-2.24-1.036-1.046 0-1.98.196-2.8.588a10.658 10.658 0 0 0-1.064 3.444c1.474-.019 3.733-.065 6.776-.14zm10.212 7.168c.653.28 1.447.42 2.38.42.952 0 1.699-.177 2.24-.532.54-.355.812-.84.812-1.456s-.252-1.13-.756-1.54c-.504-.41-1.12-.775-1.848-1.092a56.8 56.8 0 0 1-2.184-1.008 5.767 5.767 0 0 1-1.848-1.4 2.976 2.976 0 0 1-.756-2.016c0-1.288.429-2.296 1.288-3.024.859-.747 2.044-1.12 3.556-1.12a9.3 9.3 0 0 1 4.312 1.036c.019.187.028.69.028 1.512 0 .803-.084 1.493-.252 2.072-.448.15-.98.224-1.596.224l-.924-2.856c-.411-.205-.971-.308-1.68-.308-.691 0-1.241.187-1.652.56-.411.355-.616.812-.616 1.372 0 .541.252 1.017.756 1.428.523.41 1.148.784 1.876 1.12.728.317 1.456.663 2.184 1.036.728.355 1.344.83 1.848 1.428.523.579.784 1.25.784 2.016 0 1.344-.523 2.399-1.568 3.164-1.027.747-2.296 1.12-3.808 1.12-.821 0-1.7-.13-2.632-.392-.933-.28-1.717-.635-2.352-1.064 0-1.25.112-2.361.336-3.332.429-.075 1.008-.112 1.736-.112l.336 2.744zm15.74 0c.653.28 1.447.42 2.38.42.952 0 1.699-.177 2.24-.532.54-.355.812-.84.812-1.456s-.252-1.13-.756-1.54c-.504-.41-1.12-.775-1.848-1.092a56.8 56.8 0 0 1-2.184-1.008 5.767 5.767 0 0 1-1.848-1.4 2.976 2.976 0 0 1-.756-2.016c0-1.288.429-2.296 1.288-3.024.859-.747 2.044-1.12 3.556-1.12a9.3 9.3 0 0 1 4.312 1.036c.019.187.028.69.028 1.512 0 .803-.084 1.493-.252 2.072-.448.15-.98.224-1.596.224l-.924-2.856c-.411-.205-.971-.308-1.68-.308-.691 0-1.241.187-1.652.56-.411.355-.616.812-.616 1.372 0 .541.252 1.017.756 1.428.523.41 1.148.784 1.876 1.12.728.317 1.456.663 2.184 1.036.728.355 1.344.83 1.848 1.428.523.579.784 1.25.784 2.016 0 1.344-.523 2.399-1.568 3.164-1.027.747-2.296 1.12-3.808 1.12-.821 0-1.7-.13-2.632-.392-.933-.28-1.717-.635-2.352-1.064 0-1.25.112-2.361.336-3.332.429-.075 1.008-.112 1.736-.112l.336 2.744zm-114.938 84.124l2.94 15.764 2.548.252c0 .504-.158 1.055-.476 1.652h-6.44l-.084-.98c.56-.243 1.251-.439 2.072-.588l-2.996-15.708-3.696 15.932h-2.772l-5.096-15.988-2.268 15.428 2.38.224c0 .523-.158 1.083-.476 1.68h-6.44l-.084-.98a15.137 15.137 0 0 1 2.464-.672l2.464-16.24c-1.138-.168-2.044-.364-2.716-.588l.112-1.12h6.524l4.452 15.344h.112l3.472-15.344h6.244c.318.597.476 1.176.476 1.736-1.213.13-2.118.196-2.716.196zm16.455 16.324c1.568 0 2.623-.485 3.164-1.456.56-.99.84-2.39.84-4.2 0-2.875-.634-4.676-1.904-5.404-.522-.299-1.26-.448-2.212-.448-.933 0-1.82.196-2.66.588-.746 1.437-1.12 3.108-1.12 5.012 0 1.83.243 3.239.728 4.228.56 1.12 1.615 1.68 3.164 1.68zM123.641 767c0-2.37.542-4.219 1.624-5.544 1.083-1.344 2.754-2.016 5.012-2.016 2.259 0 3.892.616 4.9 1.848 1.008 1.213 1.512 3.015 1.512 5.404 0 2.39-.541 4.265-1.624 5.628-1.064 1.363-2.688 2.044-4.872 2.044-2.184 0-3.826-.635-4.928-1.904-1.082-1.27-1.624-3.09-1.624-5.46zm26.883-7.56c1.792 0 3.089.448 3.892 1.344.802.877 1.204 2.221 1.204 4.032 0 .523-.075 2.95-.224 7.28l2.352.224c0 .523-.159 1.083-.476 1.68h-6.44l-.084-.98a16.803 16.803 0 0 1 2.52-.672c-.112-4.89-.215-7.607-.308-8.148a5.201 5.201 0 0 0-.392-1.456c-.187-.41-.467-.7-.84-.868-.374-.168-.868-.252-1.484-.252-1.232 0-2.427.299-3.584.896-.112 4.256-.187 7.448-.224 9.576l2.352.224c0 .523-.159 1.083-.476 1.68h-6.44l-.084-.98a16.803 16.803 0 0 1 2.52-.672c-.112-4.741-.206-8.25-.28-10.528-1.027-.056-1.848-.168-2.464-.336l.112-1.456c1.008-.28 2.473-.42 4.396-.42.224.336.392.821.504 1.456a23.07 23.07 0 0 1 2.408-1.12c.821-.336 1.334-.504 1.54-.504zm18.99 12.852l2.492-.056c2.576 0 3.864 1.064 3.864 3.192 0 .99-.43 1.904-1.288 2.744a8.01 8.01 0 0 1-3.024 1.932c-1.176.43-2.278.644-3.304.644a8.716 8.716 0 0 1-2.828-.448 5.192 5.192 0 0 1-2.24-1.4c-.616-.653-.924-1.41-.924-2.268 0-.205.326-.747.98-1.624.672-.859 1.11-1.363 1.316-1.512-.168-.112-.495-.43-.98-.952-.486-.541-.756-.915-.812-1.12.466-.859 1.204-1.699 2.212-2.52-1.494-.896-2.24-2.37-2.24-4.424 0-1.643.522-2.893 1.568-3.752 1.045-.859 2.352-1.288 3.92-1.288s2.781.252 3.64.756a22.371 22.371 0 0 1 4.396-.448c.354 0 .532.215.532.644 0 .747-.14 1.26-.42 1.54l-3.22-.532c.672.859 1.008 1.885 1.008 3.08 0 1.867-.551 3.21-1.652 4.032-1.102.803-2.455 1.204-4.06 1.204-.504 0-1.102-.065-1.792-.196-.28.579-.635 1.204-1.064 1.876.336.597 1.642.896 3.92.896zm3.556 5.152a4.81 4.81 0 0 0 .28-1.624c0-.541-.215-.98-.644-1.316-.43-.336-.98-.504-1.652-.504-2.67 0-4.303-.028-4.9-.084-.504.803-.859 1.475-1.064 2.016-.187.56-.28.877-.28.952 0 .728.345 1.27 1.036 1.624.69.355 1.484.532 2.38.532a8.8 8.8 0 0 0 2.744-.448c.933-.299 1.633-.681 2.1-1.148zm-1.428-12.852c0-2.315-1.064-3.472-3.192-3.472s-3.192 1.12-3.192 3.36c0 1.139.28 2.016.84 2.632.56.616 1.372.924 2.436.924 2.072 0 3.108-1.148 3.108-3.444zm16.215 8.064c1.568 0 2.623-.485 3.164-1.456.56-.99.84-2.39.84-4.2 0-2.875-.635-4.676-1.904-5.404-.523-.299-1.26-.448-2.212-.448-.933 0-1.82.196-2.66.588-.747 1.437-1.12 3.108-1.12 5.012 0 1.83.243 3.239.728 4.228.56 1.12 1.615 1.68 3.164 1.68zM181.389 767c0-2.37.541-4.219 1.624-5.544 1.083-1.344 2.753-2.016 5.012-2.016 2.259 0 3.892.616 4.9 1.848 1.008 1.213 1.512 3.015 1.512 5.404 0 2.39-.541 4.265-1.624 5.628-1.064 1.363-2.688 2.044-4.872 2.044-2.184 0-3.827-.635-4.928-1.904-1.083-1.27-1.624-3.09-1.624-5.46zm34.694-3.248c0 4.219-.961 7.084-2.884 8.596a7.006 7.006 0 0 1-2.604 1.316c-.933.224-2.156.336-3.668.336h-7.112l-.084-.98c.075-.056.458-.177 1.148-.364.691-.187 1.102-.28 1.232-.28-.112-7.28-.205-12.693-.28-16.24a9.67 9.67 0 0 1-2.464-.672c.038-.635.084-.99.14-1.064h7.056c1.942 0 3.472.177 4.592.532 1.139.355 2.128 1.008 2.968 1.96 1.307 1.437 1.96 3.724 1.96 6.86zm-2.716.224c0-2.52-.476-4.415-1.428-5.684-.933-1.288-2.51-1.932-4.732-1.932h-2.856c-.074 3.435-.168 8.68-.28 15.736h2.94c2.558 0 4.256-.57 5.096-1.708.84-1.157 1.26-3.295 1.26-6.412zm19.04-.196c1.083.13 2.035.635 2.856 1.512.84.877 1.26 2.11 1.26 3.696 0 1.568-.625 2.8-1.876 3.696-1.232.877-3.042 1.316-5.432 1.316h-7.672l-.084-.98a11.019 11.019 0 0 1 2.408-.672c-.112-7.205-.205-12.61-.28-16.212-.634-.112-1.456-.336-2.464-.672.056-.69.103-1.045.14-1.064h7.028c2.502 0 4.2.215 5.096.644.43.205.859.476 1.288.812.859.672 1.288 1.783 1.288 3.332 0 .784-.14 1.493-.42 2.128-.261.616-.606 1.092-1.036 1.428-.784.616-1.484.961-2.1 1.036zm-3.052 1.204h-3.108a710.968 710.968 0 0 0-.112 7.112h2.968c3.099 0 4.648-1.157 4.648-3.472 0-1.344-.364-2.287-1.092-2.828-.709-.541-1.81-.812-3.304-.812zm-1.344-8.624l-1.68.028a323.131 323.131 0 0 0-.056 6.692h2.744c1.643 0 2.735-.308 3.276-.924.56-.635.84-1.633.84-2.996 0-1.867-1.708-2.8-5.124-2.8zM353.223 35.78c1.082.13 2.034.635 2.856 1.512.84.877 1.26 2.11 1.26 3.696 0 1.568-.626 2.8-1.876 3.696-1.232.877-3.043 1.316-5.432 1.316h-7.672l-.084-.98a11.013 11.013 0 0 1 2.408-.672 3433.17 3433.17 0 0 0-.28-16.212c-.635-.112-1.456-.336-2.464-.672.056-.69.102-1.045.14-1.064h7.028c2.501 0 4.2.215 5.096.644.43.205.858.476 1.288.812.858.672 1.288 1.783 1.288 3.332 0 .784-.14 1.493-.42 2.128-.262.616-.607 1.092-1.036 1.428-.784.616-1.484.961-2.1 1.036zm-3.052 1.204h-3.108a678.66 678.66 0 0 0-.112 7.112h2.968c3.098 0 4.648-1.157 4.648-3.472 0-1.344-.364-2.287-1.092-2.828-.71-.541-1.81-.812-3.304-.812zm-1.344-8.624l-1.68.028a320.32 320.32 0 0 0-.056 6.692h2.744c1.642 0 2.734-.308 3.276-.924.56-.635.84-1.633.84-2.996 0-1.867-1.708-2.8-5.124-2.8zm25.252 8.484l-.14 7.224c.803.056 1.606.187 2.408.392l-.055.98c-.3.15-.84.317-1.624.504-.766.168-1.522.252-2.268.252-.336-.672-.523-1.316-.56-1.932-2.128 1.4-3.622 2.1-4.48 2.1-1.326 0-2.39-.355-3.193-1.064-.802-.71-1.204-1.699-1.204-2.968 0-2.93 1.792-4.443 5.376-4.536l3.164-.084-.028-.952c-.037-1.288-.28-2.212-.728-2.772-.448-.579-1.25-.868-2.408-.868-.485 0-1.008.112-1.568.336l-.672 2.8a2.764 2.764 0 0 1-.476.028l-1.148-.084c-.298-.803-.457-1.913-.476-3.332.355-.187 1.167-.467 2.436-.84 1.27-.392 2.082-.588 2.436-.588 1.904 0 3.248.42 4.032 1.26.784.84 1.176 2.221 1.176 4.144zm-6.104 7.616c.542 0 1.792-.607 3.752-1.82l-.14-3.5a164.97 164.97 0 0 0-3.191.308c-.86.093-1.55.345-2.072.756-.523.392-.784 1.017-.784 1.876 0 1.587.812 2.38 2.436 2.38zm22.654-11.424l-.084-5.6c-1.026-.056-1.848-.168-2.464-.336l.112-1.456c.952-.28 2.334-.42 4.144-.42.579 0 .99.019 1.232.056 0 .336-.056.784-.168 1.344-.093.541-.158.84-.196.896l-.252 16.548c.766.037 1.578.168 2.436.392l-.056.98c-1.288.597-2.426.896-3.416.896a3.08 3.08 0 0 1-.476-.028c-.149-.28-.336-.924-.56-1.932-2.146 1.213-3.65 1.867-4.508 1.96-1.792 0-3.136-.681-4.032-2.044-.896-1.363-1.344-3.108-1.344-5.236 0-2.147.448-3.948 1.344-5.404.915-1.475 2.259-2.212 4.032-2.212 1.382 0 2.8.532 4.256 1.596zm-3.78.308c-2.184 0-3.276 1.792-3.276 5.376 0 1.4.224 2.613.672 3.64.224.56.55 1.008.98 1.344a2.5 2.5 0 0 0 1.54.504c.579 0 1.25-.13 2.016-.392.784-.261 1.456-.56 2.016-.896l-.168-7.98c-.504-.43-1.12-.803-1.848-1.12-.728-.317-1.372-.476-1.932-.476zm320.627 13.02c-2.502 0-4.499-.859-5.992-2.576-1.494-1.717-2.24-4.256-2.24-7.616 0-3.379.644-5.908 1.932-7.588 1.306-1.699 3.332-2.548 6.076-2.548 2.762 0 5.086.69 6.972 2.072 0 .952-.13 2.081-.392 3.388-.41.075-.952.112-1.624.112l-.616-2.884c-1.064-.355-2.37-.532-3.92-.532-1.027 0-2.436.28-4.228.84-.112.205-.252.495-.42.868-.168.355-.392 1.12-.672 2.296a15.838 15.838 0 0 0-.392 3.5c0 5.73 1.857 8.596 5.572 8.596 1.96 0 3.472-.355 4.536-1.064.074-2.352.121-4.116.14-5.292l-2.716-.672.084-.98h6.44c.317.597.476 1.157.476 1.68a21.81 21.81 0 0 1-2.352.224c.112 3.136.168 5.301.168 6.496-.467.317-1.4.681-2.8 1.092-1.382.392-2.726.588-4.032.588zm20.111-1.708c1.568 0 2.623-.485 3.164-1.456.56-.99.84-2.39.84-4.2 0-2.875-.634-4.676-1.904-5.404-.522-.299-1.26-.448-2.212-.448-.933 0-1.82.196-2.66.588-.746 1.437-1.12 3.108-1.12 5.012 0 1.83.243 3.239.728 4.228.56 1.12 1.615 1.68 3.164 1.68zM721.12 39c0-2.37.542-4.219 1.624-5.544 1.083-1.344 2.754-2.016 5.012-2.016 2.26 0 3.892.616 4.9 1.848 1.008 1.213 1.512 3.015 1.512 5.404 0 2.39-.54 4.265-1.624 5.628-1.064 1.363-2.688 2.044-4.872 2.044-2.184 0-3.826-.635-4.928-1.904-1.082-1.27-1.624-3.09-1.624-5.46zm24.615 5.656c1.568 0 2.623-.485 3.164-1.456.56-.99.84-2.39.84-4.2 0-2.875-.635-4.676-1.904-5.404-.523-.299-1.26-.448-2.212-.448-.933 0-1.82.196-2.66.588-.747 1.437-1.12 3.108-1.12 5.012 0 1.83.243 3.239.728 4.228.56 1.12 1.615 1.68 3.164 1.68zM739.266 39c0-2.37.541-4.219 1.624-5.544 1.083-1.344 2.753-2.016 5.012-2.016 2.259 0 3.892.616 4.9 1.848 1.008 1.213 1.512 3.015 1.512 5.404 0 2.39-.541 4.265-1.624 5.628-1.064 1.363-2.688 2.044-4.872 2.044-2.184 0-3.827-.635-4.928-1.904-1.083-1.27-1.624-3.09-1.624-5.46zm27.778-5.964l-.084-5.6c-1.026-.056-1.848-.168-2.464-.336l.112-1.456c.952-.28 2.334-.42 4.144-.42.579 0 .99.019 1.232.056 0 .336-.056.784-.168 1.344-.093.541-.158.84-.196.896l-.252 16.548c.766.037 1.578.168 2.436.392l-.056.98c-1.288.597-2.426.896-3.416.896a3.08 3.08 0 0 1-.476-.028c-.149-.28-.336-.924-.56-1.932-2.146 1.213-3.649 1.867-4.508 1.96-1.792 0-3.136-.681-4.032-2.044-.896-1.363-1.344-3.108-1.344-5.236 0-2.147.448-3.948 1.344-5.404.915-1.475 2.259-2.212 4.032-2.212 1.382 0 2.8.532 4.256 1.596zm-3.78.308c-2.184 0-3.276 1.792-3.276 5.376 0 1.4.224 2.613.672 3.64.224.56.551 1.008.98 1.344a2.5 2.5 0 0 0 1.54.504c.579 0 1.251-.13 2.016-.392.784-.261 1.456-.56 2.016-.896l-.168-7.98c-.504-.43-1.12-.803-1.848-1.12-.728-.317-1.372-.476-1.932-.476zm262.724-5.096L1020.22 46h-2.912l-6.412-17.948a23.475 23.475 0 0 1-2.52-.672l.084-.98h7.28c.317.597.476 1.157.476 1.68-.915.056-1.755.112-2.52.168l4.956 14.812h.14c.41-1.4 1.969-6.403 4.676-15.008-.747-.112-1.624-.336-2.632-.672l.084-.98h7.028c.317.597.476 1.157.476 1.68-.859.056-1.671.112-2.436.168zm12.233 16.184c.821 0 2.11-.392 3.864-1.176.354.485.541.915.56 1.288a15.68 15.68 0 0 1-2.8 1.316c-.915.317-1.568.476-1.96.476-2.166 0-3.818-.644-4.956-1.932-1.139-1.307-1.708-3.127-1.708-5.46s.55-4.163 1.652-5.488c1.12-1.344 2.79-2.016 5.012-2.016 1.717 0 3.024.616 3.92 1.848.914 1.232 1.372 2.884 1.372 4.956-.15.261-.27.439-.364.532l-9.016-.14c.018 1.885.345 3.323.98 4.312.653.99 1.801 1.484 3.444 1.484zm2.408-7.392c0-1.232-.224-2.184-.672-2.856-.448-.69-1.195-1.036-2.24-1.036-1.046 0-1.979.196-2.8.588a10.666 10.666 0 0 0-1.064 3.444c1.474-.019 3.733-.065 6.776-.14zm16.484-3.248c-.093-.093-.299-.14-.616-.14s-.793.112-1.428.336a9.971 9.971 0 0 0-1.68.784c-.112 4.144-.187 7.252-.224 9.324l2.352.224c0 .523-.159 1.083-.476 1.68h-6.44l-.084-.98a16.848 16.848 0 0 1 2.52-.672c-.112-4.741-.205-8.25-.28-10.528-1.027-.056-1.848-.168-2.464-.336l.112-1.456c.99-.28 2.455-.42 4.396-.42.299.467.485 1.064.56 1.792 2.147-1.307 3.425-1.96 3.836-1.96.41 0 .887.084 1.428.252.541.15.943.317 1.204.504 0 1.867-.177 3.388-.532 4.564-.261.075-.57.112-.924.112-.336 0-.57-.01-.7-.028l-.56-3.052zm9.974 17.416c.71 0 1.4-.681 2.072-2.044.69-1.363 1.083-2.417 1.176-3.164h-.672l-4.424-12.32-2.352-.224c0-.523.159-1.083.476-1.68h6.44l.084.98a9.929 9.929 0 0 1-1.988.616l2.436 7.644.644 2.464h.28l3.36-10.108-2.352-.616.084-.98h6.3c.317.597.476 1.157.476 1.68-.765.093-1.53.159-2.296.196a3132.85 3132.85 0 0 1-2.184 6.356 350.316 350.316 0 0 1-2.268 6.552c-.541 1.55-1.083 2.81-1.624 3.78-.541.97-1.083 1.615-1.624 1.932a3.192 3.192 0 0 1-1.764.504 7.906 7.906 0 0 1-3.248-.672l-.504-.252c.13-2.128.215-3.295.252-3.5.15-.056.69-.084 1.624-.084l.952 2.856c.168.056.383.084.644.084zm33.837-4.844c-2.502 0-4.499-.859-5.992-2.576-1.494-1.717-2.24-4.256-2.24-7.616 0-3.379.644-5.908 1.932-7.588 1.306-1.699 3.332-2.548 6.076-2.548 2.762 0 5.086.69 6.972 2.072 0 .952-.131 2.081-.392 3.388-.411.075-.952.112-1.624.112l-.616-2.884c-1.064-.355-2.371-.532-3.92-.532-1.027 0-2.436.28-4.228.84-.112.205-.252.495-.42.868-.168.355-.392 1.12-.672 2.296a15.803 15.803 0 0 0-.392 3.5c0 5.73 1.857 8.596 5.572 8.596 1.96 0 3.472-.355 4.536-1.064.074-2.352.121-4.116.14-5.292l-2.716-.672.084-.98h6.44c.317.597.476 1.157.476 1.68a21.81 21.81 0 0 1-2.352.224c.112 3.136.168 5.301.168 6.496-.467.317-1.4.681-2.8 1.092-1.382.392-2.726.588-4.032.588zm20.111-1.708c1.568 0 2.623-.485 3.164-1.456.56-.99.84-2.39.84-4.2 0-2.875-.634-4.676-1.904-5.404-.522-.299-1.26-.448-2.212-.448-.933 0-1.82.196-2.66.588-.746 1.437-1.12 3.108-1.12 5.012 0 1.83.243 3.239.728 4.228.56 1.12 1.615 1.68 3.164 1.68zM1114.567 39c0-2.37.542-4.219 1.624-5.544 1.083-1.344 2.754-2.016 5.012-2.016 2.259 0 3.892.616 4.9 1.848 1.008 1.213 1.512 3.015 1.512 5.404 0 2.39-.541 4.265-1.624 5.628-1.064 1.363-2.688 2.044-4.872 2.044-2.184 0-3.826-.635-4.928-1.904-1.082-1.27-1.624-3.09-1.624-5.46zm24.615 5.656c1.568 0 2.623-.485 3.164-1.456.56-.99.84-2.39.84-4.2 0-2.875-.635-4.676-1.904-5.404-.523-.299-1.26-.448-2.212-.448-.933 0-1.82.196-2.66.588-.747 1.437-1.12 3.108-1.12 5.012 0 1.83.243 3.239.728 4.228.56 1.12 1.615 1.68 3.164 1.68zM1132.714 39c0-2.37.541-4.219 1.624-5.544 1.083-1.344 2.753-2.016 5.012-2.016 2.259 0 3.892.616 4.9 1.848 1.008 1.213 1.512 3.015 1.512 5.404 0 2.39-.541 4.265-1.624 5.628-1.064 1.363-2.688 2.044-4.872 2.044-2.184 0-3.827-.635-4.928-1.904-1.083-1.27-1.624-3.09-1.624-5.46zm27.778-5.964l-.084-5.6c-1.026-.056-1.848-.168-2.464-.336l.112-1.456c.952-.28 2.334-.42 4.144-.42.579 0 .99.019 1.232.056 0 .336-.056.784-.168 1.344-.093.541-.158.84-.196.896l-.252 16.548c.766.037 1.578.168 2.436.392l-.056.98c-1.288.597-2.426.896-3.416.896a3.08 3.08 0 0 1-.476-.028c-.149-.28-.336-.924-.56-1.932-2.146 1.213-3.649 1.867-4.508 1.96-1.792 0-3.136-.681-4.032-2.044-.896-1.363-1.344-3.108-1.344-5.236 0-2.147.448-3.948 1.344-5.404.915-1.475 2.259-2.212 4.032-2.212 1.382 0 2.8.532 4.256 1.596zm-3.78.308c-2.184 0-3.276 1.792-3.276 5.376 0 1.4.224 2.613.672 3.64.224.56.551 1.008.98 1.344a2.5 2.5 0 0 0 1.54.504c.579 0 1.251-.13 2.016-.392.784-.261 1.456-.56 2.016-.896l-.168-7.98c-.504-.43-1.12-.803-1.848-1.12-.728-.317-1.372-.476-1.932-.476z"/><path fill="#E0561B" d="M289 152h820v25H289z"/><path transform="translate(289 152)" fill="url(#paint0_linear)" d="M0 0h820v25H0z"/><path fill="#E0561B" d="M289 252h820v25H289z"/><path transform="translate(289 252)" fill="url(#paint1_linear)" d="M0 0h820v25H0z"/><path fill="#E0561B" d="M289 352h671v25H289z"/><path transform="translate(289 352)" fill="url(#paint2_linear)" d="M0 0h671v25H0z"/><path fill="#E0561B" d="M289 452h604v25H289z"/><path transform="translate(289 452)" fill="url(#paint3_linear)" d="M0 0h604v25H0z"/><path fill="#E0561B" d="M289 552h529v25H289z"/><path transform="translate(289 552)" fill="url(#paint4_linear)" d="M0 0h529v25H0z"/><path fill="#E0561B" d="M289 652h529v25H289z"/><path transform="translate(289 652)" fill="url(#paint5_linear)" d="M0 0h529v25H0z"/><path fill="#E0561B" d="M289 752h330v25H289z"/><path transform="translate(289 752)" fill="url(#paint6_linear)" d="M0 0h330v25H0z"/><path fill="#E0561B" d="M289 847h330v25H289z"/><path transform="translate(289 847)" fill="url(#paint7_linear)" d="M0 0h330v25H0z"/></g><defs><linearGradient id="paint0_linear" x2="1" gradientUnits="userSpaceOnUse" gradientTransform="matrix(820 .00017 -.00556 26896 .003 -13436)"><stop stop-color="#313131"/><stop offset="1" stop-color="#fff" stop-opacity="0"/></linearGradient><linearGradient id="paint1_linear" x2="1" gradientUnits="userSpaceOnUse" gradientTransform="matrix(820 .00017 -.00556 26896 .003 -13436)"><stop stop-color="#313131"/><stop offset="1" stop-color="#fff" stop-opacity="0"/></linearGradient><linearGradient id="paint2_linear" x2="1" gradientUnits="userSpaceOnUse" gradientTransform="matrix(671 .00017 -.00455 26896 .002 -13436)"><stop stop-color="#313131"/><stop offset="1" stop-color="#fff" stop-opacity="0"/></linearGradient><linearGradient id="paint3_linear" x2="1" gradientUnits="userSpaceOnUse" gradientTransform="matrix(604 .00017 -.0041 26896 .002 -13436)"><stop stop-color="#313131"/><stop offset="1" stop-color="#fff" stop-opacity="0"/></linearGradient><linearGradient id="paint4_linear" x2="1" gradientUnits="userSpaceOnUse" gradientTransform="matrix(529 .00017 -.00358 26896 .002 -13436)"><stop stop-color="#313131"/><stop offset="1" stop-color="#fff" stop-opacity="0"/></linearGradient><linearGradient id="paint5_linear" x2="1" gradientUnits="userSpaceOnUse" gradientTransform="matrix(529 .00017 -.00358 26896 .002 -13436)"><stop stop-color="#313131"/><stop offset="1" stop-color="#fff" stop-opacity="0"/></linearGradient><linearGradient id="paint6_linear" x2="1" gradientUnits="userSpaceOnUse" gradientTransform="matrix(330 .00017 -.00224 26896 .001 -13436)"><stop stop-color="#313131"/><stop offset="1" stop-color="#fff" stop-opacity="0"/></linearGradient><linearGradient id="paint7_linear" x2="1" gradientUnits="userSpaceOnUse" gradientTransform="matrix(330 .00017 -.00224 26896 .001 -13436)"><stop stop-color="#313131"/><stop offset="1" stop-color="#fff" stop-opacity="0"/></linearGradient></defs></svg>