<svg width="1186" height="932" viewBox="0 0 1186 932" version="1.1" xmlns="http://www.w3.org/2000/svg" xmlns:xlink="http://www.w3.org/1999/xlink">
<g id="Canvas" fill="none">
<g id="Group 5">
<g id="Group">
<g id="Rectangle 4">
<rect width="1163" height="18" transform="translate(23 62)" fill="white"/>
</g>
<g id="Rectangle 3">
<rect width="18" height="932" transform="translate(271 0)" fill="white"/>
</g>
</g>
<g id="Group 4">
<g id="MySQL/Postgre">
<path d="M 29.9633 18.332L 32.9033 34.096L 35.4513 34.348C 35.4513 34.852 35.2927 35.4027 34.9753 36L 28.5353 36L 28.4513 35.02C 29.0113 34.7773 29.702 34.5813 30.5233 34.432L 27.5273 18.724L 23.8313 34.656L 21.0593 34.656L 15.9633 18.668L 13.6953 34.096L 16.0753 34.32C 16.0753 34.8427 15.9167 35.4027 15.5993 36L 9.15932 36L 9.07532 35.02C 9.89665 34.7213 10.718 34.4973 11.5393 34.348L 14.0033 18.108C 12.8647 17.94 11.9593 17.744 11.2873 17.52L 11.3993 16.4L 17.9233 16.4L 22.3753 31.744L 22.4873 31.744L 25.9593 16.4L 32.2033 16.4C 32.5207 16.9973 32.6793 17.576 32.6793 18.136C 31.466 18.2667 30.5607 18.332 29.9633 18.332ZM 42.8624 41.208C 43.5717 41.208 44.2624 40.5267 44.9344 39.164C 45.625 37.8013 46.017 36.7467 46.1104 36L 45.4384 36L 41.0144 23.68L 38.6624 23.456C 38.6624 22.9333 38.821 22.3733 39.1384 21.776L 45.5784 21.776L 45.6624 22.756C 45.065 23.0173 44.4024 23.2227 43.6744 23.372L 46.1104 31.016L 46.7544 33.48L 47.0344 33.48L 50.3944 23.372L 48.0424 22.756L 48.1264 21.776L 54.4264 21.776C 54.7437 22.3733 54.9024 22.9333 54.9024 23.456C 54.137 23.5493 53.3717 23.6147 52.6064 23.652C 52.121 25.0707 51.393 27.1893 50.4224 30.008C 49.4704 32.8267 48.7144 35.0107 48.1544 36.56C 47.613 38.1093 47.0717 39.3693 46.5304 40.34C 45.989 41.3107 45.4477 41.9547 44.9064 42.272C 44.3837 42.608 43.7957 42.776 43.1424 42.776C 41.985 42.776 40.9024 42.552 39.8944 42.104L 39.3904 41.852C 39.521 39.724 39.605 38.5573 39.6424 38.352C 39.7917 38.296 40.333 38.268 41.2664 38.268L 42.2184 41.124C 42.3864 41.18 42.601 41.208 42.8624 41.208ZM 65.5616 34.124C 68.3429 34.124 69.7336 32.9947 69.7336 30.736C 69.7336 29.6347 69.0523 28.7013 67.6896 27.936C 67.0736 27.5813 66.3923 27.2453 65.6456 26.928C 64.9176 26.6107 64.1803 26.2653 63.4336 25.892C 62.6869 25.5187 62.0056 25.1173 61.3896 24.688C 60.7923 24.2587 60.2976 23.7173 59.9056 23.064C 59.5323 22.4107 59.3456 21.6733 59.3456 20.852C 59.3456 19.508 59.8869 18.3693 60.9696 17.436C 62.0709 16.484 63.5736 16.008 65.4776 16.008C 67.3816 16.008 69.3883 16.5867 71.4976 17.744C 71.4976 18.808 71.3669 20.1427 71.1056 21.748C 70.6949 21.804 70.1536 21.832 69.4816 21.832L 68.6416 18.584C 68.4176 18.472 67.9696 18.36 67.2976 18.248C 66.6443 18.136 66.0656 18.08 65.5616 18.08C 64.4789 18.08 63.6389 18.3133 63.0416 18.78C 62.4443 19.228 62.1456 19.8627 62.1456 20.684C 62.1456 21.4867 62.4909 22.2147 63.1816 22.868C 63.8909 23.5027 64.7403 24.0533 65.7296 24.52C 66.7376 24.968 67.7363 25.4347 68.7256 25.92C 69.7336 26.4053 70.5829 27.04 71.2736 27.824C 71.9829 28.5893 72.3376 29.4853 72.3376 30.512C 72.3376 32.3787 71.7123 33.8253 70.4616 34.852C 69.2109 35.86 67.5776 36.364 65.5616 36.364C 64.4603 36.364 63.2656 36.196 61.9776 35.86C 60.7083 35.5053 59.6536 35.0573 58.8136 34.516C 58.8509 33.2653 58.9909 31.8187 59.2336 30.176C 59.6443 30.12 60.1856 30.092 60.8576 30.092L 61.4456 33.452C 61.8563 33.62 62.4723 33.7787 63.2936 33.928C 64.1336 34.0587 64.8896 34.124 65.5616 34.124ZM 88.3044 40.144C 87.315 39.752 86.5124 39.472 85.8964 39.304C 85.299 39.136 84.767 39.052 84.3004 39.052C 83.8524 39.052 83.1337 39.164 82.1444 39.388C 81.1737 39.6307 80.6417 39.752 80.5484 39.752C 80.1377 39.416 79.9137 38.9867 79.8764 38.464C 81.911 37.456 83.4697 36.952 84.5524 36.952C 85.579 36.952 87.0444 37.3253 88.9484 38.072C 89.7137 38.3893 90.423 38.6227 91.0764 38.772C 91.7484 38.94 92.9057 39.0427 94.5484 39.08C 94.5484 39.8827 94.203 40.732 93.5124 41.628C 92.523 41.572 91.4404 41.3293 90.2644 40.9C 89.947 40.788 89.2937 40.536 88.3044 40.144ZM 85.8404 34.18C 89.611 34.18 91.4964 31.5293 91.4964 26.228C 91.4964 20.908 89.611 18.248 85.8404 18.248C 84.067 18.248 82.6204 18.5093 81.5004 19.032C 80.4924 21.0293 79.9884 23.3347 79.9884 25.948C 79.9884 28.5427 80.4177 30.568 81.2764 32.024C 82.1537 33.4613 83.675 34.18 85.8404 34.18ZM 77.2444 26.312C 77.2444 23.0267 77.9164 20.4973 79.2604 18.724C 80.623 16.932 82.8257 16.036 85.8684 16.036C 88.9297 16.036 91.0857 16.8573 92.3364 18.5C 93.6057 20.124 94.2404 22.588 94.2404 25.892C 94.2404 29.196 93.559 31.772 92.1964 33.62C 90.8524 35.4493 88.6964 36.364 85.7284 36.364C 82.779 36.364 80.623 35.5147 79.2604 33.816C 77.9164 32.0987 77.2444 29.5973 77.2444 26.312ZM 113.019 31.604C 113.075 31.716 113.15 32.1453 113.243 32.892C 113.355 33.6387 113.411 34.2733 113.411 34.796C 113.411 35.3 113.383 35.7013 113.327 36L 100.027 36L 99.9432 35.02C 100.821 34.7027 101.614 34.488 102.323 34.376C 102.211 27.0213 102.118 21.5987 102.043 18.108C 101.558 18.0333 100.737 17.8093 99.5792 17.436L 99.7192 16.4L 106.467 16.4C 106.785 16.9227 106.943 17.4733 106.943 18.052C 105.935 18.0893 105.207 18.1173 104.759 18.136C 104.722 21.72 104.685 24.9867 104.647 27.936C 104.629 30.8667 104.61 32.9293 104.591 34.124L 110.723 34.124L 111.395 31.464C 112.329 31.464 112.87 31.5107 113.019 31.604ZM 125.418 16.4C 125.922 16.344 126.304 16.316 126.566 16.316C 126.827 16.316 127.256 16.3627 127.854 16.456L 120.182 36C 119.79 36.0747 119.426 36.112 119.09 36.112C 118.754 36.112 118.436 36.0933 118.138 36.056L 125.418 16.4ZM 140.32 16.4C 142.691 16.4 144.445 16.792 145.584 17.576C 146.741 18.3413 147.32 19.704 147.32 21.664C 147.32 23.624 146.751 25.1827 145.612 26.34C 144.473 27.4787 142.635 28.048 140.096 28.048L 137.744 28.048L 137.66 34.124L 139.844 34.32C 139.844 34.8427 139.685 35.4027 139.368 36L 133.068 36L 132.984 35.048C 133.768 34.7493 134.571 34.5253 135.392 34.376C 135.28 27.096 135.187 21.6827 135.112 18.136C 134.608 18.0427 133.787 17.8187 132.648 17.464L 132.788 16.4L 140.32 16.4ZM 139.816 26.228C 141.421 26.2093 142.644 25.808 143.484 25.024C 144.324 24.2213 144.744 23.1667 144.744 21.86C 144.744 20.5533 144.333 19.648 143.512 19.144C 142.691 18.6213 141.375 18.36 139.564 18.36C 139.228 18.36 138.659 18.3693 137.856 18.388C 137.856 18.4067 137.828 21.0293 137.772 26.256L 139.816 26.228ZM 158.441 34.656C 160.009 34.656 161.064 34.1707 161.605 33.2C 162.165 32.2107 162.445 30.8107 162.445 29C 162.445 26.1253 161.811 24.324 160.541 23.596C 160.019 23.2973 159.281 23.148 158.329 23.148C 157.396 23.148 156.509 23.344 155.669 23.736C 154.923 25.1733 154.549 26.844 154.549 28.748C 154.549 30.5773 154.792 31.9867 155.277 32.976C 155.837 34.096 156.892 34.656 158.441 34.656ZM 151.973 29C 151.973 26.6293 152.515 24.7813 153.597 23.456C 154.68 22.112 156.351 21.44 158.609 21.44C 160.868 21.44 162.501 22.056 163.509 23.288C 164.517 24.5013 165.021 26.3027 165.021 28.692C 165.021 31.0813 164.48 32.9573 163.397 34.32C 162.333 35.6827 160.709 36.364 158.525 36.364C 156.341 36.364 154.699 35.7293 153.597 34.46C 152.515 33.1907 151.973 31.3707 151.973 29ZM 172.444 34.208C 173.097 34.488 173.89 34.628 174.824 34.628C 175.776 34.628 176.522 34.4507 177.064 34.096C 177.605 33.7413 177.876 33.256 177.876 32.64C 177.876 32.024 177.624 31.5107 177.12 31.1C 176.616 30.6893 176 30.3253 175.272 30.008C 174.544 29.6907 173.816 29.3547 173.088 29C 172.36 28.6453 171.744 28.1787 171.24 27.6C 170.736 27.0213 170.484 26.3493 170.484 25.584C 170.484 24.296 170.913 23.288 171.772 22.56C 172.63 21.8133 173.816 21.44 175.328 21.44C 176.858 21.44 178.296 21.7853 179.64 22.476C 179.658 22.6627 179.668 23.1667 179.668 23.988C 179.668 24.7907 179.584 25.4813 179.416 26.06C 178.968 26.2093 178.436 26.284 177.82 26.284L 176.896 23.428C 176.485 23.2227 175.925 23.12 175.216 23.12C 174.525 23.12 173.974 23.3067 173.564 23.68C 173.153 24.0347 172.948 24.492 172.948 25.052C 172.948 25.5933 173.2 26.0693 173.704 26.48C 174.226 26.8907 174.852 27.264 175.58 27.6C 176.308 27.9173 177.036 28.2627 177.764 28.636C 178.492 28.9907 179.108 29.4667 179.612 30.064C 180.134 30.6427 180.396 31.3147 180.396 32.08C 180.396 33.424 179.873 34.4787 178.828 35.244C 177.801 35.9907 176.532 36.364 175.02 36.364C 174.198 36.364 173.321 36.2333 172.388 35.972C 171.454 35.692 170.67 35.3373 170.036 34.908C 170.036 33.6573 170.148 32.5467 170.372 31.576C 170.801 31.5013 171.38 31.464 172.108 31.464L 172.444 34.208ZM 187.932 34.264L 187.708 23.708L 185.552 23.708L 185.468 22.728C 185.655 22.5973 186.196 22.3547 187.092 22L 189.388 18.416C 189.761 18.4533 190.051 18.5467 190.256 18.696L 190.228 21.776C 191.628 21.776 192.776 21.8693 193.672 22.056C 193.672 22.56 193.513 23.1107 193.196 23.708L 190.172 23.708C 190.135 25.948 190.097 29.3453 190.06 33.9C 191.105 33.956 192.151 34.1427 193.196 34.46L 193.168 35.44C 192.907 35.608 192.235 35.804 191.152 36.028C 190.088 36.252 189.211 36.364 188.52 36.364C 188.427 36.2147 188.305 35.8973 188.156 35.412C 188.007 34.908 187.932 34.5253 187.932 34.264ZM 206.066 34.292L 208.558 34.236C 211.134 34.236 212.422 35.3 212.422 37.428C 212.422 38.4173 211.993 39.332 211.134 40.172C 210.294 41.0307 209.286 41.6747 208.11 42.104C 206.934 42.5333 205.833 42.748 204.806 42.748C 203.798 42.748 202.856 42.5987 201.978 42.3C 201.101 42.02 200.354 41.5533 199.738 40.9C 199.122 40.2467 198.814 39.4907 198.814 38.632C 198.814 38.4267 199.141 37.8853 199.794 37.008C 200.466 36.1493 200.905 35.6453 201.11 35.496C 200.942 35.384 200.616 35.0667 200.13 34.544C 199.645 34.0027 199.374 33.6293 199.318 33.424C 199.785 32.5653 200.522 31.7253 201.53 30.904C 200.037 30.008 199.29 28.5333 199.29 26.48C 199.29 24.8373 199.813 23.5867 200.858 22.728C 201.904 21.8693 203.21 21.44 204.778 21.44C 206.346 21.44 207.56 21.692 208.418 22.196C 209.912 21.8973 211.377 21.748 212.814 21.748C 213.169 21.748 213.346 21.9627 213.346 22.392C 213.346 23.1387 213.206 23.652 212.926 23.932L 209.706 23.4C 210.378 24.2587 210.714 25.2853 210.714 26.48C 210.714 28.3467 210.164 29.6907 209.062 30.512C 207.961 31.3147 206.608 31.716 205.002 31.716C 204.498 31.716 203.901 31.6507 203.21 31.52C 202.93 32.0987 202.576 32.724 202.146 33.396C 202.482 33.9933 203.789 34.292 206.066 34.292ZM 209.622 39.444C 209.809 38.9213 209.902 38.38 209.902 37.82C 209.902 37.2787 209.688 36.84 209.258 36.504C 208.829 36.168 208.278 36 207.606 36C 204.937 36 203.304 35.972 202.706 35.916C 202.202 36.7187 201.848 37.3907 201.642 37.932C 201.456 38.492 201.362 38.8093 201.362 38.884C 201.362 39.612 201.708 40.1533 202.398 40.508C 203.089 40.8627 203.882 41.04 204.778 41.04C 205.693 41.04 206.608 40.8907 207.522 40.592C 208.456 40.2933 209.156 39.9107 209.622 39.444ZM 208.194 26.592C 208.194 24.2773 207.13 23.12 205.002 23.12C 202.874 23.12 201.81 24.24 201.81 26.48C 201.81 27.6187 202.09 28.496 202.65 29.112C 203.21 29.728 204.022 30.036 205.086 30.036C 207.158 30.036 208.194 28.888 208.194 26.592ZM 226.538 23.792C 226.444 23.6987 226.239 23.652 225.922 23.652C 225.604 23.652 225.128 23.764 224.494 23.988C 223.878 24.212 223.318 24.4733 222.814 24.772C 222.702 28.916 222.627 32.024 222.59 34.096L 224.942 34.32C 224.942 34.8427 224.783 35.4027 224.466 36L 218.026 36L 217.942 35.02C 218.8 34.7213 219.64 34.4973 220.462 34.348C 220.35 29.6067 220.256 26.0973 220.182 23.82C 219.155 23.764 218.334 23.652 217.718 23.484L 217.83 22.028C 218.819 21.748 220.284 21.608 222.226 21.608C 222.524 22.0747 222.711 22.672 222.786 23.4C 224.932 22.0933 226.211 21.44 226.622 21.44C 227.032 21.44 227.508 21.524 228.05 21.692C 228.591 21.8413 228.992 22.0093 229.254 22.196C 229.254 24.0627 229.076 25.584 228.722 26.76C 228.46 26.8347 228.152 26.872 227.798 26.872C 227.462 26.872 227.228 26.8627 227.098 26.844L 226.538 23.792ZM 240.712 34.432C 241.533 34.432 242.821 34.04 244.576 33.256C 244.931 33.7413 245.117 34.1707 245.136 34.544C 244.184 35.104 243.251 35.5427 242.336 35.86C 241.421 36.1773 240.768 36.336 240.376 36.336C 238.211 36.336 236.559 35.692 235.42 34.404C 234.281 33.0973 233.712 31.2773 233.712 28.944C 233.712 26.6107 234.263 24.7813 235.364 23.456C 236.484 22.112 238.155 21.44 240.376 21.44C 242.093 21.44 243.4 22.056 244.296 23.288C 245.211 24.52 245.668 26.172 245.668 28.244C 245.519 28.5053 245.397 28.6827 245.304 28.776L 236.288 28.636C 236.307 30.5213 236.633 31.9587 237.268 32.948C 237.921 33.9373 239.069 34.432 240.712 34.432ZM 243.12 27.04C 243.12 25.808 242.896 24.856 242.448 24.184C 242 23.4933 241.253 23.148 240.208 23.148C 239.163 23.148 238.229 23.344 237.408 23.736C 236.848 24.856 236.493 26.004 236.344 27.18C 237.819 27.1613 240.077 27.1147 243.12 27.04Z" transform="translate(-9 846)" fill="white"/>
</g>
<g id="Skillset">
<path d="M 47.4376 34.024C 49.8349 34.024 51.0336 33.001 51.0336 30.955C 51.0336 30.087 50.5789 29.3533 49.6696 28.754C 49.0083 28.2993 48.0989 27.8137 46.9416 27.297C 45.8049 26.7597 44.9473 26.336 44.3686 26.026C 43.8106 25.716 43.1596 25.282 42.4156 24.724C 40.9896 23.6287 40.2766 22.2647 40.2766 20.632C 40.2766 18.9993 40.9069 17.6457 42.1676 16.571C 43.4489 15.4757 45.1746 14.928 47.3446 14.928C 49.5146 14.928 51.8293 15.6203 54.2886 17.005C 54.2886 18.493 54.1336 20.105 53.8236 21.841C 53.1623 22.0477 52.1806 22.151 50.8786 22.151L 49.9796 18.462C 49.2149 18.2347 48.3779 18.121 47.4686 18.121C 46.5593 18.121 45.8566 18.3173 45.3606 18.71C 44.8646 19.1027 44.6166 19.6917 44.6166 20.477C 44.6166 21.2417 44.9989 21.934 45.7636 22.554C 46.5489 23.1533 47.4893 23.7113 48.5846 24.228C 49.6799 24.724 50.4343 25.0753 50.8476 25.282C 51.2609 25.4887 51.7879 25.7987 52.4286 26.212C 53.0693 26.6253 53.5549 27.018 53.8856 27.39C 54.7329 28.382 55.1566 29.4877 55.1566 30.707C 55.1566 32.8563 54.4436 34.5097 53.0176 35.667C 51.5916 36.8243 49.7316 37.403 47.4376 37.403C 46.2183 37.403 44.8749 37.1963 43.4076 36.783C 41.9609 36.349 40.7313 35.8013 39.7186 35.14C 39.7599 33.8793 39.9253 32.1743 40.2146 30.025C 41.0413 29.8597 42.0333 29.777 43.1906 29.777L 43.8416 33.497C 44.9783 33.8483 46.1769 34.024 47.4376 34.024ZM 66.6651 31.637L 66.6341 34.024L 69.0521 34.303C 69.0521 35.1503 68.8144 36.0493 68.3391 37L 60.6201 37L 60.3411 35.295C 61.6224 34.8197 62.5524 34.5097 63.1311 34.365L 62.5421 17.16C 61.5708 17.0567 60.7544 16.9017 60.0931 16.695C 60.0931 15.9303 60.1654 15.1863 60.3101 14.463C 61.5294 14.1323 63.6168 13.967 66.5721 13.967C 66.9648 13.967 67.2128 13.9773 67.3161 13.998C 67.3161 15.0727 67.1818 16.013 66.9131 16.819C 66.7891 21.779 66.7271 25.4577 66.7271 27.855L 70.4161 24.197L 68.4941 23.949C 68.4941 23.1017 68.7318 22.2027 69.2071 21.252L 76.9261 21.252L 77.2051 22.957C 75.9238 23.4323 74.9938 23.7423 74.4151 23.887L 71.0051 27.297L 75.3451 34.024L 77.7631 34.303C 77.7631 35.1503 77.5254 36.0493 77.0501 37L 73.0821 37L 68.4941 29.808L 66.6651 31.637ZM 88.6385 21.128C 89.0312 21.128 89.2792 21.1383 89.3825 21.159C 89.3825 22.1717 89.2069 23.112 88.8555 23.98C 88.7729 28.444 88.7212 31.792 88.7005 34.024L 91.1185 34.303C 91.1185 35.1503 90.8809 36.0493 90.4055 37L 82.6865 37L 82.4075 35.295C 83.6889 34.8197 84.6189 34.5097 85.1975 34.365L 84.8565 24.321C 83.6372 24.197 82.7382 24.042 82.1595 23.856C 82.1595 23.3393 82.2319 22.5953 82.3765 21.624C 83.5959 21.2933 85.6832 21.128 88.6385 21.128ZM 88.6385 15.269C 88.8245 16.199 88.9175 16.912 88.9175 17.408C 88.9175 17.8833 88.8762 18.4207 88.7935 19.02C 87.9669 19.206 87.2642 19.299 86.6855 19.299C 86.1275 19.299 85.4455 19.268 84.6395 19.206C 84.4535 18.276 84.3605 17.5733 84.3605 17.098C 84.3605 16.602 84.4019 16.0543 84.4845 15.455C 85.3112 15.269 86.0035 15.176 86.5615 15.176C 87.1402 15.176 87.8325 15.207 88.6385 15.269ZM 101.244 13.967C 101.636 13.967 101.884 13.9773 101.988 13.998C 101.988 15.0727 101.853 16.013 101.585 16.819C 101.564 18.1003 101.533 19.9087 101.492 22.244C 101.409 27.3693 101.347 31.296 101.306 34.024L 103.724 34.303C 103.724 35.1503 103.486 36.0493 103.011 37L 95.2917 37L 95.0127 35.295C 96.294 34.8197 97.224 34.5097 97.8027 34.365L 97.2137 17.16C 96.2423 17.0567 95.426 16.9017 94.7647 16.695C 94.7647 15.9303 94.837 15.1863 94.9817 14.463C 96.201 14.1323 98.2883 13.967 101.244 13.967ZM 113.796 13.967C 114.189 13.967 114.437 13.9773 114.54 13.998C 114.54 15.0727 114.406 16.013 114.137 16.819C 114.117 18.1003 114.086 19.9087 114.044 22.244C 113.962 27.3693 113.9 31.296 113.858 34.024L 116.276 34.303C 116.276 35.1503 116.039 36.0493 115.563 37L 107.844 37L 107.565 35.295C 108.847 34.8197 109.777 34.5097 110.355 34.365L 109.766 17.16C 108.795 17.0567 107.979 16.9017 107.317 16.695C 107.317 15.9303 107.39 15.1863 107.534 14.463C 108.754 14.1323 110.841 13.967 113.796 13.967ZM 131.65 22.213L 131.681 23.174C 131.681 24.786 131.557 25.84 131.309 26.336C 130.627 26.584 129.676 26.708 128.457 26.708L 127.465 23.577C 127.196 23.4737 126.824 23.422 126.349 23.422C 125.874 23.422 125.481 23.5667 125.171 23.856C 124.882 24.1453 124.737 24.4863 124.737 24.879C 124.737 25.2717 124.892 25.6333 125.202 25.964C 125.512 26.274 125.832 26.522 126.163 26.708C 126.494 26.894 126.969 27.142 127.589 27.452C 128.23 27.7413 128.705 27.9687 129.015 28.134C 129.346 28.2993 129.759 28.5473 130.255 28.878C 130.772 29.2087 131.164 29.5187 131.433 29.808C 132.094 30.5933 132.425 31.451 132.425 32.381C 132.425 33.9723 131.815 35.202 130.596 36.07C 129.397 36.938 127.92 37.372 126.163 37.372C 125.233 37.372 124.21 37.2067 123.094 36.876C 121.999 36.5453 121.069 36.101 120.304 35.543C 120.304 34.055 120.449 32.6703 120.738 31.389C 121.565 31.2857 122.236 31.234 122.753 31.234C 123.27 31.234 123.621 31.2443 123.807 31.265L 124.179 34.272C 124.696 34.458 125.316 34.551 126.039 34.551C 126.762 34.551 127.331 34.4063 127.744 34.117C 128.178 33.8277 128.395 33.4247 128.395 32.908C 128.395 32.3707 128.157 31.9263 127.682 31.575C 127.207 31.2237 126.556 30.862 125.729 30.49C 124.902 30.0973 124.262 29.777 123.807 29.529C 123.352 29.2603 122.867 28.9193 122.35 28.506C 121.296 27.7 120.769 26.708 120.769 25.53C 120.769 24.0627 121.275 22.926 122.288 22.12C 123.321 21.2933 124.706 20.88 126.442 20.88C 128.178 20.88 129.914 21.3243 131.65 22.213ZM 145.914 34.334C 146.617 34.334 148.043 33.8483 150.192 32.877C 150.647 33.5383 150.988 34.303 151.215 35.171C 150.079 35.8737 148.963 36.4213 147.867 36.814C 146.793 37.186 146.028 37.372 145.573 37.372C 143.073 37.372 141.171 36.6797 139.869 35.295C 138.588 33.9103 137.947 31.947 137.947 29.405C 137.947 26.8423 138.588 24.786 139.869 23.236C 141.151 21.6653 143.052 20.88 145.573 20.88C 147.578 20.88 149.107 21.531 150.161 22.833C 151.215 24.135 151.742 25.8297 151.742 27.917C 151.742 28.351 151.494 28.847 150.998 29.405L 142.07 29.25C 142.112 30.9033 142.422 32.164 143 33.032C 143.579 33.9 144.55 34.334 145.914 34.334ZM 145.294 23.453C 144.509 23.453 143.775 23.608 143.093 23.918C 142.618 24.91 142.318 25.8297 142.194 26.677C 143.806 26.615 145.635 26.5737 147.681 26.553C 147.578 24.4863 146.782 23.453 145.294 23.453ZM 160.693 37.372L 160.011 37.341C 159.887 37.1137 159.721 36.69 159.515 36.07C 159.308 35.45 159.194 34.985 159.174 34.675C 159.07 32.629 158.957 29.0847 158.833 24.042L 156.663 24.042L 156.756 22.275C 157.231 21.9443 157.799 21.6447 158.461 21.376L 160.972 17.408C 161.778 17.4907 162.408 17.7077 162.863 18.059L 162.832 21.004C 164.134 21.0453 165.343 21.1693 166.459 21.376C 166.459 22.2027 166.2 23.0913 165.684 24.042L 162.801 24.042C 162.718 28.382 162.666 31.637 162.646 33.807C 163.472 33.8897 164.599 34.1273 166.025 34.52L 165.994 36.132C 165.642 36.3593 164.857 36.628 163.638 36.938C 162.439 37.2273 161.457 37.372 160.693 37.372Z" transform="translate(70.8319 10)" fill="white"/>
</g>
<g id="HTML">
<path d="M 81.8082 24.772L 90.9362 24.8C 90.8988 22.5227 90.8428 20.2733 90.7682 18.052C 90.0775 17.9213 89.2468 17.6973 88.2762 17.38L 88.3602 16.4L 95.3602 16.4C 95.6775 16.9973 95.8362 17.5573 95.8362 18.08C 94.9028 18.1547 94.1562 18.192 93.5962 18.192L 93.2882 34.096L 95.6402 34.32C 95.6402 34.8427 95.4815 35.4027 95.1642 36L 88.7242 36L 88.6402 35.02C 89.5175 34.7213 90.3762 34.4973 91.2162 34.348L 90.9922 26.564L 81.7522 26.564C 81.7148 29.924 81.6962 32.4347 81.6962 34.096L 84.0482 34.32C 84.0482 34.8427 83.8895 35.4027 83.5722 36L 77.1322 36L 77.0482 35.02C 77.9255 34.7213 78.7842 34.4973 79.6242 34.348C 79.4375 27.1053 79.2882 21.6733 79.1762 18.052C 78.4855 17.9213 77.6548 17.6973 76.6842 17.38L 76.7682 16.4L 83.7682 16.4C 84.0855 16.9973 84.2442 17.5573 84.2442 18.08C 83.3108 18.1547 82.5642 18.192 82.0042 18.192C 81.9482 19.6107 81.8828 21.804 81.8082 24.772ZM 109.952 18.136C 109.859 21.272 109.756 26.592 109.644 34.096L 111.996 34.32C 111.996 34.8427 111.837 35.4027 111.52 36L 105.08 36L 104.996 35.02C 106.079 34.628 106.937 34.404 107.572 34.348C 107.385 27.1427 107.236 21.7387 107.124 18.136L 103.036 18.136L 102.364 20.992L 100.74 20.88C 100.46 19.7413 100.32 18.584 100.32 17.408C 100.32 17.184 100.339 16.848 100.376 16.4L 116.504 16.4C 116.541 16.6427 116.56 17.016 116.56 17.52C 116.56 18.528 116.429 19.6293 116.168 20.824C 115.757 20.936 115.216 20.992 114.544 20.992L 113.844 18.136L 109.952 18.136ZM 141.539 18.332L 144.479 34.096L 147.027 34.348C 147.027 34.852 146.868 35.4027 146.551 36L 140.111 36L 140.027 35.02C 140.587 34.7773 141.277 34.5813 142.099 34.432L 139.103 18.724L 135.407 34.656L 132.635 34.656L 127.539 18.668L 125.271 34.096L 127.651 34.32C 127.651 34.8427 127.492 35.4027 127.175 36L 120.735 36L 120.651 35.02C 121.472 34.7213 122.293 34.4973 123.115 34.348L 125.579 18.108C 124.44 17.94 123.535 17.744 122.863 17.52L 122.975 16.4L 129.499 16.4L 133.951 31.744L 134.063 31.744L 137.535 16.4L 143.779 16.4C 144.096 16.9973 144.255 17.576 144.255 18.136C 143.041 18.2667 142.136 18.332 141.539 18.332ZM 165.89 31.604C 165.946 31.716 166.02 32.1453 166.114 32.892C 166.226 33.6387 166.282 34.2733 166.282 34.796C 166.282 35.3 166.254 35.7013 166.198 36L 152.898 36L 152.814 35.02C 153.691 34.7027 154.484 34.488 155.194 34.376C 155.082 27.0213 154.988 21.5987 154.914 18.108C 154.428 18.0333 153.607 17.8093 152.45 17.436L 152.59 16.4L 159.338 16.4C 159.655 16.9227 159.814 17.4733 159.814 18.052C 158.806 18.0893 158.078 18.1173 157.63 18.136C 157.592 21.72 157.555 24.9867 157.518 27.936C 157.499 30.8667 157.48 32.9293 157.462 34.124L 163.594 34.124L 164.266 31.464C 165.199 31.464 165.74 31.5107 165.89 31.604Z" transform="translate(70.8319 138)" fill="white"/>
</g>
<g id="CSS">
<path d="M 121.076 36.364C 115.588 36.364 112.844 32.92 112.844 26.032C 112.844 22.7653 113.506 20.2827 114.832 18.584C 116.176 16.8853 118.313 16.036 121.244 16.036C 123.596 16.036 125.686 16.6893 127.516 17.996C 127.516 19.0413 127.385 20.3667 127.124 21.972C 126.862 22.028 126.321 22.056 125.5 22.056L 124.66 18.584C 123.334 18.3413 122.27 18.22 121.468 18.22C 119.993 18.22 118.696 18.4253 117.576 18.836L 117.044 19.032C 116.932 19.2187 116.792 19.4987 116.624 19.872C 116.456 20.2267 116.232 20.9827 115.952 22.14C 115.69 23.2973 115.56 24.4827 115.56 25.696C 115.56 28.328 115.989 30.4187 116.848 31.968C 117.725 33.5173 119.116 34.292 121.02 34.292C 122.382 34.292 123.409 34.152 124.1 33.872C 124.286 33.7787 124.557 33.6387 124.912 33.452L 125.5 30.092L 127.124 30.176C 127.404 32.0987 127.544 33.6573 127.544 34.852C 127.152 35.1507 126.302 35.4773 124.996 35.832C 123.708 36.1867 122.401 36.364 121.076 36.364ZM 139.914 34.124C 142.696 34.124 144.086 32.9947 144.086 30.736C 144.086 29.6347 143.405 28.7013 142.042 27.936C 141.426 27.5813 140.745 27.2453 139.998 26.928C 139.27 26.6107 138.533 26.2653 137.786 25.892C 137.04 25.5187 136.358 25.1173 135.742 24.688C 135.145 24.2587 134.65 23.7173 134.258 23.064C 133.885 22.4107 133.698 21.6733 133.698 20.852C 133.698 19.508 134.24 18.3693 135.322 17.436C 136.424 16.484 137.926 16.008 139.83 16.008C 141.734 16.008 143.741 16.5867 145.85 17.744C 145.85 18.808 145.72 20.1427 145.458 21.748C 145.048 21.804 144.506 21.832 143.834 21.832L 142.994 18.584C 142.77 18.472 142.322 18.36 141.65 18.248C 140.997 18.136 140.418 18.08 139.914 18.08C 138.832 18.08 137.992 18.3133 137.394 18.78C 136.797 19.228 136.498 19.8627 136.498 20.684C 136.498 21.4867 136.844 22.2147 137.534 22.868C 138.244 23.5027 139.093 24.0533 140.082 24.52C 141.09 24.968 142.089 25.4347 143.078 25.92C 144.086 26.4053 144.936 27.04 145.626 27.824C 146.336 28.5893 146.69 29.4853 146.69 30.512C 146.69 32.3787 146.065 33.8253 144.814 34.852C 143.564 35.86 141.93 36.364 139.914 36.364C 138.813 36.364 137.618 36.196 136.33 35.86C 135.061 35.5053 134.006 35.0573 133.166 34.516C 133.204 33.2653 133.344 31.8187 133.586 30.176C 133.997 30.12 134.538 30.092 135.21 30.092L 135.798 33.452C 136.209 33.62 136.825 33.7787 137.646 33.928C 138.486 34.0587 139.242 34.124 139.914 34.124ZM 159.045 34.124C 161.827 34.124 163.217 32.9947 163.217 30.736C 163.217 29.6347 162.536 28.7013 161.173 27.936C 160.557 27.5813 159.876 27.2453 159.129 26.928C 158.401 26.6107 157.664 26.2653 156.917 25.892C 156.171 25.5187 155.489 25.1173 154.873 24.688C 154.276 24.2587 153.781 23.7173 153.389 23.064C 153.016 22.4107 152.829 21.6733 152.829 20.852C 152.829 19.508 153.371 18.3693 154.453 17.436C 155.555 16.484 157.057 16.008 158.961 16.008C 160.865 16.008 162.872 16.5867 164.981 17.744C 164.981 18.808 164.851 20.1427 164.589 21.748C 164.179 21.804 163.637 21.832 162.965 21.832L 162.125 18.584C 161.901 18.472 161.453 18.36 160.781 18.248C 160.128 18.136 159.549 18.08 159.045 18.08C 157.963 18.08 157.123 18.3133 156.525 18.78C 155.928 19.228 155.629 19.8627 155.629 20.684C 155.629 21.4867 155.975 22.2147 156.665 22.868C 157.375 23.5027 158.224 24.0533 159.213 24.52C 160.221 24.968 161.22 25.4347 162.209 25.92C 163.217 26.4053 164.067 27.04 164.757 27.824C 165.467 28.5893 165.821 29.4853 165.821 30.512C 165.821 32.3787 165.196 33.8253 163.945 34.852C 162.695 35.86 161.061 36.364 159.045 36.364C 157.944 36.364 156.749 36.196 155.461 35.86C 154.192 35.5053 153.137 35.0573 152.297 34.516C 152.335 33.2653 152.475 31.8187 152.717 30.176C 153.128 30.12 153.669 30.092 154.341 30.092L 154.929 33.452C 155.34 33.62 155.956 33.7787 156.777 33.928C 157.617 34.0587 158.373 34.124 159.045 34.124Z" transform="translate(70.8319 238)" fill="white"/>
</g>
<g id="JQuery">
<path d="M 64.5271 33.956C 65.0311 34.1427 65.6938 34.236 66.5151 34.236C 67.3365 34.236 67.9805 34.0027 68.4471 33.536C 68.9325 33.0507 69.1751 32.192 69.1751 30.96C 69.1751 29.7093 69.1565 28.384 69.1191 26.984C 69.0818 25.584 69.0258 23.9973 68.9511 22.224C 68.8765 20.432 68.8205 19.0413 68.7831 18.052C 68.2231 17.9773 67.4018 17.7533 66.3191 17.38L 66.4031 16.4L 73.4031 16.4C 73.7205 16.9973 73.8791 17.5573 73.8791 18.08C 73.6551 18.1547 72.9085 18.192 71.6391 18.192C 71.6018 19.8533 71.5551 22.2147 71.4991 25.276C 71.4618 28.3373 71.4338 30.3533 71.4151 31.324C 71.3778 32.9107 70.9951 34.152 70.2671 35.048C 69.5578 35.9253 68.5125 36.364 67.1311 36.364C 66.1231 36.364 65.0871 36.224 64.0231 35.944C 62.9591 35.664 62.2405 35.384 61.8671 35.104C 61.8858 33.6853 62.0351 32.1547 62.3151 30.512C 62.6138 30.3813 63.1645 30.316 63.9671 30.316L 64.5271 33.956ZM 89.4154 40.144C 88.4261 39.752 87.6234 39.472 87.0074 39.304C 86.4101 39.136 85.8781 39.052 85.4114 39.052C 84.9634 39.052 84.2447 39.164 83.2554 39.388C 82.2847 39.6307 81.7527 39.752 81.6594 39.752C 81.2487 39.416 81.0247 38.9867 80.9874 38.464C 83.0221 37.456 84.5807 36.952 85.6634 36.952C 86.6901 36.952 88.1554 37.3253 90.0594 38.072C 90.8247 38.3893 91.5341 38.6227 92.1874 38.772C 92.8594 38.94 94.0167 39.0427 95.6594 39.08C 95.6594 39.8827 95.3141 40.732 94.6234 41.628C 93.6341 41.572 92.5514 41.3293 91.3754 40.9C 91.0581 40.788 90.4047 40.536 89.4154 40.144ZM 86.9514 34.18C 90.7221 34.18 92.6074 31.5293 92.6074 26.228C 92.6074 20.908 90.7221 18.248 86.9514 18.248C 85.1781 18.248 83.7314 18.5093 82.6114 19.032C 81.6034 21.0293 81.0994 23.3347 81.0994 25.948C 81.0994 28.5427 81.5287 30.568 82.3874 32.024C 83.2647 33.4613 84.7861 34.18 86.9514 34.18ZM 78.3554 26.312C 78.3554 23.0267 79.0274 20.4973 80.3714 18.724C 81.7341 16.932 83.9367 16.036 86.9794 16.036C 90.0407 16.036 92.1967 16.8573 93.4474 18.5C 94.7167 20.124 95.3514 22.588 95.3514 25.892C 95.3514 29.196 94.6701 31.772 93.3074 33.62C 91.9634 35.4493 89.8074 36.364 86.8394 36.364C 83.8901 36.364 81.7341 35.5147 80.3714 33.816C 79.0274 32.0987 78.3554 29.5973 78.3554 26.312ZM 106.99 34.152C 107.532 34.152 108.138 34.04 108.81 33.816C 109.482 33.5733 110.033 33.284 110.462 32.948C 110.388 28.972 110.322 25.9573 110.266 23.904C 109.109 23.904 108.25 23.792 107.69 23.568L 107.802 22.112C 109.389 21.832 110.63 21.692 111.526 21.692C 112.441 21.692 113.02 21.7107 113.262 21.748C 113.262 22.084 113.206 22.532 113.094 23.092C 113.001 23.652 112.936 23.96 112.898 24.016L 112.562 34.012C 113.552 34.068 114.354 34.18 114.97 34.348L 114.914 35.776C 114.093 36.0373 113.3 36.168 112.534 36.168C 111.769 36.168 111.302 36.1587 111.134 36.14C 110.78 35.4307 110.574 34.7773 110.518 34.18C 109.604 34.8707 108.754 35.4027 107.97 35.776C 107.205 36.1493 106.701 36.336 106.458 36.336C 104.816 36.336 103.621 35.8973 102.874 35.02C 102.146 34.124 101.782 32.8173 101.782 31.1C 101.782 31.0813 101.866 28.692 102.034 23.932C 100.952 23.932 99.9529 23.8107 99.0382 23.568L 99.1502 22.112C 100.737 21.832 101.969 21.692 102.846 21.692C 103.724 21.692 104.284 21.7107 104.526 21.748C 104.526 22.196 104.47 22.6907 104.358 23.232C 104.246 23.7733 104.181 24.0347 104.162 24.016L 104.19 30.064C 104.19 31.4827 104.368 32.5187 104.722 33.172C 105.077 33.8253 105.833 34.152 106.99 34.152ZM 126.611 34.432C 127.432 34.432 128.72 34.04 130.475 33.256C 130.829 33.7413 131.016 34.1707 131.035 34.544C 130.083 35.104 129.149 35.5427 128.235 35.86C 127.32 36.1773 126.667 36.336 126.275 36.336C 124.109 36.336 122.457 35.692 121.319 34.404C 120.18 33.0973 119.611 31.2773 119.611 28.944C 119.611 26.6107 120.161 24.7813 121.263 23.456C 122.383 22.112 124.053 21.44 126.275 21.44C 127.992 21.44 129.299 22.056 130.195 23.288C 131.109 24.52 131.567 26.172 131.567 28.244C 131.417 28.5053 131.296 28.6827 131.203 28.776L 122.187 28.636C 122.205 30.5213 122.532 31.9587 123.167 32.948C 123.82 33.9373 124.968 34.432 126.611 34.432ZM 129.019 27.04C 129.019 25.808 128.795 24.856 128.347 24.184C 127.899 23.4933 127.152 23.148 126.107 23.148C 125.061 23.148 124.128 23.344 123.307 23.736C 122.747 24.856 122.392 26.004 122.243 27.18C 123.717 27.1613 125.976 27.1147 129.019 27.04ZM 145.503 23.792C 145.409 23.6987 145.204 23.652 144.887 23.652C 144.569 23.652 144.093 23.764 143.459 23.988C 142.843 24.212 142.283 24.4733 141.779 24.772C 141.667 28.916 141.592 32.024 141.555 34.096L 143.907 34.32C 143.907 34.8427 143.748 35.4027 143.431 36L 136.991 36L 136.907 35.02C 137.765 34.7213 138.605 34.4973 139.427 34.348C 139.315 29.6067 139.221 26.0973 139.147 23.82C 138.12 23.764 137.299 23.652 136.683 23.484L 136.795 22.028C 137.784 21.748 139.249 21.608 141.191 21.608C 141.489 22.0747 141.676 22.672 141.751 23.4C 143.897 22.0933 145.176 21.44 145.587 21.44C 145.997 21.44 146.473 21.524 147.015 21.692C 147.556 21.8413 147.957 22.0093 148.219 22.196C 148.219 24.0627 148.041 25.584 147.687 26.76C 147.425 26.8347 147.117 26.872 146.763 26.872C 146.427 26.872 146.193 26.8627 146.063 26.844L 145.503 23.792ZM 155.477 41.208C 156.186 41.208 156.877 40.5267 157.549 39.164C 158.239 37.8013 158.631 36.7467 158.725 36L 158.053 36L 153.629 23.68L 151.277 23.456C 151.277 22.9333 151.435 22.3733 151.753 21.776L 158.193 21.776L 158.277 22.756C 157.679 23.0173 157.017 23.2227 156.289 23.372L 158.725 31.016L 159.369 33.48L 159.649 33.48L 163.009 23.372L 160.657 22.756L 160.741 21.776L 167.041 21.776C 167.358 22.3733 167.517 22.9333 167.517 23.456C 166.751 23.5493 165.986 23.6147 165.221 23.652C 164.735 25.0707 164.007 27.1893 163.037 30.008C 162.085 32.8267 161.329 35.0107 160.769 36.56C 160.227 38.1093 159.686 39.3693 159.145 40.34C 158.603 41.3107 158.062 41.9547 157.521 42.272C 156.998 42.608 156.41 42.776 155.757 42.776C 154.599 42.776 153.517 42.552 152.509 42.104L 152.005 41.852C 152.135 39.724 152.219 38.5573 152.257 38.352C 152.406 38.296 152.947 38.268 153.881 38.268L 154.833 41.124C 155.001 41.18 155.215 41.208 155.477 41.208Z" transform="translate(70.8319 338)" fill="white"/>
</g>
<g id="NodeJS">
<path d="M 61.5421 19.872L 61.2621 34.096L 63.6141 34.32C 63.6141 34.8427 63.4554 35.4027 63.1381 36L 56.6981 36L 56.6141 35.02C 57.6221 34.684 58.4807 34.46 59.1901 34.348C 59.1527 33.1347 59.0874 30.6333 58.9941 26.844C 58.9194 23.0547 58.8541 20.124 58.7981 18.052C 58.0887 17.94 57.2487 17.716 56.2781 17.38L 56.3621 16.4L 61.9061 16.4L 72.1261 32.724L 71.6501 18.052C 70.9594 17.9213 70.1287 17.6973 69.1581 17.38L 69.2421 16.4L 76.2421 16.4C 76.5594 16.9973 76.7181 17.5573 76.7181 18.08C 75.7847 18.1547 75.0381 18.192 74.4781 18.192L 74.1981 36L 71.4821 36L 61.5421 19.872ZM 87.9784 34.656C 89.5464 34.656 90.6011 34.1707 91.1424 33.2C 91.7024 32.2107 91.9824 30.8107 91.9824 29C 91.9824 26.1253 91.3478 24.324 90.0784 23.596C 89.5558 23.2973 88.8184 23.148 87.8664 23.148C 86.9331 23.148 86.0464 23.344 85.2064 23.736C 84.4598 25.1733 84.0864 26.844 84.0864 28.748C 84.0864 30.5773 84.3291 31.9867 84.8144 32.976C 85.3744 34.096 86.4291 34.656 87.9784 34.656ZM 81.5104 29C 81.5104 26.6293 82.0518 24.7813 83.1344 23.456C 84.2171 22.112 85.8878 21.44 88.1464 21.44C 90.4051 21.44 92.0384 22.056 93.0464 23.288C 94.0544 24.5013 94.5584 26.3027 94.5584 28.692C 94.5584 31.0813 94.0171 32.9573 92.9344 34.32C 91.8704 35.6827 90.2464 36.364 88.0624 36.364C 85.8784 36.364 84.2358 35.7293 83.1344 34.46C 82.0518 33.1907 81.5104 31.3707 81.5104 29ZM 109.289 23.036L 109.205 17.436C 108.178 17.38 107.357 17.268 106.741 17.1L 106.853 15.644C 107.805 15.364 109.186 15.224 110.997 15.224C 111.576 15.224 111.986 15.2427 112.229 15.28C 112.229 15.616 112.173 16.064 112.061 16.624C 111.968 17.1653 111.902 17.464 111.865 17.52L 111.613 34.068C 112.378 34.1053 113.19 34.236 114.049 34.46L 113.993 35.44C 112.705 36.0373 111.566 36.336 110.577 36.336C 110.372 36.336 110.213 36.3267 110.101 36.308C 109.952 36.028 109.765 35.384 109.541 34.376C 107.394 35.5893 105.892 36.2427 105.033 36.336C 103.241 36.336 101.897 35.6547 101.001 34.292C 100.105 32.9293 99.6568 31.184 99.6568 29.056C 99.6568 26.9093 100.105 25.108 101.001 23.652C 101.916 22.1773 103.26 21.44 105.033 21.44C 106.414 21.44 107.833 21.972 109.289 23.036ZM 105.509 23.344C 103.325 23.344 102.233 25.136 102.233 28.72C 102.233 30.12 102.457 31.3333 102.905 32.36C 103.129 32.92 103.456 33.368 103.885 33.704C 104.333 34.04 104.846 34.208 105.425 34.208C 106.004 34.208 106.676 34.0773 107.441 33.816C 108.225 33.5547 108.897 33.256 109.457 32.92L 109.289 24.94C 108.785 24.5107 108.169 24.1373 107.441 23.82C 106.713 23.5027 106.069 23.344 105.509 23.344ZM 125.681 34.432C 126.502 34.432 127.79 34.04 129.545 33.256C 129.9 33.7413 130.086 34.1707 130.105 34.544C 129.153 35.104 128.22 35.5427 127.305 35.86C 126.39 36.1773 125.737 36.336 125.345 36.336C 123.18 36.336 121.528 35.692 120.389 34.404C 119.25 33.0973 118.681 31.2773 118.681 28.944C 118.681 26.6107 119.232 24.7813 120.333 23.456C 121.453 22.112 123.124 21.44 125.345 21.44C 127.062 21.44 128.369 22.056 129.265 23.288C 130.18 24.52 130.637 26.172 130.637 28.244C 130.488 28.5053 130.366 28.6827 130.273 28.776L 121.257 28.636C 121.276 30.5213 121.602 31.9587 122.237 32.948C 122.89 33.9373 124.038 34.432 125.681 34.432ZM 128.089 27.04C 128.089 25.808 127.865 24.856 127.417 24.184C 126.969 23.4933 126.222 23.148 125.177 23.148C 124.132 23.148 123.198 23.344 122.377 23.736C 121.817 24.856 121.462 26.004 121.313 27.18C 122.788 27.1613 125.046 27.1147 128.089 27.04ZM 137.769 33.956C 138.273 34.1427 138.936 34.236 139.757 34.236C 140.578 34.236 141.222 34.0027 141.689 33.536C 142.174 33.0507 142.417 32.192 142.417 30.96C 142.417 29.7093 142.398 28.384 142.361 26.984C 142.324 25.584 142.268 23.9973 142.193 22.224C 142.118 20.432 142.062 19.0413 142.025 18.052C 141.465 17.9773 140.644 17.7533 139.561 17.38L 139.645 16.4L 146.645 16.4C 146.962 16.9973 147.121 17.5573 147.121 18.08C 146.897 18.1547 146.15 18.192 144.881 18.192C 144.844 19.8533 144.797 22.2147 144.741 25.276C 144.704 28.3373 144.676 30.3533 144.657 31.324C 144.62 32.9107 144.237 34.152 143.509 35.048C 142.8 35.9253 141.754 36.364 140.373 36.364C 139.365 36.364 138.329 36.224 137.265 35.944C 136.201 35.664 135.482 35.384 135.109 35.104C 135.128 33.6853 135.277 32.1547 135.557 30.512C 135.856 30.3813 136.406 30.316 137.209 30.316L 137.769 33.956ZM 159.045 34.124C 161.827 34.124 163.217 32.9947 163.217 30.736C 163.217 29.6347 162.536 28.7013 161.173 27.936C 160.557 27.5813 159.876 27.2453 159.129 26.928C 158.401 26.6107 157.664 26.2653 156.917 25.892C 156.171 25.5187 155.489 25.1173 154.873 24.688C 154.276 24.2587 153.781 23.7173 153.389 23.064C 153.016 22.4107 152.829 21.6733 152.829 20.852C 152.829 19.508 153.371 18.3693 154.453 17.436C 155.555 16.484 157.057 16.008 158.961 16.008C 160.865 16.008 162.872 16.5867 164.981 17.744C 164.981 18.808 164.851 20.1427 164.589 21.748C 164.179 21.804 163.637 21.832 162.965 21.832L 162.125 18.584C 161.901 18.472 161.453 18.36 160.781 18.248C 160.128 18.136 159.549 18.08 159.045 18.08C 157.963 18.08 157.123 18.3133 156.525 18.78C 155.928 19.228 155.629 19.8627 155.629 20.684C 155.629 21.4867 155.975 22.2147 156.665 22.868C 157.375 23.5027 158.224 24.0533 159.213 24.52C 160.221 24.968 161.22 25.4347 162.209 25.92C 163.217 26.4053 164.067 27.04 164.757 27.824C 165.467 28.5893 165.821 29.4853 165.821 30.512C 165.821 32.3787 165.196 33.8253 163.945 34.852C 162.695 35.86 161.061 36.364 159.045 36.364C 157.944 36.364 156.749 36.196 155.461 35.86C 154.192 35.5053 153.137 35.0573 152.297 34.516C 152.335 33.2653 152.475 31.8187 152.717 30.176C 153.128 30.12 153.669 30.092 154.341 30.092L 154.929 33.452C 155.34 33.62 155.956 33.7787 156.777 33.928C 157.617 34.0587 158.373 34.124 159.045 34.124Z" transform="translate(70.8319 438)" fill="white"/>
</g>
<g id="PHP">
<path d="M 116.421 16.4C 118.792 16.4 120.547 16.792 121.685 17.576C 122.843 18.3413 123.421 19.704 123.421 21.664C 123.421 23.624 122.852 25.1827 121.713 26.34C 120.575 27.4787 118.736 28.048 116.197 28.048L 113.845 28.048L 113.761 34.124L 115.945 34.32C 115.945 34.8427 115.787 35.4027 115.469 36L 109.169 36L 109.085 35.048C 109.869 34.7493 110.672 34.5253 111.493 34.376C 111.381 27.096 111.288 21.6827 111.213 18.136C 110.709 18.0427 109.888 17.8187 108.749 17.464L 108.889 16.4L 116.421 16.4ZM 115.917 26.228C 117.523 26.2093 118.745 25.808 119.585 25.024C 120.425 24.2213 120.845 23.1667 120.845 21.86C 120.845 20.5533 120.435 19.648 119.613 19.144C 118.792 18.6213 117.476 18.36 115.665 18.36C 115.329 18.36 114.76 18.3693 113.957 18.388C 113.957 18.4067 113.929 21.0293 113.873 26.256L 115.917 26.228ZM 133.031 24.772L 142.159 24.8C 142.121 22.5227 142.065 20.2733 141.991 18.052C 141.3 17.9213 140.469 17.6973 139.499 17.38L 139.583 16.4L 146.583 16.4C 146.9 16.9973 147.059 17.5573 147.059 18.08C 146.125 18.1547 145.379 18.192 144.819 18.192L 144.511 34.096L 146.863 34.32C 146.863 34.8427 146.704 35.4027 146.387 36L 139.947 36L 139.863 35.02C 140.74 34.7213 141.599 34.4973 142.439 34.348L 142.215 26.564L 132.975 26.564C 132.937 29.924 132.919 32.4347 132.919 34.096L 135.271 34.32C 135.271 34.8427 135.112 35.4027 134.795 36L 128.355 36L 128.271 35.02C 129.148 34.7213 130.007 34.4973 130.847 34.348C 130.66 27.1053 130.511 21.6733 130.399 18.052C 129.708 17.9213 128.877 17.6973 127.907 17.38L 127.991 16.4L 134.991 16.4C 135.308 16.9973 135.467 17.5573 135.467 18.08C 134.533 18.1547 133.787 18.192 133.227 18.192C 133.171 19.6107 133.105 21.804 133.031 24.772ZM 159.523 16.4C 161.893 16.4 163.648 16.792 164.787 17.576C 165.944 18.3413 166.523 19.704 166.523 21.664C 166.523 23.624 165.953 25.1827 164.815 26.34C 163.676 27.4787 161.837 28.048 159.299 28.048L 156.947 28.048L 156.863 34.124L 159.047 34.32C 159.047 34.8427 158.888 35.4027 158.571 36L 152.271 36L 152.187 35.048C 152.971 34.7493 153.773 34.5253 154.595 34.376C 154.483 27.096 154.389 21.6827 154.315 18.136C 153.811 18.0427 152.989 17.8187 151.851 17.464L 151.991 16.4L 159.523 16.4ZM 159.019 26.228C 160.624 26.2093 161.847 25.808 162.687 25.024C 163.527 24.2213 163.947 23.1667 163.947 21.86C 163.947 20.5533 163.536 19.648 162.715 19.144C 161.893 18.6213 160.577 18.36 158.767 18.36C 158.431 18.36 157.861 18.3693 157.059 18.388C 157.059 18.4067 157.031 21.0293 156.975 26.256L 159.019 26.228Z" transform="translate(70.8319 538)" fill="white"/>
</g>
<g id="Wordpress">
<path d="M 46.804 33.06L 50.5 18.052C 49.7534 17.9027 48.9134 17.6787 47.98 17.38L 48.064 16.4L 55.064 16.4C 55.3814 16.9973 55.54 17.5573 55.54 18.08C 54.5134 18.136 53.6174 18.192 52.852 18.248L 47.98 36L 45.348 36L 40.532 19.564L 36.164 36L 33.252 36L 28.24 18.052C 27.4934 17.9027 26.6534 17.6787 25.72 17.38L 25.804 16.4L 33.084 16.4C 33.4014 16.9973 33.56 17.5573 33.56 18.08C 32.6454 18.136 31.8054 18.192 31.04 18.248L 34.596 33.06L 34.708 33.06C 35.3054 30.484 36.108 27.376 37.116 23.736C 38.1427 20.096 38.824 17.66 39.16 16.428L 42.184 16.428L 46.692 33.06L 46.804 33.06ZM 66.2962 34.656C 67.8642 34.656 68.9189 34.1707 69.4602 33.2C 70.0202 32.2107 70.3002 30.8107 70.3002 29C 70.3002 26.1253 69.6655 24.324 68.3962 23.596C 67.8735 23.2973 67.1362 23.148 66.1842 23.148C 65.2509 23.148 64.3642 23.344 63.5242 23.736C 62.7775 25.1733 62.4042 26.844 62.4042 28.748C 62.4042 30.5773 62.6469 31.9867 63.1322 32.976C 63.6922 34.096 64.7469 34.656 66.2962 34.656ZM 59.8282 29C 59.8282 26.6293 60.3695 24.7813 61.4522 23.456C 62.5349 22.112 64.2055 21.44 66.4642 21.44C 68.7229 21.44 70.3562 22.056 71.3642 23.288C 72.3722 24.5013 72.8762 26.3027 72.8762 28.692C 72.8762 31.0813 72.3349 32.9573 71.2522 34.32C 70.1882 35.6827 68.5642 36.364 66.3802 36.364C 64.1962 36.364 62.5535 35.7293 61.4522 34.46C 60.3695 33.1907 59.8282 31.3707 59.8282 29ZM 86.5706 23.792C 86.4773 23.6987 86.2719 23.652 85.9546 23.652C 85.6373 23.652 85.1613 23.764 84.5266 23.988C 83.9106 24.212 83.3506 24.4733 82.8466 24.772C 82.7346 28.916 82.6599 32.024 82.6226 34.096L 84.9746 34.32C 84.9746 34.8427 84.8159 35.4027 84.4986 36L 78.0586 36L 77.9746 35.02C 78.8333 34.7213 79.6733 34.4973 80.4946 34.348C 80.3826 29.6067 80.2893 26.0973 80.2146 23.82C 79.1879 23.764 78.3666 23.652 77.7506 23.484L 77.8626 22.028C 78.8519 21.748 80.3173 21.608 82.2586 21.608C 82.5573 22.0747 82.7439 22.672 82.8186 23.4C 84.9653 22.0933 86.2439 21.44 86.6546 21.44C 87.0653 21.44 87.5413 21.524 88.0826 21.692C 88.6239 21.8413 89.0253 22.0093 89.2866 22.196C 89.2866 24.0627 89.1093 25.584 88.7546 26.76C 88.4933 26.8347 88.1853 26.872 87.8306 26.872C 87.4946 26.872 87.2613 26.8627 87.1306 26.844L 86.5706 23.792ZM 103.265 23.036L 103.181 17.436C 102.154 17.38 101.333 17.268 100.717 17.1L 100.829 15.644C 101.781 15.364 103.162 15.224 104.973 15.224C 105.551 15.224 105.962 15.2427 106.205 15.28C 106.205 15.616 106.149 16.064 106.037 16.624C 105.943 17.1653 105.878 17.464 105.841 17.52L 105.589 34.068C 106.354 34.1053 107.166 34.236 108.025 34.46L 107.969 35.44C 106.681 36.0373 105.542 36.336 104.553 36.336C 104.347 36.336 104.189 36.3267 104.077 36.308C 103.927 36.028 103.741 35.384 103.517 34.376C 101.37 35.5893 99.8674 36.2427 99.0087 36.336C 97.2167 36.336 95.8727 35.6547 94.9767 34.292C 94.0807 32.9293 93.6327 31.184 93.6327 29.056C 93.6327 26.9093 94.0807 25.108 94.9767 23.652C 95.8914 22.1773 97.2354 21.44 99.0087 21.44C 100.39 21.44 101.809 21.972 103.265 23.036ZM 99.4847 23.344C 97.3007 23.344 96.2087 25.136 96.2087 28.72C 96.2087 30.12 96.4327 31.3333 96.8807 32.36C 97.1047 32.92 97.4314 33.368 97.8607 33.704C 98.3087 34.04 98.8221 34.208 99.4007 34.208C 99.9794 34.208 100.651 34.0773 101.417 33.816C 102.201 33.5547 102.873 33.256 103.433 32.92L 103.265 24.94C 102.761 24.5107 102.145 24.1373 101.417 23.82C 100.689 23.5027 100.045 23.344 99.4847 23.344ZM 116.941 34.572L 116.801 40.564L 119.237 40.76C 119.237 41.2827 119.078 41.8427 118.761 42.44L 112.265 42.44L 112.181 41.46C 113.039 41.18 113.879 40.9653 114.701 40.816C 114.589 33.2 114.495 27.5347 114.421 23.82C 113.581 23.8013 112.759 23.6893 111.957 23.484L 112.069 22.028C 113.151 21.748 114.663 21.608 116.605 21.608C 116.773 21.9067 116.931 22.4573 117.081 23.26C 119.47 22.0467 120.982 21.44 121.617 21.44C 123.353 21.44 124.641 22.1213 125.481 23.484C 126.321 24.828 126.741 26.5827 126.741 28.748C 126.741 30.8947 126.265 32.696 125.313 34.152C 124.379 35.608 123.017 36.336 121.225 36.336C 120.553 36.336 119.815 36.168 119.013 35.832C 118.229 35.496 117.538 35.076 116.941 34.572ZM 121.113 23.54C 119.955 23.54 118.611 23.9507 117.081 24.772C 117.043 28.244 117.006 30.848 116.969 32.584C 117.435 33.0507 118.051 33.48 118.817 33.872C 119.601 34.2453 120.282 34.432 120.861 34.432C 123.063 34.432 124.165 32.6213 124.165 29C 124.165 27.6187 124.006 26.536 123.689 25.752C 123.371 24.9493 123.007 24.38 122.597 24.044C 122.186 23.708 121.691 23.54 121.113 23.54ZM 140.436 23.792C 140.342 23.6987 140.137 23.652 139.82 23.652C 139.502 23.652 139.026 23.764 138.392 23.988C 137.776 24.212 137.216 24.4733 136.712 24.772C 136.6 28.916 136.525 32.024 136.488 34.096L 138.84 34.32C 138.84 34.8427 138.681 35.4027 138.364 36L 131.924 36L 131.84 35.02C 132.698 34.7213 133.538 34.4973 134.36 34.348C 134.248 29.6067 134.154 26.0973 134.08 23.82C 133.053 23.764 132.232 23.652 131.616 23.484L 131.728 22.028C 132.717 21.748 134.182 21.608 136.124 21.608C 136.422 22.0747 136.609 22.672 136.684 23.4C 138.83 22.0933 140.109 21.44 140.52 21.44C 140.93 21.44 141.406 21.524 141.948 21.692C 142.489 21.8413 142.89 22.0093 143.152 22.196C 143.152 24.0627 142.974 25.584 142.62 26.76C 142.358 26.8347 142.05 26.872 141.696 26.872C 141.36 26.872 141.126 26.8627 140.996 26.844L 140.436 23.792ZM 154.61 34.432C 155.431 34.432 156.719 34.04 158.474 33.256C 158.828 33.7413 159.015 34.1707 159.034 34.544C 158.082 35.104 157.148 35.5427 156.234 35.86C 155.319 36.1773 154.666 36.336 154.274 36.336C 152.108 36.336 150.456 35.692 149.318 34.404C 148.179 33.0973 147.61 31.2773 147.61 28.944C 147.61 26.6107 148.16 24.7813 149.262 23.456C 150.382 22.112 152.052 21.44 154.274 21.44C 155.991 21.44 157.298 22.056 158.194 23.288C 159.108 24.52 159.566 26.172 159.566 28.244C 159.416 28.5053 159.295 28.6827 159.202 28.776L 150.186 28.636C 150.204 30.5213 150.531 31.9587 151.166 32.948C 151.819 33.9373 152.967 34.432 154.61 34.432ZM 157.018 27.04C 157.018 25.808 156.794 24.856 156.346 24.184C 155.898 23.4933 155.151 23.148 154.106 23.148C 153.06 23.148 152.127 23.344 151.306 23.736C 150.746 24.856 150.391 26.004 150.242 27.18C 151.716 27.1613 153.975 27.1147 157.018 27.04ZM 167.23 34.208C 167.883 34.488 168.677 34.628 169.61 34.628C 170.562 34.628 171.309 34.4507 171.85 34.096C 172.391 33.7413 172.662 33.256 172.662 32.64C 172.662 32.024 172.41 31.5107 171.906 31.1C 171.402 30.6893 170.786 30.3253 170.058 30.008C 169.33 29.6907 168.602 29.3547 167.874 29C 167.146 28.6453 166.53 28.1787 166.026 27.6C 165.522 27.0213 165.27 26.3493 165.27 25.584C 165.27 24.296 165.699 23.288 166.558 22.56C 167.417 21.8133 168.602 21.44 170.114 21.44C 171.645 21.44 173.082 21.7853 174.426 22.476C 174.445 22.6627 174.454 23.1667 174.454 23.988C 174.454 24.7907 174.37 25.4813 174.202 26.06C 173.754 26.2093 173.222 26.284 172.606 26.284L 171.682 23.428C 171.271 23.2227 170.711 23.12 170.002 23.12C 169.311 23.12 168.761 23.3067 168.35 23.68C 167.939 24.0347 167.734 24.492 167.734 25.052C 167.734 25.5933 167.986 26.0693 168.49 26.48C 169.013 26.8907 169.638 27.264 170.366 27.6C 171.094 27.9173 171.822 28.2627 172.55 28.636C 173.278 28.9907 173.894 29.4667 174.398 30.064C 174.921 30.6427 175.182 31.3147 175.182 32.08C 175.182 33.424 174.659 34.4787 173.614 35.244C 172.587 35.9907 171.318 36.364 169.806 36.364C 168.985 36.364 168.107 36.2333 167.174 35.972C 166.241 35.692 165.457 35.3373 164.822 34.908C 164.822 33.6573 164.934 32.5467 165.158 31.576C 165.587 31.5013 166.166 31.464 166.894 31.464L 167.23 34.208ZM 182.97 34.208C 183.623 34.488 184.417 34.628 185.35 34.628C 186.302 34.628 187.049 34.4507 187.59 34.096C 188.131 33.7413 188.402 33.256 188.402 32.64C 188.402 32.024 188.15 31.5107 187.646 31.1C 187.142 30.6893 186.526 30.3253 185.798 30.008C 185.07 29.6907 184.342 29.3547 183.614 29C 182.886 28.6453 182.27 28.1787 181.766 27.6C 181.262 27.0213 181.01 26.3493 181.01 25.584C 181.01 24.296 181.439 23.288 182.298 22.56C 183.157 21.8133 184.342 21.44 185.854 21.44C 187.385 21.44 188.822 21.7853 190.166 22.476C 190.185 22.6627 190.194 23.1667 190.194 23.988C 190.194 24.7907 190.11 25.4813 189.942 26.06C 189.494 26.2093 188.962 26.284 188.346 26.284L 187.422 23.428C 187.011 23.2227 186.451 23.12 185.742 23.12C 185.051 23.12 184.501 23.3067 184.09 23.68C 183.679 24.0347 183.474 24.492 183.474 25.052C 183.474 25.5933 183.726 26.0693 184.23 26.48C 184.753 26.8907 185.378 27.264 186.106 27.6C 186.834 27.9173 187.562 28.2627 188.29 28.636C 189.018 28.9907 189.634 29.4667 190.138 30.064C 190.661 30.6427 190.922 31.3147 190.922 32.08C 190.922 33.424 190.399 34.4787 189.354 35.244C 188.327 35.9907 187.058 36.364 185.546 36.364C 184.725 36.364 183.847 36.2333 182.914 35.972C 181.981 35.692 181.197 35.3373 180.562 34.908C 180.562 33.6573 180.674 32.5467 180.898 31.576C 181.327 31.5013 181.906 31.464 182.634 31.464L 182.97 34.208Z" transform="translate(45.6218 638)" fill="white"/>
</g>
<g id="MongoDB">
<path d="M 122.654 18.332L 125.594 34.096L 128.142 34.348C 128.142 34.852 127.984 35.4027 127.666 36L 121.226 36L 121.142 35.02C 121.702 34.7773 122.393 34.5813 123.214 34.432L 120.218 18.724L 116.522 34.656L 113.75 34.656L 108.654 18.668L 106.386 34.096L 108.766 34.32C 108.766 34.8427 108.608 35.4027 108.29 36L 101.85 36L 101.766 35.02C 102.588 34.7213 103.409 34.4973 104.23 34.348L 106.694 18.108C 105.556 17.94 104.65 17.744 103.978 17.52L 104.09 16.4L 110.614 16.4L 115.066 31.744L 115.178 31.744L 118.65 16.4L 124.894 16.4C 125.212 16.9973 125.37 17.576 125.37 18.136C 124.157 18.2667 123.252 18.332 122.654 18.332ZM 139.109 34.656C 140.677 34.656 141.732 34.1707 142.273 33.2C 142.833 32.2107 143.113 30.8107 143.113 29C 143.113 26.1253 142.479 24.324 141.209 23.596C 140.687 23.2973 139.949 23.148 138.997 23.148C 138.064 23.148 137.177 23.344 136.337 23.736C 135.591 25.1733 135.217 26.844 135.217 28.748C 135.217 30.5773 135.46 31.9867 135.945 32.976C 136.505 34.096 137.56 34.656 139.109 34.656ZM 132.641 29C 132.641 26.6293 133.183 24.7813 134.265 23.456C 135.348 22.112 137.019 21.44 139.277 21.44C 141.536 21.44 143.169 22.056 144.177 23.288C 145.185 24.5013 145.689 26.3027 145.689 28.692C 145.689 31.0813 145.148 32.9573 144.065 34.32C 143.001 35.6827 141.377 36.364 139.193 36.364C 137.009 36.364 135.367 35.7293 134.265 34.46C 133.183 33.1907 132.641 31.3707 132.641 29ZM 159.524 21.44C 161.316 21.44 162.613 21.888 163.416 22.784C 164.218 23.6613 164.62 25.0053 164.62 26.816C 164.62 27.3387 164.545 29.7653 164.396 34.096L 166.748 34.32C 166.748 34.8427 166.589 35.4027 166.272 36L 159.832 36L 159.748 35.02C 160.606 34.7213 161.446 34.4973 162.268 34.348C 162.156 29.4573 162.053 26.7413 161.96 26.2C 161.885 25.64 161.754 25.1547 161.568 24.744C 161.381 24.3333 161.101 24.044 160.728 23.876C 160.354 23.708 159.86 23.624 159.244 23.624C 158.012 23.624 156.817 23.9227 155.66 24.52C 155.548 28.776 155.473 31.968 155.436 34.096L 157.788 34.32C 157.788 34.8427 157.629 35.4027 157.312 36L 150.872 36L 150.788 35.02C 151.646 34.7213 152.486 34.4973 153.308 34.348C 153.196 29.6067 153.102 26.0973 153.028 23.82C 152.001 23.764 151.18 23.652 150.564 23.484L 150.676 22.028C 151.684 21.748 153.149 21.608 155.072 21.608C 155.296 21.944 155.464 22.4293 155.576 23.064C 156.378 22.6347 157.181 22.2613 157.984 21.944C 158.805 21.608 159.318 21.44 159.524 21.44ZM 178.514 34.292L 181.006 34.236C 183.582 34.236 184.87 35.3 184.87 37.428C 184.87 38.4173 184.44 39.332 183.582 40.172C 182.742 41.0307 181.734 41.6747 180.558 42.104C 179.382 42.5333 178.28 42.748 177.254 42.748C 176.246 42.748 175.303 42.5987 174.426 42.3C 173.548 42.02 172.802 41.5533 172.186 40.9C 171.57 40.2467 171.262 39.4907 171.262 38.632C 171.262 38.4267 171.588 37.8853 172.242 37.008C 172.914 36.1493 173.352 35.6453 173.558 35.496C 173.39 35.384 173.063 35.0667 172.578 34.544C 172.092 34.0027 171.822 33.6293 171.766 33.424C 172.232 32.5653 172.97 31.7253 173.978 30.904C 172.484 30.008 171.738 28.5333 171.738 26.48C 171.738 24.8373 172.26 23.5867 173.306 22.728C 174.351 21.8693 175.658 21.44 177.226 21.44C 178.794 21.44 180.007 21.692 180.866 22.196C 182.359 21.8973 183.824 21.748 185.262 21.748C 185.616 21.748 185.794 21.9627 185.794 22.392C 185.794 23.1387 185.654 23.652 185.374 23.932L 182.154 23.4C 182.826 24.2587 183.162 25.2853 183.162 26.48C 183.162 28.3467 182.611 29.6907 181.51 30.512C 180.408 31.3147 179.055 31.716 177.45 31.716C 176.946 31.716 176.348 31.6507 175.658 31.52C 175.378 32.0987 175.023 32.724 174.594 33.396C 174.93 33.9933 176.236 34.292 178.514 34.292ZM 182.07 39.444C 182.256 38.9213 182.35 38.38 182.35 37.82C 182.35 37.2787 182.135 36.84 181.706 36.504C 181.276 36.168 180.726 36 180.054 36C 177.384 36 175.751 35.972 175.154 35.916C 174.65 36.7187 174.295 37.3907 174.09 37.932C 173.903 38.492 173.81 38.8093 173.81 38.884C 173.81 39.612 174.155 40.1533 174.846 40.508C 175.536 40.8627 176.33 41.04 177.226 41.04C 178.14 41.04 179.055 40.8907 179.97 40.592C 180.903 40.2933 181.603 39.9107 182.07 39.444ZM 180.642 26.592C 180.642 24.2773 179.578 23.12 177.45 23.12C 175.322 23.12 174.258 24.24 174.258 26.48C 174.258 27.6187 174.538 28.496 175.098 29.112C 175.658 29.728 176.47 30.036 177.534 30.036C 179.606 30.036 180.642 28.888 180.642 26.592ZM 196.857 34.656C 198.425 34.656 199.48 34.1707 200.021 33.2C 200.581 32.2107 200.861 30.8107 200.861 29C 200.861 26.1253 200.226 24.324 198.957 23.596C 198.434 23.2973 197.697 23.148 196.745 23.148C 195.812 23.148 194.925 23.344 194.085 23.736C 193.338 25.1733 192.965 26.844 192.965 28.748C 192.965 30.5773 193.208 31.9867 193.693 32.976C 194.253 34.096 195.308 34.656 196.857 34.656ZM 190.389 29C 190.389 26.6293 190.93 24.7813 192.013 23.456C 193.096 22.112 194.766 21.44 197.025 21.44C 199.284 21.44 200.917 22.056 201.925 23.288C 202.933 24.5013 203.437 26.3027 203.437 28.692C 203.437 31.0813 202.896 32.9573 201.813 34.32C 200.749 35.6827 199.125 36.364 196.941 36.364C 194.757 36.364 193.114 35.7293 192.013 34.46C 190.93 33.1907 190.389 31.3707 190.389 29ZM 225.083 25.752C 225.083 29.9707 224.122 32.836 222.199 34.348C 221.397 34.9827 220.529 35.4213 219.595 35.664C 218.662 35.888 217.439 36 215.927 36L 208.815 36L 208.731 35.02C 208.806 34.964 209.189 34.8427 209.879 34.656C 210.57 34.4693 210.981 34.376 211.111 34.376C 210.999 27.096 210.906 21.6827 210.831 18.136C 209.991 18.024 209.17 17.8 208.367 17.464C 208.405 16.8293 208.451 16.4747 208.507 16.4L 215.563 16.4C 217.505 16.4 219.035 16.5773 220.155 16.932C 221.294 17.2867 222.283 17.94 223.123 18.892C 224.43 20.3293 225.083 22.616 225.083 25.752ZM 222.367 25.976C 222.367 23.456 221.891 21.5613 220.939 20.292C 220.006 19.004 218.429 18.36 216.207 18.36L 213.351 18.36C 213.277 21.7947 213.183 27.04 213.071 34.096L 216.011 34.096C 218.569 34.096 220.267 33.5267 221.107 32.388C 221.947 31.2307 222.367 29.0933 222.367 25.976ZM 241.407 25.78C 242.49 25.9107 243.442 26.4147 244.263 27.292C 245.103 28.1693 245.523 29.4013 245.523 30.988C 245.523 32.556 244.898 33.788 243.647 34.684C 242.415 35.5613 240.605 36 238.215 36L 230.543 36L 230.459 35.02C 231.243 34.7027 232.046 34.4787 232.867 34.348C 232.755 27.1427 232.662 21.7387 232.587 18.136C 231.953 18.024 231.131 17.8 230.123 17.464C 230.179 16.7733 230.226 16.4187 230.263 16.4L 237.291 16.4C 239.793 16.4 241.491 16.6147 242.387 17.044C 242.817 17.2493 243.246 17.52 243.675 17.856C 244.534 18.528 244.963 19.6387 244.963 21.188C 244.963 21.972 244.823 22.6813 244.543 23.316C 244.282 23.932 243.937 24.408 243.507 24.744C 242.723 25.36 242.023 25.7053 241.407 25.78ZM 238.355 26.984L 235.247 26.984C 235.21 28.5893 235.173 30.96 235.135 34.096L 238.103 34.096C 241.202 34.096 242.751 32.9387 242.751 30.624C 242.751 29.28 242.387 28.3373 241.659 27.796C 240.95 27.2547 239.849 26.984 238.355 26.984ZM 237.011 18.36L 235.331 18.388C 235.294 20.1053 235.275 22.336 235.275 25.08L 238.019 25.08C 239.662 25.08 240.754 24.772 241.295 24.156C 241.855 23.5213 242.135 22.5227 242.135 21.16C 242.135 19.2933 240.427 18.36 237.011 18.36Z" transform="translate(-9 738)" fill="white"/>
</g>
</g>
<g id="Group 2">
<g id="Bad">
<path d="M 64.2228 25.78C 65.3054 25.9107 66.2574 26.4147 67.0788 27.292C 67.9188 28.1693 68.3388 29.4013 68.3388 30.988C 68.3388 32.556 67.7134 33.788 66.4628 34.684C 65.2308 35.5613 63.4201 36 61.0308 36L 53.3588 36L 53.2748 35.02C 54.0588 34.7027 54.8614 34.4787 55.6828 34.348C 55.5708 27.1427 55.4774 21.7387 55.4028 18.136C 54.7681 18.024 53.9468 17.8 52.9388 17.464C 52.9948 16.7733 53.0414 16.4187 53.0788 16.4L 60.1068 16.4C 62.6081 16.4 64.3068 16.6147 65.2028 17.044C 65.6321 17.2493 66.0614 17.52 66.4908 17.856C 67.3494 18.528 67.7788 19.6387 67.7788 21.188C 67.7788 21.972 67.6388 22.6813 67.3588 23.316C 67.0974 23.932 66.7521 24.408 66.3228 24.744C 65.5388 25.36 64.8388 25.7053 64.2228 25.78ZM 61.1708 26.984L 58.0628 26.984C 58.0254 28.5893 57.9881 30.96 57.9508 34.096L 60.9188 34.096C 64.0174 34.096 65.5668 32.9387 65.5668 30.624C 65.5668 29.28 65.2028 28.3373 64.4748 27.796C 63.7654 27.2547 62.6641 26.984 61.1708 26.984ZM 59.8268 18.36L 58.1468 18.388C 58.1094 20.1053 58.0908 22.336 58.0908 25.08L 60.8348 25.08C 62.4774 25.08 63.5694 24.772 64.1108 24.156C 64.6708 23.5213 64.9508 22.5227 64.9508 21.16C 64.9508 19.2933 63.2428 18.36 59.8268 18.36ZM 85.0795 26.844L 84.9395 34.068C 85.7421 34.124 86.5448 34.2547 87.3475 34.46L 87.2915 35.44C 86.9928 35.5893 86.4515 35.7573 85.6675 35.944C 84.9021 36.112 84.1461 36.196 83.3995 36.196C 83.0635 35.524 82.8768 34.88 82.8395 34.264C 80.7115 35.664 79.2181 36.364 78.3595 36.364C 77.0341 36.364 75.9701 36.0093 75.1675 35.3C 74.3648 34.5907 73.9635 33.6013 73.9635 32.332C 73.9635 29.4013 75.7555 27.8893 79.3395 27.796C 81.4301 27.74 82.4848 27.712 82.5035 27.712L 82.4755 26.76C 82.4381 25.472 82.1955 24.548 81.7475 23.988C 81.2995 23.4093 80.4968 23.12 79.3395 23.12C 78.8541 23.12 78.3315 23.232 77.7715 23.456L 77.0995 26.256C 77.0061 26.2747 76.8475 26.284 76.6235 26.284L 75.4755 26.2C 75.1768 25.3973 75.0181 24.2867 74.9995 22.868C 75.3541 22.6813 76.1661 22.4013 77.4355 22.028C 78.7048 21.636 79.5168 21.44 79.8715 21.44C 81.7755 21.44 83.1195 21.86 83.9035 22.7C 84.6875 23.54 85.0795 24.9213 85.0795 26.844ZM 78.9755 34.46C 79.5168 34.46 80.7675 33.8533 82.7275 32.64L 82.5875 29.14C 81.3181 29.252 80.2541 29.3547 79.3955 29.448C 78.5368 29.5413 77.8461 29.7933 77.3235 30.204C 76.8008 30.596 76.5395 31.2213 76.5395 32.08C 76.5395 33.6667 77.3515 34.46 78.9755 34.46ZM 101.629 23.036L 101.545 17.436C 100.519 17.38 99.6972 17.268 99.0812 17.1L 99.1932 15.644C 100.145 15.364 101.527 15.224 103.337 15.224C 103.916 15.224 104.327 15.2427 104.569 15.28C 104.569 15.616 104.513 16.064 104.401 16.624C 104.308 17.1653 104.243 17.464 104.205 17.52L 103.953 34.068C 104.719 34.1053 105.531 34.236 106.389 34.46L 106.333 35.44C 105.045 36.0373 103.907 36.336 102.917 36.336C 102.712 36.336 102.553 36.3267 102.441 36.308C 102.292 36.028 102.105 35.384 101.881 34.376C 99.7346 35.5893 98.2319 36.2427 97.3732 36.336C 95.5812 36.336 94.2372 35.6547 93.3412 34.292C 92.4452 32.9293 91.9972 31.184 91.9972 29.056C 91.9972 26.9093 92.4452 25.108 93.3412 23.652C 94.2559 22.1773 95.5999 21.44 97.3732 21.44C 98.7546 21.44 100.173 21.972 101.629 23.036ZM 97.8492 23.344C 95.6652 23.344 94.5732 25.136 94.5732 28.72C 94.5732 30.12 94.7972 31.3333 95.2452 32.36C 95.4692 32.92 95.7959 33.368 96.2252 33.704C 96.6732 34.04 97.1866 34.208 97.7652 34.208C 98.3439 34.208 99.0159 34.0773 99.7812 33.816C 100.565 33.5547 101.237 33.256 101.797 32.92L 101.629 24.94C 101.125 24.5107 100.509 24.1373 99.7812 23.82C 99.0532 23.5027 98.4092 23.344 97.8492 23.344Z" transform="translate(289 10)" fill="white"/>
</g>
<g id="Good">
<path d="M 51.4758 36.364C 48.9744 36.364 46.9771 35.5053 45.4838 33.788C 43.9904 32.0707 43.2438 29.532 43.2438 26.172C 43.2438 22.7933 43.8878 20.264 45.1758 18.584C 46.4824 16.8853 48.5077 16.036 51.2517 16.036C 54.0144 16.036 56.3384 16.7267 58.2238 18.108C 58.2238 19.06 58.0931 20.1893 57.8318 21.496C 57.4211 21.5707 56.8798 21.608 56.2078 21.608L 55.5918 18.724C 54.5278 18.3693 53.2211 18.192 51.6718 18.192C 50.6451 18.192 49.2358 18.472 47.4438 19.032C 47.3318 19.2373 47.1918 19.5267 47.0238 19.9C 46.8558 20.2547 46.6318 21.02 46.3518 22.196C 46.0904 23.3533 45.9598 24.52 45.9598 25.696C 45.9598 31.4267 47.8171 34.292 51.5318 34.292C 53.4918 34.292 55.0038 33.9373 56.0677 33.228C 56.1424 30.876 56.1891 29.112 56.2078 27.936L 53.4918 27.264L 53.5758 26.284L 60.0158 26.284C 60.3331 26.8813 60.4917 27.4413 60.4917 27.964C 59.7637 28.076 58.9798 28.1507 58.1397 28.188C 58.2518 31.324 58.3078 33.4893 58.3078 34.684C 57.8411 35.0013 56.9078 35.3653 55.5078 35.776C 54.1264 36.168 52.7824 36.364 51.4758 36.364ZM 71.5874 34.656C 73.1554 34.656 74.2101 34.1707 74.7514 33.2C 75.3114 32.2107 75.5914 30.8107 75.5914 29C 75.5914 26.1253 74.9567 24.324 73.6874 23.596C 73.1647 23.2973 72.4274 23.148 71.4754 23.148C 70.5421 23.148 69.6554 23.344 68.8154 23.736C 68.0687 25.1733 67.6954 26.844 67.6954 28.748C 67.6954 30.5773 67.9381 31.9867 68.4234 32.976C 68.9834 34.096 70.0381 34.656 71.5874 34.656ZM 65.1194 29C 65.1194 26.6293 65.6607 24.7813 66.7434 23.456C 67.8261 22.112 69.4967 21.44 71.7554 21.44C 74.0141 21.44 75.6474 22.056 76.6554 23.288C 77.6634 24.5013 78.1674 26.3027 78.1674 28.692C 78.1674 31.0813 77.6261 32.9573 76.5434 34.32C 75.4794 35.6827 73.8554 36.364 71.6714 36.364C 69.4874 36.364 67.8447 35.7293 66.7434 34.46C 65.6607 33.1907 65.1194 31.3707 65.1194 29ZM 89.7338 34.656C 91.3018 34.656 92.3565 34.1707 92.8978 33.2C 93.4578 32.2107 93.7378 30.8107 93.7378 29C 93.7378 26.1253 93.1031 24.324 91.8338 23.596C 91.3111 23.2973 90.5738 23.148 89.6218 23.148C 88.6885 23.148 87.8018 23.344 86.9618 23.736C 86.2151 25.1733 85.8418 26.844 85.8418 28.748C 85.8418 30.5773 86.0845 31.9867 86.5698 32.976C 87.1298 34.096 88.1845 34.656 89.7338 34.656ZM 83.2658 29C 83.2658 26.6293 83.8071 24.7813 84.8898 23.456C 85.9725 22.112 87.6431 21.44 89.9018 21.44C 92.1605 21.44 93.7938 22.056 94.8018 23.288C 95.8098 24.5013 96.3138 26.3027 96.3138 28.692C 96.3138 31.0813 95.7725 32.9573 94.6898 34.32C 93.6258 35.6827 92.0018 36.364 89.8178 36.364C 87.6338 36.364 85.9911 35.7293 84.8898 34.46C 83.8071 33.1907 83.2658 31.3707 83.2658 29ZM 111.044 23.036L 110.96 17.436C 109.934 17.38 109.112 17.268 108.496 17.1L 108.608 15.644C 109.56 15.364 110.942 15.224 112.752 15.224C 113.331 15.224 113.742 15.2427 113.984 15.28C 113.984 15.616 113.928 16.064 113.816 16.624C 113.723 17.1653 113.658 17.464 113.62 17.52L 113.368 34.068C 114.134 34.1053 114.946 34.236 115.804 34.46L 115.748 35.44C 114.46 36.0373 113.322 36.336 112.332 36.336C 112.127 36.336 111.968 36.3267 111.856 36.308C 111.707 36.028 111.52 35.384 111.296 34.376C 109.15 35.5893 107.647 36.2427 106.788 36.336C 104.996 36.336 103.652 35.6547 102.756 34.292C 101.86 32.9293 101.412 31.184 101.412 29.056C 101.412 26.9093 101.86 25.108 102.756 23.652C 103.671 22.1773 105.015 21.44 106.788 21.44C 108.17 21.44 109.588 21.972 111.044 23.036ZM 107.264 23.344C 105.08 23.344 103.988 25.136 103.988 28.72C 103.988 30.12 104.212 31.3333 104.66 32.36C 104.884 32.92 105.211 33.368 105.64 33.704C 106.088 34.04 106.602 34.208 107.18 34.208C 107.759 34.208 108.431 34.0773 109.196 33.816C 109.98 33.5547 110.652 33.256 111.212 32.92L 111.044 24.94C 110.54 24.5107 109.924 24.1373 109.196 23.82C 108.468 23.5027 107.824 23.344 107.264 23.344Z" transform="translate(656 10)" fill="white"/>
</g>
<g id="Very Good">
<path d="M 34.9877 18.248L 29.2197 36L 26.3077 36L 19.8957 18.052C 19.149 17.9027 18.309 17.6787 17.3757 17.38L 17.4597 16.4L 24.7397 16.4C 25.057 16.9973 25.2157 17.5573 25.2157 18.08C 24.301 18.136 23.461 18.192 22.6957 18.248L 27.6517 33.06L 27.7917 33.06C 28.2024 31.66 29.761 26.6573 32.4677 18.052C 31.721 17.94 30.8437 17.716 29.8357 17.38L 29.9197 16.4L 36.9477 16.4C 37.265 16.9973 37.4237 17.5573 37.4237 18.08C 36.565 18.136 35.753 18.192 34.9877 18.248ZM 47.2209 34.432C 48.0422 34.432 49.3302 34.04 51.0849 33.256C 51.4395 33.7413 51.6262 34.1707 51.6449 34.544C 50.6929 35.104 49.7595 35.5427 48.8449 35.86C 47.9302 36.1773 47.2769 36.336 46.8849 36.336C 44.7195 36.336 43.0675 35.692 41.9289 34.404C 40.7902 33.0973 40.2209 31.2773 40.2209 28.944C 40.2209 26.6107 40.7715 24.7813 41.8729 23.456C 42.9929 22.112 44.6635 21.44 46.8849 21.44C 48.6022 21.44 49.9089 22.056 50.8049 23.288C 51.7195 24.52 52.1769 26.172 52.1769 28.244C 52.0275 28.5053 51.9062 28.6827 51.8129 28.776L 42.7969 28.636C 42.8155 30.5213 43.1422 31.9587 43.7769 32.948C 44.4302 33.9373 45.5782 34.432 47.2209 34.432ZM 49.6289 27.04C 49.6289 25.808 49.4049 24.856 48.9569 24.184C 48.5089 23.4933 47.7622 23.148 46.7169 23.148C 45.6715 23.148 44.7382 23.344 43.9169 23.736C 43.3569 24.856 43.0022 26.004 42.8529 27.18C 44.3275 27.1613 46.5862 27.1147 49.6289 27.04ZM 66.113 23.792C 66.0197 23.6987 65.8143 23.652 65.497 23.652C 65.1797 23.652 64.7037 23.764 64.069 23.988C 63.453 24.212 62.893 24.4733 62.389 24.772C 62.277 28.916 62.2023 32.024 62.165 34.096L 64.517 34.32C 64.517 34.8427 64.3583 35.4027 64.041 36L 57.601 36L 57.517 35.02C 58.3757 34.7213 59.2157 34.4973 60.037 34.348C 59.925 29.6067 59.8317 26.0973 59.757 23.82C 58.7303 23.764 57.909 23.652 57.293 23.484L 57.405 22.028C 58.3943 21.748 59.8597 21.608 61.801 21.608C 62.0997 22.0747 62.2863 22.672 62.361 23.4C 64.5077 22.0933 65.7863 21.44 66.197 21.44C 66.6077 21.44 67.0837 21.524 67.625 21.692C 68.1663 21.8413 68.5677 22.0093 68.829 22.196C 68.829 24.0627 68.6517 25.584 68.297 26.76C 68.0357 26.8347 67.7277 26.872 67.373 26.872C 67.037 26.872 66.8037 26.8627 66.673 26.844L 66.113 23.792ZM 76.0871 41.208C 76.7964 41.208 77.4871 40.5267 78.1591 39.164C 78.8498 37.8013 79.2418 36.7467 79.3351 36L 78.6631 36L 74.2391 23.68L 71.8871 23.456C 71.8871 22.9333 72.0458 22.3733 72.3631 21.776L 78.8031 21.776L 78.8871 22.756C 78.2898 23.0173 77.6271 23.2227 76.8991 23.372L 79.3351 31.016L 79.9791 33.48L 80.2591 33.48L 83.6191 23.372L 81.2671 22.756L 81.3511 21.776L 87.6511 21.776C 87.9684 22.3733 88.1271 22.9333 88.1271 23.456C 87.3618 23.5493 86.5964 23.6147 85.8311 23.652C 85.3458 25.0707 84.6178 27.1893 83.6471 30.008C 82.6951 32.8267 81.9391 35.0107 81.3791 36.56C 80.8378 38.1093 80.2964 39.3693 79.7551 40.34C 79.2138 41.3107 78.6724 41.9547 78.1311 42.272C 77.6084 42.608 77.0204 42.776 76.3671 42.776C 75.2098 42.776 74.1271 42.552 73.1191 42.104L 72.6151 41.852C 72.7458 39.724 72.8298 38.5573 72.8671 38.352C 73.0164 38.296 73.5578 38.268 74.4911 38.268L 75.4431 41.124C 75.6111 41.18 75.8258 41.208 76.0871 41.208ZM 109.924 36.364C 107.422 36.364 105.425 35.5053 103.932 33.788C 102.438 32.0707 101.692 29.532 101.692 26.172C 101.692 22.7933 102.336 20.264 103.624 18.584C 104.93 16.8853 106.956 16.036 109.7 16.036C 112.462 16.036 114.786 16.7267 116.672 18.108C 116.672 19.06 116.541 20.1893 116.28 21.496C 115.869 21.5707 115.328 21.608 114.656 21.608L 114.04 18.724C 112.976 18.3693 111.669 18.192 110.12 18.192C 109.093 18.192 107.684 18.472 105.892 19.032C 105.78 19.2373 105.64 19.5267 105.472 19.9C 105.304 20.2547 105.08 21.02 104.8 22.196C 104.538 23.3533 104.408 24.52 104.408 25.696C 104.408 31.4267 106.265 34.292 109.98 34.292C 111.94 34.292 113.452 33.9373 114.516 33.228C 114.59 30.876 114.637 29.112 114.656 27.936L 111.94 27.264L 112.024 26.284L 118.464 26.284C 118.781 26.8813 118.94 27.4413 118.94 27.964C 118.212 28.076 117.428 28.1507 116.588 28.188C 116.7 31.324 116.756 33.4893 116.756 34.684C 116.289 35.0013 115.356 35.3653 113.956 35.776C 112.574 36.168 111.23 36.364 109.924 36.364ZM 130.035 34.656C 131.603 34.656 132.658 34.1707 133.199 33.2C 133.759 32.2107 134.039 30.8107 134.039 29C 134.039 26.1253 133.405 24.324 132.135 23.596C 131.613 23.2973 130.875 23.148 129.923 23.148C 128.99 23.148 128.103 23.344 127.263 23.736C 126.517 25.1733 126.143 26.844 126.143 28.748C 126.143 30.5773 126.386 31.9867 126.871 32.976C 127.431 34.096 128.486 34.656 130.035 34.656ZM 123.567 29C 123.567 26.6293 124.109 24.7813 125.191 23.456C 126.274 22.112 127.945 21.44 130.203 21.44C 132.462 21.44 134.095 22.056 135.103 23.288C 136.111 24.5013 136.615 26.3027 136.615 28.692C 136.615 31.0813 136.074 32.9573 134.991 34.32C 133.927 35.6827 132.303 36.364 130.119 36.364C 127.935 36.364 126.293 35.7293 125.191 34.46C 124.109 33.1907 123.567 31.3707 123.567 29ZM 148.182 34.656C 149.75 34.656 150.805 34.1707 151.346 33.2C 151.906 32.2107 152.186 30.8107 152.186 29C 152.186 26.1253 151.551 24.324 150.282 23.596C 149.759 23.2973 149.022 23.148 148.07 23.148C 147.137 23.148 146.25 23.344 145.41 23.736C 144.663 25.1733 144.29 26.844 144.29 28.748C 144.29 30.5773 144.533 31.9867 145.018 32.976C 145.578 34.096 146.633 34.656 148.182 34.656ZM 141.714 29C 141.714 26.6293 142.255 24.7813 143.338 23.456C 144.421 22.112 146.091 21.44 148.35 21.44C 150.609 21.44 152.242 22.056 153.25 23.288C 154.258 24.5013 154.762 26.3027 154.762 28.692C 154.762 31.0813 154.221 32.9573 153.138 34.32C 152.074 35.6827 150.45 36.364 148.266 36.364C 146.082 36.364 144.439 35.7293 143.338 34.46C 142.255 33.1907 141.714 31.3707 141.714 29ZM 169.492 23.036L 169.408 17.436C 168.382 17.38 167.56 17.268 166.944 17.1L 167.056 15.644C 168.008 15.364 169.39 15.224 171.2 15.224C 171.779 15.224 172.19 15.2427 172.432 15.28C 172.432 15.616 172.376 16.064 172.264 16.624C 172.171 17.1653 172.106 17.464 172.068 17.52L 171.816 34.068C 172.582 34.1053 173.394 34.236 174.252 34.46L 174.196 35.44C 172.908 36.0373 171.77 36.336 170.78 36.336C 170.575 36.336 170.416 36.3267 170.304 36.308C 170.155 36.028 169.968 35.384 169.744 34.376C 167.598 35.5893 166.095 36.2427 165.236 36.336C 163.444 36.336 162.1 35.6547 161.204 34.292C 160.308 32.9293 159.86 31.184 159.86 29.056C 159.86 26.9093 160.308 25.108 161.204 23.652C 162.119 22.1773 163.463 21.44 165.236 21.44C 166.618 21.44 168.036 21.972 169.492 23.036ZM 165.712 23.344C 163.528 23.344 162.436 25.136 162.436 28.72C 162.436 30.12 162.66 31.3333 163.108 32.36C 163.332 32.92 163.659 33.368 164.088 33.704C 164.536 34.04 165.05 34.208 165.628 34.208C 166.207 34.208 166.879 34.0773 167.644 33.816C 168.428 33.5547 169.1 33.256 169.66 32.92L 169.492 24.94C 168.988 24.5107 168.372 24.1373 167.644 23.82C 166.916 23.5027 166.272 23.344 165.712 23.344Z" transform="translate(991 10)" fill="white"/>
</g>
</g>
<g id="Group 3">
<g id="Rectangle 5">
<rect width="820" height="25" transform="translate(289 152)" fill="#E0561B"/>
<rect width="820" height="25" transform="translate(289 152)" fill="url(#paint0_linear)"/>
</g>
<g id="Rectangle 5.1">
<rect width="820" height="25" transform="translate(289 252)" fill="#E0561B"/>
<rect width="820" height="25" transform="translate(289 252)" fill="url(#paint1_linear)"/>
</g>
<g id="Rectangle 5.2">
<rect width="671" height="25" transform="translate(289 352)" fill="#E0561B"/>
<rect width="671" height="25" transform="translate(289 352)" fill="url(#paint2_linear)"/>
</g>
<g id="Rectangle 5.3">
<rect width="604" height="25" transform="translate(289 452)" fill="#E0561B"/>
<rect width="604" height="25" transform="translate(289 452)" fill="url(#paint3_linear)"/>
</g>
<g id="Rectangle 5.4">
<rect width="529" height="25" transform="translate(289 552)" fill="#E0561B"/>
<rect width="529" height="25" transform="translate(289 552)" fill="url(#paint4_linear)"/>
</g>
<g id="Rectangle 5.5">
<rect width="529" height="25" transform="translate(289 652)" fill="#E0561B"/>
<rect width="529" height="25" transform="translate(289 652)" fill="url(#paint5_linear)"/>
</g>
<g id="Rectangle 5.6">
<rect width="330" height="25" transform="translate(289 752)" fill="#E0561B"/>
<rect width="330" height="25" transform="translate(289 752)" fill="url(#paint6_linear)"/>
</g>
</g>
<g id="Rectangle 5.6_2">
<rect width="330" height="25" transform="translate(289 847)" fill="#E0561B"/>
<rect width="330" height="25" transform="translate(289 847)" fill="url(#paint7_linear)"/>
</g>
</g>
</g>
<defs>

<linearGradient id="paint0_linear" x2="1" gradientUnits="userSpaceOnUse" gradientTransform="matrix(820 0.000168829 -0.0055566 26896 0.00278365 -13436)">
<stop stop-color="#313131"/>
<stop offset="1" stop-color="white" stop-opacity="0"/>
</linearGradient>
<linearGradient id="paint1_linear" x2="1" gradientUnits="userSpaceOnUse" gradientTransform="matrix(820 0.000168829 -0.0055566 26896 0.00278365 -13436)">
<stop stop-color="#313131"/>
<stop offset="1" stop-color="white" stop-opacity="0"/>
</linearGradient>
<linearGradient id="paint2_linear" x2="1" gradientUnits="userSpaceOnUse" gradientTransform="matrix(671 0.000168829 -0.00454693 26896 0.00227784 -13436)">
<stop stop-color="#313131"/>
<stop offset="1" stop-color="white" stop-opacity="0"/>
</linearGradient>
<linearGradient id="paint3_linear" x2="1" gradientUnits="userSpaceOnUse" gradientTransform="matrix(604 0.000168829 -0.00409291 26896 0.00205039 -13436)">
<stop stop-color="#313131"/>
<stop offset="1" stop-color="white" stop-opacity="0"/>
</linearGradient>
<linearGradient id="paint4_linear" x2="1" gradientUnits="userSpaceOnUse" gradientTransform="matrix(529 0.000168829 -0.00358469 26896 0.00179579 -13436)">
<stop stop-color="#313131"/>
<stop offset="1" stop-color="white" stop-opacity="0"/>
</linearGradient>
<linearGradient id="paint5_linear" x2="1" gradientUnits="userSpaceOnUse" gradientTransform="matrix(529 0.000168829 -0.00358469 26896 0.00179579 -13436)">
<stop stop-color="#313131"/>
<stop offset="1" stop-color="white" stop-opacity="0"/>
</linearGradient>
<linearGradient id="paint6_linear" x2="1" gradientUnits="userSpaceOnUse" gradientTransform="matrix(330 0.000168829 -0.00223619 26896 0.00112025 -13436)">
<stop stop-color="#313131"/>
<stop offset="1" stop-color="white" stop-opacity="0"/>
</linearGradient>
<linearGradient id="paint7_linear" x2="1" gradientUnits="userSpaceOnUse" gradientTransform="matrix(330 0.000168829 -0.00223619 26896 0.00112025 -13436)">
<stop stop-color="#313131"/>
<stop offset="1" stop-color="white" stop-opacity="0"/>
</linearGradient>

</defs>
</svg>

