<svg width="176" height="140" viewBox="0 0 176 140" version="1.1" xmlns="http://www.w3.org/2000/svg" xmlns:xlink="http://www.w3.org/1999/xlink">
<g data-name="Canvas" fill="none">
<g data-name="Book">
<g data-name="Canvas">
<g data-name="Group 7">
<g data-name="Vector 2">
<g data-name="Vector">
<path d="M -2.60317e-07 104.213L -2.60317e-07 5.77984C 32.8245 -8.60006 61.0201 7.20643 71.0149 16.9071L 71.0149 116.197C 51.4459 95.6543 15.518 99.6487 -2.60317e-07 104.213Z" transform="translate(12.6458 1.03268)" fill="white"/>
</g>
<g data-name="Vector">
<path d="M -2.2407e-06 115.565L -2.2407e-06 16.2759C 27.7745 -6.32103 57.3377 -0.557662 68.6476 5.14864L 68.6476 103.582C 35.1919 92.6262 8.94253 107.006 -2.2407e-06 115.565Z" transform="translate(91.5505 1.66389)" fill="white"/>
</g>
<g data-name="Vector">
<path d="M 5.52338 -6.52957e-07L 0 -6.52957e-07L 0 110.417C 47.9743 93.2982 78.3788 111.843 87.5848 123.256C 114.728 95.8657 156.758 103.284 174.38 110.417L 174.38 -6.52957e-07L 168.286 -6.52957e-07L 167.279 101.857C 131.298 88.1624 99.1576 104.71 87.5848 114.697C 64.2287 91.4152 23.1455 96.4367 5.52338 101.857L 5.52338 -6.52957e-07Z" transform="translate(0.809814 15.372)" fill="white"/>
</g>
<g data-name="Vector">
<path d="M 12.6456 6.81253L 12.3823 5.83662L 11.8358 6.07605L 11.8358 6.81253L 12.6456 6.81253ZM 12.6456 105.246L 11.8358 105.246L 11.8358 106.544L 12.8278 106.252L 12.6456 105.246ZM 83.6605 117.229L 83.1454 118.026L 84.4703 119.416L 84.4703 117.229L 83.6605 117.229ZM 83.6605 17.9398L 84.4703 17.9398L 84.4703 17.4286L 84.1507 17.1188L 83.6605 17.9398ZM 91.5508 17.9398L 91.1151 17.07L 90.741 17.3743L 90.741 17.9398L 91.5508 17.9398ZM 91.5508 117.229L 90.741 117.229L 90.741 119.295L 92.0372 118.055L 91.5508 117.229ZM 160.198 105.246L 159.996 106.246L 161.008 106.577L 161.008 105.246L 160.198 105.246ZM 160.198 6.81253L 161.008 6.81253L 161.008 6.11121L 160.496 5.85304L 160.198 6.81253ZM 0.809816 15.372L 0.809816 14.34L 0 14.34L 0 15.372L 0.809816 15.372ZM 6.33319 15.372L 7.14301 15.372L 7.14301 14.34L 6.33319 14.34L 6.33319 15.372ZM 6.33319 117.229L 5.52336 117.229L 5.52336 118.54L 6.52323 118.232L 6.33319 117.229ZM 88.3947 130.069L 87.8958 130.882L 88.3601 131.345L 88.8487 130.924L 88.3947 130.069ZM 168.089 117.229L 167.857 118.219L 168.885 118.609L 168.898 117.242L 168.089 117.229ZM 169.096 15.372L 169.096 14.34L 168.296 14.34L 168.286 15.359L 169.096 15.372ZM 175.19 15.372L 176 15.372L 176 14.34L 175.19 14.34L 175.19 15.372ZM 175.19 125.789L 174.945 126.772L 176 127.199L 176 125.789L 175.19 125.789ZM 88.3947 138.628L 87.8299 139.368L 88.3396 140L 88.8973 139.437L 88.3947 138.628ZM 0.809816 125.789L 0 125.789L 0 127.15L 1.02818 126.783L 0.809816 125.789ZM 11.8358 6.81253L 11.8358 105.246L 13.4554 105.246L 13.4554 6.81253L 11.8358 6.81253ZM 12.8278 106.252C 20.5483 103.98 33.295 101.855 46.5866 102.853C 59.8864 103.846 73.5556 107.959 83.1454 118.026L 84.175 116.433C 74.1964 105.957 60.117 101.796 46.6814 100.792C 33.2373 99.7925 20.2609 101.948 12.4634 104.241L 12.8278 106.252ZM 84.4703 117.229L 84.4703 17.9398L 82.8507 17.9398L 82.8507 117.229L 84.4703 117.229ZM 84.1507 17.1188C 73.9918 7.25871 45.5179 -8.67955 12.3823 5.83662L 12.9088 7.78844C 45.4224 -6.45518 73.3391 9.21949 83.1697 18.7608L 84.1507 17.1188ZM 90.741 17.9398L 90.741 117.229L 92.3606 117.229L 92.3606 17.9398L 90.741 17.9398ZM 92.0372 118.055C 100.801 109.666 126.8 95.3743 159.996 106.246L 160.4 104.246C 126.685 93.2058 100.186 107.674 91.0643 116.404L 92.0372 118.055ZM 161.008 105.246L 161.008 6.81253L 159.389 6.81253L 159.389 105.246L 161.008 105.246ZM 160.496 5.85304C 149.007 0.0563169 119.16 -5.74685 91.1151 17.07L 91.9865 18.8096C 119.491 -3.56743 148.77 2.15613 159.9 7.77202L 160.496 5.85304ZM 0.809816 16.404L 6.33319 16.404L 6.33319 14.34L 0.809816 14.34L 0.809816 16.404ZM 5.52336 15.372L 5.52336 117.229L 7.14301 117.229L 7.14301 15.372L 5.52336 15.372ZM 6.52323 118.232C 15.2954 115.533 29.8566 112.939 45.1734 113.916C 60.4965 114.889 76.4094 119.432 87.8958 130.882L 88.8935 129.256C 77.0238 117.424 60.7168 112.837 45.254 111.855C 29.7846 110.877 14.9931 113.505 6.14315 116.226L 6.52323 118.232ZM 88.8487 130.924C 100.273 121.065 132.164 104.632 167.857 118.219L 168.32 116.241C 132.052 102.436 99.6613 119.101 87.9406 129.214L 88.8487 130.924ZM 168.898 117.242L 169.906 15.385L 168.286 15.359L 167.279 117.216L 168.898 117.242ZM 169.096 16.404L 175.19 16.404L 175.19 14.34L 169.096 14.34L 169.096 16.404ZM 174.38 15.372L 174.38 125.789L 176 125.789L 176 15.372L 174.38 15.372ZM 175.435 124.805C 166.578 121.222 151.529 117.556 135.336 118.231C 119.137 118.913 101.65 123.936 87.892 137.819L 88.8973 139.437C 102.283 125.93 119.382 120.967 135.389 120.294C 151.403 119.614 166.18 123.223 174.945 126.772L 175.435 124.805ZM 88.9594 137.889C 79.5093 126.173 48.7895 107.596 0.591451 124.795L 1.02818 126.783C 48.7788 109.743 78.8685 128.258 87.8299 139.368L 88.9594 137.889ZM 1.61963 125.789L 1.61963 15.372L 0 15.372L 0 125.789L 1.61963 125.789Z" fill="white"/>
</g>
</g>
<g data-name="Group 6">
<g data-name="Vector 3">
<g data-name="Vector">
<path d="M 1.06406 11.0781C 7.07864 4.39907 26.8309 -5.41612 56.6237 11.2451L 57.2747 9.3551C 27.0331 -7.55696 6.5826 2.21228 -9.01429e-09 9.52208L 1.06406 11.0781Z" transform="translate(17.8245 20.6599)" fill="#5D5D5D"/>
</g>
</g>
<g data-name="Vector 3.1">
<g data-name="Vector">
<path d="M 1.10686 11.7414C 7.11861 4.56995 26.8491 -5.96646 56.6251 11.9214L 57.3161 10.0545C 27.0578 -8.12285 6.58542 2.37884 3.91299e-09 10.2346L 1.10686 11.7414Z" transform="translate(17.8025 37.1715)" fill="#5D5D5D"/>
</g>
</g>
<g data-name="Vector 3.2">
<g data-name="Vector">
<path d="M 1.10686 11.7414C 7.11861 4.56995 26.8491 -5.96646 56.6251 11.9214L 57.3161 10.0545C 27.0578 -8.12285 6.58542 2.37884 3.91299e-09 10.2346L 1.10686 11.7414Z" transform="translate(17.8025 64.0026)" fill="#5D5D5D"/>
</g>
</g>
<g data-name="Vector 4">
<g data-name="Vector">
<path d="M 0.938616 14.746C 8.90651 7.52565 30.4888 -4.29966 52.8254 6.27268L 53.3893 4.3379C 30.3762 -6.55464 8.22842 5.60751 -3.93358e-10 13.064L 0.938616 14.746Z" transform="translate(98.3284 18.4306)" fill="#5D5D5D"/>
</g>
</g>
<g data-name="Vector 4.1">
<g data-name="Vector">
<path d="M 0.938616 14.746C 8.90651 7.52565 30.4888 -4.29966 52.8254 6.27268L 53.3893 4.3379C 30.3762 -6.55464 8.22842 5.60751 -3.93358e-10 13.064L 0.938616 14.746Z" transform="translate(98.3284 36.318)" fill="#5D5D5D"/>
</g>
</g>
<g data-name="Vector 4.2">
<g data-name="Vector">
<path d="M 0.938616 14.746C 8.90651 7.52565 30.4888 -4.29966 52.8254 6.27268L 53.3893 4.3379C 30.3762 -6.55464 8.22842 5.60751 -3.93358e-10 13.064L 0.938616 14.746Z" transform="translate(98.3284 65.901)" fill="#5D5D5D"/>
</g>
</g>
</g>
</g>
</g>
</g>
</g>
</svg>

