<svg width="326" height="204" viewBox="0 0 326 204" version="1.1" xmlns="http://www.w3.org/2000/svg" xmlns:xlink="http://www.w3.org/1999/xlink">
<title>Book</title>
<desc>Created using Figma</desc>
<g id="Canvas" transform="translate(1494 -418)">
<g id="Book">
<g id="Canvas">
<g id="Group 7">
<g id="Vector 2">
<g id="Vector">
<use xlink:href="#path0_fill" transform="translate(-1470.58 419.501)" fill="#FFFFFF"/>
</g>
<g id="Vector">
<use xlink:href="#path1_fill" transform="translate(-1324.42 420.419)" fill="#FFFFFF"/>
</g>
<g id="Vector">
<use xlink:href="#path2_fill" transform="translate(-1492.5 440.344)" fill="#FFFFFF"/>
</g>
<g id="Vector">
<use xlink:href="#path3_fill" transform="translate(-1494 418)" fill="#FFFFFF"/>
</g>
</g>
<g id="Group 6">
<g id="Vector 3">
<g id="Vector">
<use xlink:href="#path4_fill" transform="translate(-1460.99 448.03)" fill="#313131"/>
</g>
</g>
<g id="Vector 3.1">
<g id="Vector">
<use xlink:href="#path5_fill" transform="translate(-1461.02 472.03)" fill="#313131"/>
</g>
</g>
<g id="Vector 3.2">
<g id="Vector">
<use xlink:href="#path5_fill" transform="translate(-1461.02 511.03)" fill="#313131"/>
</g>
</g>
<g id="Vector 4">
<g id="Vector">
<use xlink:href="#path6_fill" transform="translate(-1311.87 444.79)" fill="#313131"/>
</g>
</g>
<g id="Vector 4.1">
<g id="Vector">
<use xlink:href="#path6_fill" transform="translate(-1311.87 470.79)" fill="#313131"/>
</g>
</g>
<g id="Vector 4.2">
<g id="Vector">
<use xlink:href="#path6_fill" transform="translate(-1311.87 513.79)" fill="#313131"/>
</g>
</g>
</g>
</g>
</g>
</g>
</g>
<defs>
<path id="path0_fill" d="M -4.82178e-07 151.478L -4.82178e-07 8.4012C 60.8 -12.5005 113.026 10.4748 131.539 24.5751L 131.539 168.896C 95.2919 139.037 28.7436 144.843 -4.82178e-07 151.478Z"/>
<path id="path1_fill" d="M -4.15039e-06 167.979L -4.15039e-06 23.6576C 51.446 -9.18784 106.205 -0.810582 127.154 7.48374L 127.154 150.561C 65.185 134.636 16.564 155.538 -4.15039e-06 167.979Z"/>
<path id="path2_fill" d="M 10.2308 -9.49097e-07L 0 -9.49097e-07L 0 160.495C 88.8615 135.612 145.179 162.568 162.231 179.157C 212.508 139.344 290.359 150.127 323 160.495L 323 -9.49097e-07L 311.712 -9.49097e-07L 309.846 148.053C 243.2 128.147 183.667 152.2 162.231 166.716C 118.969 132.875 42.8718 140.174 10.2308 148.053L 10.2308 -9.49097e-07Z"/>
<path id="path3_fill" d="M 23.4231 9.90226L 22.9354 8.48374L 21.9231 8.83176L 21.9231 9.90226L 23.4231 9.90226ZM 23.4231 152.979L 21.9231 152.979L 21.9231 154.865L 23.7605 154.441L 23.4231 152.979ZM 154.962 170.397L 154.008 171.555L 156.462 173.576L 156.462 170.397L 154.962 170.397ZM 154.962 26.0762L 156.462 26.0762L 156.462 25.3332L 155.87 24.8829L 154.962 26.0762ZM 169.577 26.0762L 168.77 24.8119L 168.077 25.2542L 168.077 26.0762L 169.577 26.0762ZM 169.577 170.397L 168.077 170.397L 168.077 173.4L 170.478 171.597L 169.577 170.397ZM 296.731 152.979L 296.357 154.432L 298.231 154.913L 298.231 152.979L 296.731 152.979ZM 296.731 9.90226L 298.231 9.90226L 298.231 8.88286L 297.283 8.5076L 296.731 9.90226ZM 1.5 22.3438L 1.5 20.8438L 0 20.8438L 0 22.3438L 1.5 22.3438ZM 11.7308 22.3438L 13.2308 22.3438L 13.2308 20.8438L 11.7308 20.8438L 11.7308 22.3438ZM 11.7308 170.397L 10.2308 170.397L 10.2308 172.302L 12.0828 171.855L 11.7308 170.397ZM 163.731 189.06L 162.807 190.241L 163.667 190.914L 164.572 190.302L 163.731 189.06ZM 311.346 170.397L 310.917 171.835L 312.821 172.403L 312.846 170.416L 311.346 170.397ZM 313.212 22.3438L 313.212 20.8438L 311.731 20.8438L 311.712 22.3249L 313.212 22.3438ZM 324.5 22.3438L 326 22.3438L 326 20.8438L 324.5 20.8438L 324.5 22.3438ZM 324.5 182.839L 324.046 184.268L 326 184.889L 326 182.839L 324.5 182.839ZM 163.731 201.501L 162.685 202.576L 163.629 203.495L 164.662 202.677L 163.731 201.501ZM 1.5 182.839L 0 182.839L 0 184.817L 1.90447 184.283L 1.5 182.839ZM 21.9231 9.90226L 21.9231 152.979L 24.9231 152.979L 24.9231 9.90226L 21.9231 9.90226ZM 23.7605 154.441C 38.061 151.138 61.6714 148.05 86.2911 149.5C 110.926 150.944 136.245 156.922 154.008 171.555L 155.915 169.24C 137.432 154.013 111.353 147.964 86.4666 146.505C 61.5645 145.052 37.5288 148.185 23.0857 151.518L 23.7605 154.441ZM 156.462 170.397L 156.462 26.0762L 153.462 26.0762L 153.462 170.397L 156.462 170.397ZM 155.87 24.8829C 137.053 10.5508 84.3115 -12.616 22.9354 8.48374L 23.9107 11.3208C 84.1346 -9.38284 135.844 13.4009 154.053 27.2695L 155.87 24.8829ZM 168.077 26.0762L 168.077 170.397L 171.077 170.397L 171.077 26.0762L 168.077 26.0762ZM 170.478 171.597C 186.711 159.404 234.868 138.63 296.357 154.432L 297.104 151.526C 234.655 135.478 185.571 156.508 168.676 169.198L 170.478 171.597ZM 298.231 152.979L 298.231 9.90226L 295.231 9.90226L 295.231 152.979L 298.231 152.979ZM 297.283 8.5076C 276.002 0.0818586 220.717 -8.35325 168.77 24.8119L 170.384 27.3405C 221.33 -5.18539 275.562 3.13402 296.179 11.2969L 297.283 8.5076ZM 1.5 23.8438L 11.7308 23.8438L 11.7308 20.8438L 1.5 20.8438L 1.5 23.8438ZM 10.2308 22.3438L 10.2308 170.397L 13.2308 170.397L 13.2308 22.3438L 10.2308 22.3438ZM 12.0828 171.855C 28.3313 167.931 55.3026 164.161 83.6734 165.581C 112.056 166.995 141.531 173.598 162.807 190.241L 164.655 187.878C 142.669 170.68 112.464 164.012 83.8227 162.585C 55.1692 161.164 27.7713 164.984 11.3788 168.939L 12.0828 171.855ZM 164.572 190.302C 185.733 175.972 244.804 152.087 310.917 171.835L 311.775 168.96C 244.596 148.894 184.6 173.117 162.89 187.817L 164.572 190.302ZM 312.846 170.416L 314.712 22.3627L 311.712 22.3249L 309.846 170.378L 312.846 170.416ZM 313.212 23.8438L 324.5 23.8438L 324.5 20.8438L 313.212 20.8438L 313.212 23.8438ZM 323 22.3438L 323 182.839L 326 182.839L 326 22.3438L 323 22.3438ZM 324.954 181.409C 308.548 176.201 280.673 170.872 250.679 171.853C 220.674 172.844 188.283 180.146 162.8 200.325L 164.662 202.677C 189.456 183.044 221.128 175.83 250.778 174.851C 280.439 173.863 307.811 179.109 324.046 184.268L 324.954 181.409ZM 164.777 200.426C 147.273 183.397 90.3715 156.395 1.09553 181.394L 1.90447 184.283C 90.3516 159.516 146.086 186.428 162.685 202.576L 164.777 200.426ZM 3 182.839L 3 22.3438L 0 22.3438L 0 182.839L 3 182.839Z"/>
<path id="path4_fill" d="M 1.97093 16.1025C 13.1116 6.3942 49.6982 -7.87252 104.882 16.3452L 106.088 13.598C 50.0728 -10.9843 12.1928 3.21563 -1.66969e-08 13.8407L 1.97093 16.1025Z"/>
<path id="path5_fill" d="M 2.0502 17.0665C 13.1856 6.64258 49.7318 -8.67246 104.885 17.3282L 106.165 14.6146C 50.1184 -11.8069 12.198 3.45772 7.24792e-09 14.8763L 2.0502 17.0665Z"/>
<path id="path6_fill" d="M 1.73857 21.4339C 16.4973 10.9388 56.4736 -6.24971 97.847 9.11757L 98.8916 6.30529C 56.265 -9.52741 15.2413 8.15072 -7.28607e-10 18.989L 1.73857 21.4339Z"/>
</defs>
</svg>
