<svg width="185" height="185" viewBox="0 0 185 185" version="1.1" xmlns="http://www.w3.org/2000/svg" xmlns:xlink="http://www.w3.org/1999/xlink">
<g data-name="Canvas" fill="none">
<g data-name="Cog">
<g data-name="Canvas">
<g data-name="Cog">
<g data-name="Group">
<g data-name="Ellipse">
<g data-name="Vector">
<path d="M 139.778 70.8333C 139.778 109.953 108.487 141.667 69.8888 141.667C 31.2904 141.667 0 109.953 0 70.8333C 0 31.7132 31.2904 0 69.8888 0C 108.487 0 139.778 31.7132 139.778 70.8333Z" transform="translate(23.0215 20.8335)" fill="white"/>
</g>
</g>
<g data-name="Rectangle">
<g data-name="Vector">
<path d="M 0 7.4C 0 3.3131 3.3131 0 7.4 0L 177.6 0C 181.687 0 185 3.3131 185 7.4L 185 30.1C 185 34.187 181.687 37.5 177.6 37.5L 7.4 37.5C 3.3131 37.5 0 34.187 0 30.1L 0 7.4Z" transform="translate(0 72.5)" fill="white"/>
</g>
</g>
<g data-name="Rectangle">
<g data-name="Vector">
<path d="M 0 7.4C 0 3.3131 3.3131 0 7.4 0L 178.854 0C 182.941 0 186.254 3.3131 186.254 7.4L 186.254 29.8509C 186.254 33.9376 182.941 37.2509 178.854 37.2509L 7.4 37.2509C 3.31308 37.2509 0 33.9376 0 29.8509L 0 7.4Z" transform="matrix(0.702345 -0.711836 0.702345 0.711836 14.0105 144.283)" fill="white"/>
</g>
</g>
<g data-name="Rectangle">
<g data-name="Vector">
<path d="M 0 7.4C 0 3.3131 3.3131 0 7.4 0L 177.6 0C 181.687 0 185 3.3131 185 7.4L 185 29.6C 185 33.687 181.687 37 177.6 37L 7.4 37C 3.3131 37 0 33.687 0 29.6L 0 7.4Z" transform="matrix(0 -1 1 0 74 185)" fill="white"/>
</g>
</g>
<g data-name="Rectangle">
<g data-name="Vector">
<path d="M 0 7.4C 0 3.3131 3.3131 0 7.4 0L 178.854 0C 182.941 0 186.254 3.3131 186.254 7.4L 186.254 29.8509C 186.254 33.9376 182.941 37.2509 178.854 37.2509L 7.4 37.2509C 3.31308 37.2509 0 33.9376 0 29.8509L 0 7.4Z" transform="matrix(-0.702345 -0.711836 0.702345 -0.711836 144.825 170.799)" fill="white"/>
</g>
</g>
</g>
<g data-name="Ellipse">
<g data-name="Vector">
<path d="M 74 37.5C 74 58.2106 57.4346 75 37 75C 16.5655 75 0 58.2106 0 37.5C 0 16.7893 16.5655 0 37 0C 57.4346 0 74 16.7893 74 37.5Z" transform="translate(55.0881 53.3333)" fill="#4C4C4C"/>
</g>
</g>
</g>
</g>
</g>
</g>
</svg>

