<svg width="75" height="75" viewBox="0 0 75 75" version="1.1" xmlns="http://www.w3.org/2000/svg" xmlns:xlink="http://www.w3.org/1999/xlink">
<g data-name="Canvas" fill="none">
<g data-name="Cog">
<g data-name="Canvas">
<g data-name="Cog">
<g data-name="Group">
<g data-name="Ellipse">
<g data-name="Vector">
<path d="M 56.6667 28.7162C 56.6667 44.5757 43.9814 57.4324 28.3333 57.4324C 12.6853 57.4324 0 44.5757 0 28.7162C 0 12.8567 12.6853 0 28.3333 0C 43.9814 0 56.6667 12.8567 56.6667 28.7162Z" transform="translate(9.33301 8.44598)" fill="white"/>
</g>
</g>
<g data-name="Rectangle">
<g data-name="Vector">
<path d="M 0 3C 0 1.34315 1.34315 0 3 0L 72 0C 73.6569 0 75 1.34315 75 3L 75 12.2027C 75 13.8596 73.6569 15.2027 72 15.2027L 3 15.2027C 1.34315 15.2027 0 13.8596 0 12.2027L 0 3Z" transform="translate(0 29.3919)" fill="white"/>
</g>
</g>
<g data-name="Rectangle">
<g data-name="Vector">
<path d="M 0 3C 0 1.34315 1.34315 0 3 0L 72.5085 0C 74.1653 0 75.5085 1.34315 75.5085 3L 75.5085 12.1017C 75.5085 13.7585 74.1653 15.1017 72.5085 15.1017L 3 15.1017C 1.34314 15.1017 0 13.7585 0 12.1017L 0 3Z" transform="matrix(0.702345 -0.711836 0.702345 0.711836 5.67999 58.4931)" fill="white"/>
</g>
</g>
<g data-name="Rectangle">
<g data-name="Vector">
<path d="M 0 3C 0 1.34315 1.34315 0 3 0L 72 0C 73.6569 0 75 1.34315 75 3L 75 12C 75 13.6569 73.6569 15 72 15L 3 15C 1.34315 15 0 13.6569 0 12L 0 3Z" transform="matrix(0 -1 1 0 30 75)" fill="white"/>
</g>
</g>
<g data-name="Rectangle">
<g data-name="Vector">
<path d="M 0 3C 0 1.34315 1.34315 0 3 0L 72.5085 0C 74.1653 0 75.5085 1.34315 75.5085 3L 75.5085 12.1017C 75.5085 13.7585 74.1653 15.1017 72.5085 15.1017L 3 15.1017C 1.34314 15.1017 0 13.7585 0 12.1017L 0 3Z" transform="matrix(-0.702345 -0.711836 0.702345 -0.711836 58.713 69.243)" fill="white"/>
</g>
</g>
</g>
<g data-name="Ellipse">
<g data-name="Vector">
<path d="M 30 15.2027C 30 23.5989 23.2843 30.4054 15 30.4054C 6.71573 30.4054 0 23.5989 0 15.2027C 0 6.80648 6.71573 0 15 0C 23.2843 0 30 6.80648 30 15.2027Z" transform="translate(22.333 21.6216)" fill="black"/>
</g>
</g>
</g>
</g>
</g>
</g>
</svg>

