<svg width="202" height="202" viewBox="0 0 202 202" version="1.1" xmlns="http://www.w3.org/2000/svg" xmlns:xlink="http://www.w3.org/1999/xlink">
<title>Group</title>
<desc>Created using Figma</desc>
<g id="Canvas" transform="translate(-370 497)">
<g id="Group">
<g id="Vector 6">
<use xlink:href="#path0_fill" transform="translate(370.953 -414)" fill="#003A1B"/>
</g>
<g id="Vector 7">
<use xlink:href="#path1_fill" transform="translate(397.442 -339.5)" fill="#045D3C"/>
</g>
<g id="Vector">
<use xlink:href="#path2_fill" transform="translate(370.466 -496.366)" fill="#045D3C"/>
</g>
<g id="Vector 3">
<use xlink:href="#path3_fill" transform="translate(374.267 -471.052)" fill="#299949"/>
</g>
<g id="Vector 4">
<use xlink:href="#path4_fill" transform="translate(413.109 -417.053)" fill="#97C93C"/>
</g>
<g id="Vector 5">
<use xlink:href="#path5_fill" transform="translate(469.5 -355.355)" fill="#C4D72D"/>
</g>
</g>
</g>
<defs>
<path id="path0_fill" d="M 68.047 20C 30.047 17.6 13.547 5.66667 10.047 0C 3.047 6.5 -0.453003 19.5 0.0469978 25C 0.0469971 36 10.047 47.7435 29.547 53C 87.047 68.5 140.122 49.4703 172.047 30C 167.047 26.5 115.547 23 68.047 20Z"/>
<path id="path1_fill" d="M 66.0583 10C 36.4583 10 9.55832 3.66667 0.0583191 0C -0.441671 10 2.39162 15.1667 4.05829 17C 48.0583 47.5 136.058 12.75 134.058 11.5C 130.058 9 103.058 10 66.0583 10Z"/>
<path id="path2_fill" d="M 0.53363 107.366C 0.072271 99.5232 4.39465 90.749 11.0337 81.6265C 20.4074 68.7464 39.0596 52.1994 60.0337 37.8664C 72.6886 29.2185 85.7691 21.2698 96.2147 14.9224C 109.35 6.9405 118.319 1.49064 117.034 0.366414C 98.8865 -2.77449 42.2105 14.3663 16.0336 48.3663C 4.0147 63.9772 -1.88265 83.9285 0.53363 107.366Z"/>
<path id="path3_fill" d="M 23.8179 129.052C 29.6206 88.4526 125.733 33.0521 168.233 3.55217C 125.233 -18.4479 -6.26729 67.5519 0.232664 102.052C 0.749916 119.781 14.8854 137.647 27.2327 148.552C 23.1504 142.996 22.8596 135.757 23.8179 129.052Z"/>
<path id="path4_fill" d="M 1.39102 99.0526C -16.109 56.5527 136.891 -21.4473 158.391 5.55259C 162.391 10.0526 48.891 67.0526 36.391 99.0526C 26.391 124.653 71.2244 120.053 94.891 114.553C 40.891 132.553 3.89102 109.053 1.39102 99.0526Z"/>
<path id="path5_fill" d="M 32 42.8548C 21.2 52.4548 31.8333 52.8548 38.5 51.8548C 8.10001 61.4548 0.166672 53.1882 0 47.8548C 2.84716 32.1954 31.4588 15.1803 56 6.35483C 74.5565 -0.318412 91 -1.58973 91 1.85482C 91 9.85482 45.5 30.8548 32 42.8548Z"/>
</defs>
</svg>
