<svg width="188" height="44" viewBox="0 0 188 44" version="1.1" xmlns="http://www.w3.org/2000/svg" xmlns:xlink="http://www.w3.org/1999/xlink">
<title>dao-home__without-sub</title>
<desc>Created using Figma</desc>
<g id="Canvas" transform="translate(-2466 271)">
<g id="dao-home__without-sub">
<g id="DAO-Home__Logo">
<g id="Vector 6">
<use xlink:href="#path0_fill" transform="translate(2466.11 -252.982)" fill="#003A1B"/>
</g>
<g id="Vector 7">
<use xlink:href="#path1_fill" transform="translate(2471.9 -236.685)" fill="#045D3C"/>
</g>
<g id="Vector">
<use xlink:href="#path2_fill" transform="translate(2466 -271)" fill="#045D3C"/>
</g>
<g id="Vector 3">
<use xlink:href="#path3_fill" transform="translate(2466.83 -265.462)" fill="#299949"/>
</g>
<g id="Vector 4">
<use xlink:href="#path4_fill" transform="translate(2475.33 -253.65)" fill="#97C93C"/>
</g>
<g id="Vector 5">
<use xlink:href="#path5_fill" transform="translate(2487.66 -240.153)" fill="#C4D72D"/>
</g>
</g>
<g id="DAO HOME">
<use xlink:href="#path6_fill" transform="translate(2521 -266)"/>
</g>
</g>
</g>
<defs>
<path id="path0_fill" d="M 14.8855 4.37505C 6.57286 3.85005 2.96344 1.2396 2.19781 0C 0.666539 1.42189 -0.0990956 4.26568 0.0102809 5.46882C 0.0102807 7.8751 2.19781 10.444 6.46348 11.5939C 19.0418 14.9846 30.652 10.8218 37.6357 6.56258C 36.542 5.79695 25.2762 5.03131 14.8855 4.37505Z"/>
<path id="path1_fill" d="M 14.4504 2.18753C 7.97534 2.18753 2.09091 0.802093 0.0127575 0C -0.0966167 2.18753 0.523173 3.31775 0.887761 3.7188C 10.5129 10.3908 29.7631 2.7891 29.3256 2.51566C 28.4506 1.96877 22.5443 2.18753 14.4504 2.18753Z"/>
<path id="path2_fill" d="M 0.116733 23.4867C 0.0158095 21.771 0.96134 19.8516 2.41365 17.856C 4.46417 15.0385 8.54439 11.4188 13.1325 8.28337C 15.9008 6.39162 18.7622 4.65283 21.0472 3.26432C 23.9206 1.51825 25.8825 0.326082 25.6014 0.0801539C 21.6317 -0.606927 9.23366 3.14267 3.5074 10.5803C 0.878227 13.9952 -0.411834 18.3596 0.116733 23.4867Z"/>
<path id="path3_fill" d="M 5.21023 28.2305C 6.47959 19.3492 27.5043 7.23023 36.8013 0.777046C 27.395 -4.03553 -1.37099 14.7772 0.0508959 22.3242C 0.164046 26.2024 3.25622 30.1107 5.95722 32.4962C 5.0642 31.2807 5.00059 29.6973 5.21023 28.2305Z"/>
<path id="path4_fill" d="M 0.30429 21.668C -3.52388 12.371 29.9453 -4.69165 34.6485 1.21464C 35.5235 2.19903 10.695 14.6679 7.96063 21.668C 5.77311 27.2681 15.5805 26.2618 20.7577 25.0587C 8.94502 28.9962 0.851172 23.8555 0.30429 21.668Z"/>
<path id="path5_fill" d="M 7.00009 9.37461C 4.63756 11.4746 6.96363 11.5621 8.42198 11.3434C 1.7719 13.4434 0.0364599 11.635 0 10.4684C 0.622823 7.04284 6.88169 3.32072 12.2501 1.39014C 16.3094 -0.0696535 19.9065 -0.347758 19.9065 0.405746C 19.9065 2.15577 9.95325 6.74957 7.00009 9.37461Z"/>
<path id="path6_fill" d="M 9.25293 25.3408L 1.2207 25.3408L 1.2207 11.2661L 2.03857 11.2661L 2.03857 24.645L 9.14307 24.645L 9.2041 24.6328L 9.44824 24.6206C 10.6201 24.5311 11.7106 24.2422 12.7197 23.7539C 15.0798 22.5576 16.2598 20.4621 16.2598 17.4673C 16.2598 15.4572 15.7267 13.8621 14.6606 12.6821C 13.6027 11.5021 12.1419 10.7453 10.2783 10.4116L 9.46045 10.3018L 9.22852 10.2896L 1.31836 10.2896L 1.31836 9.59375L 9.25293 9.59375L 9.53369 9.60596L 10.437 9.72803C 12.5529 10.0942 14.1886 10.9325 15.3442 12.2427C 16.4998 13.5529 17.0776 15.2944 17.0776 17.4673C 17.0776 19.6401 16.4836 21.3857 15.2954 22.7041C 14.1073 24.0143 12.4878 24.8485 10.437 25.2065L 9.53369 25.3286L 9.25293 25.3408ZM 32.9834 25.4019L 25.6958 10.8267L 18.4082 25.4019L 17.7002 25.0356L 25.6958 9.04443L 33.6914 25.0356L 32.9834 25.4019ZM 29.7607 21.5811L 21.6187 21.5811L 21.6187 20.8853L 29.7607 20.8853L 29.7607 21.5811ZM 42.4194 24.6328L 42.4316 24.6328L 42.7002 24.6206C 43.807 24.5392 44.8486 24.2707 45.8252 23.8149C 48.2829 22.6593 49.5117 20.5435 49.5117 17.4673C 49.5117 15.4572 48.9787 13.8621 47.9126 12.6821C 46.8465 11.5021 45.3817 10.7453 43.5181 10.4116L 42.7002 10.3018L 42.2974 10.2896L 42.0776 10.3018C 41.2313 10.3587 40.389 10.55 39.5508 10.8755C 36.6943 11.9578 35.2661 14.1551 35.2661 17.4673C 35.2661 20.4784 36.4827 22.578 38.916 23.7661C 39.9089 24.2544 40.9627 24.5392 42.0776 24.6206L 42.4072 24.6328L 42.4194 24.6328ZM 42.2852 25.3408L 42.0044 25.3286L 41.1133 25.2065C 40.1204 25.0356 39.2131 24.7386 38.3911 24.3154C 35.7625 22.9808 34.4482 20.6981 34.4482 17.4673C 34.4482 15.2944 35.0423 13.5529 36.2305 12.2427C 37.4186 10.9243 39.0462 10.0861 41.1133 9.72803L 42.0044 9.60596L 42.4927 9.59375L 42.7734 9.60596L 43.6768 9.72803C 45.8089 10.1024 47.4487 10.9447 48.5962 12.2549C 49.7518 13.5651 50.3296 15.3026 50.3296 17.4673C 50.3296 19.6401 49.7355 21.3857 48.5474 22.7041C 47.3674 24.0143 45.7438 24.8485 43.6768 25.2065L 42.7612 25.3286L 42.2852 25.3408ZM 58.9844 25.2432L 58.9844 9.69141L 59.8022 9.69141L 59.8022 25.2432L 58.9844 25.2432ZM 74.0479 25.2432L 74.0479 9.69141L 74.8657 9.69141L 74.8657 25.2432L 74.0479 25.2432ZM 59.0942 17.8091L 59.0942 17.1255L 74.7559 17.1255L 74.7559 17.8091L 59.0942 17.8091ZM 85.2905 24.6328L 85.3027 24.6328L 85.5713 24.6206C 86.6781 24.5392 87.7197 24.2707 88.6963 23.8149C 91.154 22.6593 92.3828 20.5435 92.3828 17.4673C 92.3828 15.4572 91.8498 13.8621 90.7837 12.6821C 89.7176 11.5021 88.2528 10.7453 86.3892 10.4116L 85.5713 10.3018L 85.1685 10.2896L 84.9487 10.3018C 84.1024 10.3587 83.2601 10.55 82.4219 10.8755C 79.5654 11.9578 78.1372 14.1551 78.1372 17.4673C 78.1372 20.4784 79.3538 22.578 81.7871 23.7661C 82.7799 24.2544 83.8338 24.5392 84.9487 24.6206L 85.2783 24.6328L 85.2905 24.6328ZM 85.1562 25.3408L 84.8755 25.3286L 83.9844 25.2065C 82.9915 25.0356 82.0841 24.7386 81.2622 24.3154C 78.6336 22.9808 77.3193 20.6981 77.3193 17.4673C 77.3193 15.2944 77.9134 13.5529 79.1016 12.2427C 80.2897 10.9243 81.9173 10.0861 83.9844 9.72803L 84.8755 9.60596L 85.3638 9.59375L 85.6445 9.60596L 86.5479 9.72803C 88.68 10.1024 90.3198 10.9447 91.4673 12.2549C 92.6229 13.5651 93.2007 15.3026 93.2007 17.4673C 93.2007 19.6401 92.6066 21.3857 91.4185 22.7041C 90.2384 24.0143 88.6149 24.8485 86.5479 25.2065L 85.6323 25.3286L 85.1562 25.3408ZM 108.765 25.4019L 101.489 10.8267L 94.1772 25.4141L 93.5059 25.0234L 101.489 9.04443L 109.485 25.0356L 108.765 25.4019ZM 114.404 25.4019L 107.129 10.8267L 105.505 14.0859L 104.773 13.7686L 107.129 9.04443L 115.125 25.0356L 114.404 25.4019ZM 132.715 25.3408L 116.943 25.3408L 116.943 9.59375L 132.715 9.59375L 132.715 10.2896L 117.761 10.2896L 117.761 24.645L 132.715 24.645L 132.715 25.3408ZM 132.715 17.8091L 118.933 17.8091L 118.933 17.1255L 132.715 17.1255L 132.715 17.8091Z"/>
</defs>
</svg>
