<svg width="297" height="293" viewBox="0 0 297 293" version="1.1" xmlns="http://www.w3.org/2000/svg" xmlns:xlink="http://www.w3.org/1999/xlink">
<g id="Canvas" fill="none">
<g id="Education">
<g id="Book 2">
<g id="Vector">
<path d="M 15.3321 0L 296.504 0L 296.491 9.82123L 293.382 9.82123C 287.296 33.296 290.283 57.3703 294.021 72.0223L 296.504 72.0223L 296.504 80.2067L 15.3321 80.2067C -5.11063 80.2067 -5.11078 0 15.3321 0Z" transform="translate(0 212.793)" fill="#7D2D00"/>
</g>
<g id="Vector 2">
<path d="M 15.1652 1.63687L 290.994 0C 283.547 24.5531 288.849 50.743 291.828 62.2011L 15.1656 62.2011C -4.3005 62.2011 -5.79595 1.63687 15.1652 1.63687Z" transform="translate(5.17212 222.615)" fill="#DBDBDB"/>
</g>
<g id="Vector 2.1">
<path d="M 12.2421 0.430756L 289.308 0C 288.65 3.27374 287.484 9.82123 285.988 16.3687L 0 16.3687C 2.99119 3.27374 12.2421 0.430756 12.2421 0.430756Z" transform="translate(6.854 222.615)" fill="#CCCCCC"/>
</g>
</g>
<g id="Group 2">
<g id="Vector_2">
<path d="M 0 62.3632L 0 0L 7.47799 0L 8.97358 62.3632C 11.9648 86.7542 80.7622 86.7542 83.7534 62.3632L 85.249 0L 92.727 0L 92.727 62.3632C 85.249 103.123 7.47799 104.76 0 62.3632Z" transform="translate(6.85437 68.7486)" fill="black"/>
<path d="M 0 62.3632L 0 0L 7.47799 0L 8.97358 62.3632C 11.9648 86.7542 80.7622 86.7542 83.7534 62.3632L 85.249 0L 92.727 0L 92.727 62.3632C 85.249 103.123 7.47799 104.76 0 62.3632Z" transform="translate(6.85437 68.7486)" fill="url(#paint0_linear)"/>
</g>
<g id="Microphone">
<g id="Micro">
<path d="M 75.4787 68.7486C 75.4787 106.717 82.9567 137.497 38.0888 137.497C -6.77912 137.497 0.69886 106.717 0.69886 68.7486C 0.69886 30.7798 -8.27471 0 38.0888 0C 84.4523 0 75.4787 30.7798 75.4787 68.7486Z" transform="translate(15.129 0)" fill="#E6E6E6"/>
</g>
<g id="Group">
<g id="Rectangle">
<rect width="68.7975" height="6.54749" transform="translate(18.8191 39.2849)" fill="black"/>
<rect width="68.7975" height="6.54749" transform="translate(18.8191 39.2849)" fill="url(#paint1_linear)"/>
</g>
<g id="Rectangle_2">
<rect width="68.7975" height="6.54749" transform="translate(18.8191 65.4749)" fill="black"/>
<rect width="68.7975" height="6.54749" transform="translate(18.8191 65.4749)" fill="url(#paint2_linear)"/>
</g>
<g id="Rectangle_3">
<rect width="68.7975" height="6.54749" transform="translate(18.8191 78.5698)" fill="black"/>
<rect width="68.7975" height="6.54749" transform="translate(18.8191 78.5698)" fill="url(#paint3_linear)"/>
</g>
<g id="Rectangle_4">
<rect width="68.7975" height="6.54749" transform="translate(18.8191 91.6648)" fill="black"/>
<rect width="68.7975" height="6.54749" transform="translate(18.8191 91.6648)" fill="url(#paint4_linear)"/>
</g>
<g id="Rectangle_5">
<rect width="5.98239" height="16.3687" transform="translate(27.7927 104.76)" fill="black"/>
<rect width="5.98239" height="16.3687" transform="translate(27.7927 104.76)" fill="url(#paint5_linear)"/>
</g>
<g id="Rectangle_6">
<rect width="5.98239" height="22.9162" transform="translate(39.7574 104.76)" fill="black"/>
<rect width="5.98239" height="22.9162" transform="translate(39.7574 104.76)" fill="url(#paint6_linear)"/>
</g>
<g id="Rectangle_7">
<rect width="5.98239" height="22.9162" transform="translate(51.7223 104.76)" fill="black"/>
<rect width="5.98239" height="22.9162" transform="translate(51.7223 104.76)" fill="url(#paint7_linear)"/>
</g>
<g id="Rectangle_8">
<rect width="5.98239" height="22.9162" transform="translate(63.687 104.76)" fill="black"/>
<rect width="5.98239" height="22.9162" transform="translate(63.687 104.76)" fill="url(#paint8_linear)"/>
</g>
<g id="Rectangle_9">
<rect width="5.98239" height="16.3687" transform="translate(75.6519 104.76)" fill="black"/>
<rect width="5.98239" height="16.3687" transform="translate(75.6519 104.76)" fill="url(#paint9_linear)"/>
</g>
<g id="Rectangle_10">
<rect width="5.98239" height="16.3687" transform="translate(27.7927 16.3687)" fill="black"/>
<rect width="5.98239" height="16.3687" transform="translate(27.7927 16.3687)" fill="url(#paint10_linear)"/>
</g>
<g id="Rectangle_11">
<rect width="5.98239" height="22.9162" transform="translate(39.7574 9.82123)" fill="black"/>
<rect width="5.98239" height="22.9162" transform="translate(39.7574 9.82123)" fill="url(#paint11_linear)"/>
</g>
<g id="Rectangle_12">
<rect width="5.98239" height="22.9162" transform="translate(51.7223 9.82123)" fill="black"/>
<rect width="5.98239" height="22.9162" transform="translate(51.7223 9.82123)" fill="url(#paint12_linear)"/>
</g>
<g id="Rectangle_13">
<rect width="5.98239" height="22.9162" transform="translate(63.687 9.82123)" fill="black"/>
<rect width="5.98239" height="22.9162" transform="translate(63.687 9.82123)" fill="url(#paint13_linear)"/>
</g>
<g id="Rectangle_14">
<rect width="5.98239" height="16.3687" transform="translate(75.6519 16.3687)" fill="black"/>
<rect width="5.98239" height="16.3687" transform="translate(75.6519 16.3687)" fill="url(#paint14_linear)"/>
</g>
<g id="Rectangle_15">
<rect width="68.7975" height="6.54749" transform="translate(18.8191 52.3799)" fill="black"/>
<rect width="68.7975" height="6.54749" transform="translate(18.8191 52.3799)" fill="url(#paint15_linear)"/>
</g>
</g>
</g>
<g id="Vector 2_2">
<path d="M 32.9031 24.5531L 32.9031 0L 59.8239 0L 59.8239 24.5531L 56.8327 24.5531L 56.8327 40.9218L 92.727 40.9218L 92.727 57.2905L 0 57.2905L 0 40.9218L 35.8943 40.9218L 35.8943 24.5531L 32.9031 24.5531Z" transform="translate(6.85437 155.503)" fill="black"/>
<path d="M 32.9031 24.5531L 32.9031 0L 59.8239 0L 59.8239 24.5531L 56.8327 24.5531L 56.8327 40.9218L 92.727 40.9218L 92.727 57.2905L 0 57.2905L 0 40.9218L 35.8943 40.9218L 35.8943 24.5531L 32.9031 24.5531Z" transform="translate(6.85437 155.503)" fill="url(#paint16_linear)"/>
</g>
</g>
<g id="Group 3">
<g id="Vector 2_3">
<path d="M 77.771 32.7374L 74.7799 32.7374L 74.7799 29.4637L 68.7975 29.4637L 58.3283 19.6425C 58.3283 19.6425 53.8415 27.8268 47.8591 29.4637C 41.8767 31.1006 20.9384 26.1899 2.99119 29.4637L 0 27.8268L 0 22.9162L 5.98239 13.095C 5.98239 13.095 9.69826 10.1999 11.9648 8.18436C 13.992 6.38165 24.1191 4.91061 25.4252 4.91061C 35.8943 4.91061 35.5228 1.99491e-06 44.8679 1.9946e-06C 46.3635 1.99455e-06 49.3321 1.63687 49.3547 1.63687C 49.3773 1.63687 51.315 2.39619 52.3459 3.27375L 56.8327 6.54749L 58.3283 8.18436L 59.8239 11.4581L 59.8239 16.3687L 64.3107 19.6425L 67.3019 22.9162L 70.2931 26.1899L 74.7799 26.1899L 74.7799 19.6425L 77.771 14.7318L 77.771 32.7374Z" transform="translate(72.6606 68.7486)" fill="#18733E"/>
<path d="M 77.771 32.7374L 74.7799 32.7374L 74.7799 29.4637L 68.7975 29.4637L 58.3283 19.6425C 58.3283 19.6425 53.8415 27.8268 47.8591 29.4637C 41.8767 31.1006 20.9384 26.1899 2.99119 29.4637L 0 27.8268L 0 22.9162L 5.98239 13.095C 5.98239 13.095 9.69826 10.1999 11.9648 8.18436C 13.992 6.38165 24.1191 4.91061 25.4252 4.91061C 35.8943 4.91061 35.5228 1.99491e-06 44.8679 1.9946e-06C 46.3635 1.99455e-06 49.3321 1.63687 49.3547 1.63687C 49.3773 1.63687 51.315 2.39619 52.3459 3.27375L 56.8327 6.54749L 58.3283 8.18436L 59.8239 11.4581L 59.8239 16.3687L 64.3107 19.6425L 67.3019 22.9162L 70.2931 26.1899L 74.7799 26.1899L 74.7799 19.6425L 77.771 14.7318L 77.771 32.7374Z" transform="translate(72.6606 68.7486)" fill="url(#paint17_linear)"/>
</g>
<g id="Vector_3">
<path d="M 0.104537 42.6634C -2.28842 5.99744 36.9959 -0.986545 56.9372 0.104703C 100.01 0.104703 107.788 26.2946 107.788 42.6634C 107.788 67.2164 86.8492 113.049 56.9372 113.049C 19.5473 113.049 3.09573 88.4958 0.104537 42.6634Z" transform="translate(96.4858 99.7445)" fill="#BF0D0D"/>
</g>
<g id="Ellipse">
<ellipse cx="14.4292" cy="7.92403" rx="14.4292" ry="7.92403" transform="matrix(0.760028 -0.64989 0.581006 0.813899 111.546 126.788)" fill="#E84141"/>
</g>
<g id="Vector_4">
<path d="M 0 112.944C 26.9207 68.7486 11.9648 19.6425 0 0C 40.6802 0 52.3459 21.2793 50.8503 40.9218C 50.8503 83.4804 17.9472 116.218 0 112.944Z" transform="translate(153.423 99.8492)" fill="#940909"/>
</g>
</g>
</g>
</g>
<defs>

<linearGradient id="paint0_linear" x2="1" gradientUnits="userSpaceOnUse" gradientTransform="matrix(0 93.5498 -92.727 0 92.727 0)">
<stop stop-color="#7A7A7A"/>
<stop offset="1" stop-color="white" stop-opacity="0"/>
</linearGradient>
<linearGradient id="paint1_linear" x2="1" gradientUnits="userSpaceOnUse" gradientTransform="matrix(0 6.54749 -68.7975 0 68.7975 0)">
<stop offset="0.364641" stop-color="#1C1C1C"/>
<stop offset="0.690608" stop-color="white" stop-opacity="0"/>
</linearGradient>
<linearGradient id="paint2_linear" x2="1" gradientUnits="userSpaceOnUse" gradientTransform="matrix(0 6.54749 -68.7975 0 68.7975 0)">
<stop offset="0.364641" stop-color="#1C1C1C"/>
<stop offset="0.690608" stop-color="white" stop-opacity="0"/>
</linearGradient>
<linearGradient id="paint3_linear" x2="1" gradientUnits="userSpaceOnUse" gradientTransform="matrix(0 6.54749 -68.7975 0 68.7975 0)">
<stop offset="0.364641" stop-color="#1C1C1C"/>
<stop offset="0.690608" stop-color="white" stop-opacity="0"/>
</linearGradient>
<linearGradient id="paint4_linear" x2="1" gradientUnits="userSpaceOnUse" gradientTransform="matrix(0 6.54749 -68.7975 0 68.7975 0)">
<stop offset="0.364641" stop-color="#1C1C1C"/>
<stop offset="0.690608" stop-color="white" stop-opacity="0"/>
</linearGradient>
<linearGradient id="paint5_linear" x2="1" gradientUnits="userSpaceOnUse" gradientTransform="matrix(0 16.3687 -5.98239 0 5.98239 0)">
<stop/>
<stop offset="1" stop-color="white" stop-opacity="0"/>
</linearGradient>
<linearGradient id="paint6_linear" x2="1" gradientUnits="userSpaceOnUse" gradientTransform="matrix(0 22.9162 -5.98239 0 5.98239 0)">
<stop/>
<stop offset="1" stop-color="white" stop-opacity="0"/>
</linearGradient>
<linearGradient id="paint7_linear" x2="1" gradientUnits="userSpaceOnUse" gradientTransform="matrix(0 22.9162 -5.98239 0 5.98239 0)">
<stop/>
<stop offset="1" stop-color="white" stop-opacity="0"/>
</linearGradient>
<linearGradient id="paint8_linear" x2="1" gradientUnits="userSpaceOnUse" gradientTransform="matrix(0 22.9162 -5.98239 0 5.98239 0)">
<stop/>
<stop offset="1" stop-color="white" stop-opacity="0"/>
</linearGradient>
<linearGradient id="paint9_linear" x2="1" gradientUnits="userSpaceOnUse" gradientTransform="matrix(0 16.3687 -5.98239 0 5.98239 0)">
<stop/>
<stop offset="1" stop-color="white" stop-opacity="0"/>
</linearGradient>
<linearGradient id="paint10_linear" x2="1" gradientUnits="userSpaceOnUse" gradientTransform="matrix(0 16.3687 -5.98239 0 5.98239 0)">
<stop offset="0.292818" stop-color="#242424"/>
<stop offset="0.845304" stop-color="white" stop-opacity="0"/>
</linearGradient>
<linearGradient id="paint11_linear" x2="1" gradientUnits="userSpaceOnUse" gradientTransform="matrix(0 22.9162 -5.98239 0 5.98239 0)">
<stop offset="0.292818" stop-color="#242424"/>
<stop offset="0.845304" stop-color="white" stop-opacity="0"/>
</linearGradient>
<linearGradient id="paint12_linear" x2="1" gradientUnits="userSpaceOnUse" gradientTransform="matrix(0 22.9162 -5.98239 0 5.98239 0)">
<stop offset="0.292818" stop-color="#242424"/>
<stop offset="0.845304" stop-color="white" stop-opacity="0"/>
</linearGradient>
<linearGradient id="paint13_linear" x2="1" gradientUnits="userSpaceOnUse" gradientTransform="matrix(0 22.9162 -5.98239 0 5.98239 0)">
<stop offset="0.292818" stop-color="#242424"/>
<stop offset="0.845304" stop-color="white" stop-opacity="0"/>
</linearGradient>
<linearGradient id="paint14_linear" x2="1" gradientUnits="userSpaceOnUse" gradientTransform="matrix(0 16.3687 -5.98239 0 5.98239 0)">
<stop offset="0.292818" stop-color="#242424"/>
<stop offset="0.845304" stop-color="white" stop-opacity="0"/>
</linearGradient>
<linearGradient id="paint15_linear" x2="1" gradientUnits="userSpaceOnUse" gradientTransform="matrix(0 6.54749 -68.7975 0 68.7975 0)">
<stop offset="0.364641" stop-color="#1C1C1C"/>
<stop offset="0.690608" stop-color="white" stop-opacity="0"/>
</linearGradient>
<linearGradient id="paint16_linear" x2="1" gradientUnits="userSpaceOnUse" gradientTransform="matrix(0 57.2905 -92.727 0 92.727 0)">
<stop/>
<stop offset="1" stop-color="white" stop-opacity="0"/>
</linearGradient>
<linearGradient id="paint17_linear" x2="1" gradientUnits="userSpaceOnUse" gradientTransform="matrix(0 32.7374 -77.771 0 77.771 0)">
<stop stop-color="#46EB8C"/>
<stop offset="1" stop-color="white" stop-opacity="0"/>
</linearGradient>

</defs>
</svg>

