<svg width="83" height="168" viewBox="0 0 83 168" version="1.1" xmlns="http://www.w3.org/2000/svg" xmlns:xlink="http://www.w3.org/1999/xlink">
<g id="Canvas" fill="none">
<g id="Micro">
<g id="Vector">
<path d="M 0 49.2356L 0 0L 6.69355 0L 8.03226 49.2356C 10.7097 68.4923 72.2903 68.4923 74.9677 49.2356L 76.3064 0L 83 0L 83 49.2356C 76.3064 81.4154 6.69355 82.7077 0 49.2356Z" transform="translate(0 54.2769)" fill="black"/>
</g>
<g id="Microphone">
<g id="Micro_2">
<path d="M 67.561 54.2769C 67.561 84.2532 74.2546 108.554 34.0933 108.554C -6.06799 108.554 0.62555 84.2532 0.62555 54.2769C 0.62555 24.3006 -7.4067 0 34.0933 0C 75.5933 0 67.561 24.3006 67.561 54.2769Z" transform="translate(7.40674 0)" fill="#E6E6E6"/>
</g>
<g id="Group">
<g id="Rectangle">
<rect width="61.5806" height="5.16923" transform="translate(10.7097 31.0154)" fill="black"/>
</g>
<g id="Rectangle_2">
<rect width="61.5806" height="5.16923" transform="translate(10.7097 51.6923)" fill="black"/>
</g>
<g id="Rectangle_3">
<rect width="61.5806" height="5.16923" transform="translate(10.7097 62.0307)" fill="black"/>
</g>
<g id="Rectangle_4">
<rect width="61.5806" height="5.16923" transform="translate(10.7097 72.3692)" fill="black"/>
</g>
<g id="Rectangle_5">
<rect width="5.35484" height="12.9231" transform="translate(18.7419 82.7077)" fill="black"/>
<rect width="5.35484" height="12.9231" transform="translate(18.7419 82.7077)" fill="url(#paint0_linear)"/>
</g>
<g id="Rectangle_6">
<rect width="5.35484" height="18.0923" transform="translate(29.4517 82.7077)" fill="black"/>
<rect width="5.35484" height="18.0923" transform="translate(29.4517 82.7077)" fill="url(#paint1_linear)"/>
</g>
<g id="Rectangle_7">
<rect width="5.35484" height="18.0923" transform="translate(40.1614 82.7077)" fill="black"/>
<rect width="5.35484" height="18.0923" transform="translate(40.1614 82.7077)" fill="url(#paint2_linear)"/>
</g>
<g id="Rectangle_8">
<rect width="5.35484" height="18.0923" transform="translate(50.8708 82.7077)" fill="black"/>
<rect width="5.35484" height="18.0923" transform="translate(50.8708 82.7077)" fill="url(#paint3_linear)"/>
</g>
<g id="Rectangle_9">
<rect width="5.35484" height="12.9231" transform="translate(61.5806 82.7077)" fill="black"/>
<rect width="5.35484" height="12.9231" transform="translate(61.5806 82.7077)" fill="url(#paint4_linear)"/>
</g>
<g id="Rectangle_10">
<rect width="5.35484" height="12.9231" transform="translate(18.7419 12.9231)" fill="black"/>
<rect width="5.35484" height="12.9231" transform="translate(18.7419 12.9231)" fill="url(#paint5_linear)"/>
</g>
<g id="Rectangle_11">
<rect width="5.35484" height="18.0923" transform="translate(29.4517 7.75385)" fill="black"/>
<rect width="5.35484" height="18.0923" transform="translate(29.4517 7.75385)" fill="url(#paint6_linear)"/>
</g>
<g id="Rectangle_12">
<rect width="5.35484" height="18.0923" transform="translate(40.1614 7.75385)" fill="black"/>
<rect width="5.35484" height="18.0923" transform="translate(40.1614 7.75385)" fill="url(#paint7_linear)"/>
</g>
<g id="Rectangle_13">
<rect width="5.35484" height="18.0923" transform="translate(50.8708 7.75385)" fill="black"/>
<rect width="5.35484" height="18.0923" transform="translate(50.8708 7.75385)" fill="url(#paint8_linear)"/>
</g>
<g id="Rectangle_14">
<rect width="5.35484" height="12.9231" transform="translate(61.5806 12.9231)" fill="black"/>
<rect width="5.35484" height="12.9231" transform="translate(61.5806 12.9231)" fill="url(#paint9_linear)"/>
</g>
<g id="Rectangle_15">
<rect width="61.5806" height="5.16923" transform="translate(10.7097 41.3539)" fill="black"/>
</g>
</g>
</g>
<g id="Vector 2">
<path d="M 29.4516 19.3846L 29.4516 0L 53.5484 0L 53.5484 19.3846L 50.871 19.3846L 50.871 32.3077L 83 32.3077L 83 45.2308L 0 45.2308L 0 32.3077L 32.129 32.3077L 32.129 19.3846L 29.4516 19.3846Z" transform="translate(0 122.769)" fill="black"/>
<path d="M 29.4516 19.3846L 29.4516 0L 53.5484 0L 53.5484 19.3846L 50.871 19.3846L 50.871 32.3077L 83 32.3077L 83 45.2308L 0 45.2308L 0 32.3077L 32.129 32.3077L 32.129 19.3846L 29.4516 19.3846Z" transform="translate(0 122.769)" fill="url(#paint10_linear)"/>
</g>
</g>
</g>
<defs>

<linearGradient id="paint0_linear" x2="1" gradientUnits="userSpaceOnUse" gradientTransform="matrix(0 12.9231 -5.35484 0 5.35484 0)">
<stop/>
<stop offset="1" stop-color="white" stop-opacity="0"/>
</linearGradient>
<linearGradient id="paint1_linear" x2="1" gradientUnits="userSpaceOnUse" gradientTransform="matrix(0 18.0923 -5.35484 0 5.35484 0)">
<stop/>
<stop offset="1" stop-color="white" stop-opacity="0"/>
</linearGradient>
<linearGradient id="paint2_linear" x2="1" gradientUnits="userSpaceOnUse" gradientTransform="matrix(0 18.0923 -5.35484 0 5.35484 0)">
<stop/>
<stop offset="1" stop-color="white" stop-opacity="0"/>
</linearGradient>
<linearGradient id="paint3_linear" x2="1" gradientUnits="userSpaceOnUse" gradientTransform="matrix(0 18.0923 -5.35484 0 5.35484 0)">
<stop/>
<stop offset="1" stop-color="white" stop-opacity="0"/>
</linearGradient>
<linearGradient id="paint4_linear" x2="1" gradientUnits="userSpaceOnUse" gradientTransform="matrix(0 12.9231 -5.35484 0 5.35484 0)">
<stop/>
<stop offset="1" stop-color="white" stop-opacity="0"/>
</linearGradient>
<linearGradient id="paint5_linear" x2="1" gradientUnits="userSpaceOnUse" gradientTransform="matrix(0 12.9231 -5.35484 0 5.35484 0)">
<stop offset="0.292818" stop-color="#242424"/>
<stop offset="0.845304" stop-color="white" stop-opacity="0"/>
</linearGradient>
<linearGradient id="paint6_linear" x2="1" gradientUnits="userSpaceOnUse" gradientTransform="matrix(0 18.0923 -5.35484 0 5.35484 0)">
<stop offset="0.292818" stop-color="#242424"/>
<stop offset="0.845304" stop-color="white" stop-opacity="0"/>
</linearGradient>
<linearGradient id="paint7_linear" x2="1" gradientUnits="userSpaceOnUse" gradientTransform="matrix(0 18.0923 -5.35484 0 5.35484 0)">
<stop offset="0.292818" stop-color="#242424"/>
<stop offset="0.845304" stop-color="white" stop-opacity="0"/>
</linearGradient>
<linearGradient id="paint8_linear" x2="1" gradientUnits="userSpaceOnUse" gradientTransform="matrix(0 18.0923 -5.35484 0 5.35484 0)">
<stop offset="0.292818" stop-color="#242424"/>
<stop offset="0.845304" stop-color="white" stop-opacity="0"/>
</linearGradient>
<linearGradient id="paint9_linear" x2="1" gradientUnits="userSpaceOnUse" gradientTransform="matrix(0 12.9231 -5.35484 0 5.35484 0)">
<stop offset="0.292818" stop-color="#242424"/>
<stop offset="0.845304" stop-color="white" stop-opacity="0"/>
</linearGradient>
<linearGradient id="paint10_linear" x2="1" gradientUnits="userSpaceOnUse" gradientTransform="matrix(0 45.2308 -83 0 83 0)">
<stop/>
<stop offset="1" stop-color="white" stop-opacity="0"/>
</linearGradient>

</defs>
</svg>

