<svg width="170" height="223" viewBox="0 0 170 223" version="1.1" xmlns="http://www.w3.org/2000/svg" xmlns:xlink="http://www.w3.org/1999/xlink">
<g data-name="Canvas" fill="none">
<g data-name="Group 5.1">
<g data-name="Vector 3">
<path d="M 194 81.798L 179 96.798C 120.2 35.198 64.5 71.1313 44 96.798L 29.5 81.798C 98.7 9.79797 168 51.798 194 81.798Z" transform="matrix(0 1 -1 0 169.798 0)" fill="#313131"/>
<path d="M 208 65.798C 127.6 -15.802 45.8333 31.798 15 65.798L 0 50.798C 92.8 -41.202 187.333 12.4646 223 50.798L 208 65.798Z" transform="matrix(0 1 -1 0 169.798 0)" fill="#313131"/>
<path d="M 73.4999 128.298C 85.6666 110.965 117.9 86.698 149.5 128.298L 164.5 112.298C 147.959 90.9646 103.64 61.098 58.6887 112.298L 73.4999 128.298Z" transform="matrix(0 1 -1 0 169.798 0)" fill="#313131"/>
</g>
<g data-name="Ellipse">
<circle cx="20" cy="20" r="20" transform="matrix(0 1 -1 0 40 91)" fill="#313131"/>
</g>
</g>
</g>
</svg>

